<svg xmlns="http://www.w3.org/2000/svg" xmlns:xlink="http://www.w3.org/1999/xlink" id="Capa_1" x="0px" y="0px" viewBox="0 0 480.1 199" style="enable-background:new 0 0 480.1 199;" xml:space="preserve"><style type="text/css">	.st0{fill:#1D1D1B;}</style><g>	<g>		<path class="st0" d="M90.4,13.5c-8.6-8.6-22.6-8.6-31.3,0L30.7,41.9c-8.6,8.6-8.6,22.6,0,31.3l18.6,18.6c4.3,4.3,4.3,11.3,0,15.6   l-35.9,35.9c-8.6,8.6-8.6,22.6,0,31.3l11.1,11.1c8.6,8.6,22.6,8.6,31.3,0l28.4-28.4c8.6-8.6,8.6-22.6,0-31.3l-18.6-18.6   c-4.3-4.3-4.3-11.3,0-15.6l35.9-35.9c8.6-8.6,8.6-22.6,0-31.3L90.4,13.5z"></path>	</g>	<g>		<rect x="213.7" y="44.1" class="st0" width="15.9" height="111.1"></rect>		<path class="st0" d="M321.7,79.2c-5,0-9.7,1.1-14.2,3.3s-7.9,5.3-10.4,9.4L296.8,81h-15.3v74.1h15.9v-39.7   c0-7.1,1.8-12.6,5.4-16.7c3.6-4,8.4-6.1,14.3-6.1c6,0,10.5,1.8,13.5,5.5c3,3.6,4.5,8.8,4.5,15.5v41.5h15.8v-43.5   c0-10.8-2.7-18.8-8.1-24.3C337.4,82,330.4,79.2,321.7,79.2z"></path>		<rect x="367.7" y="81" class="st0" width="15.9" height="74.1"></rect>		<path class="st0" d="M466.9,139.2c-1.2-1.3-1.8-3.5-1.9-6.3v-22.7c0-6-1.2-11.3-3.5-16c-2.4-4.7-5.9-8.3-10.7-11   c-4.8-2.6-10.7-4-17.9-4c-5.5,0-10.7,1-15.6,3s-8.9,4.9-12.1,8.7s-5,8.4-5.5,13.7h16.1c0.8-4.2,2.8-7.2,5.9-9.2   c3.2-1.9,6.8-2.9,11-2.9c3.2,0,6,0.6,8.4,1.9c2.4,1.2,4.3,3.2,5.7,5.8s2.1,6.1,2.1,10.4H430c-5.8,0-11.1,0.8-16,2.5   c-4.9,1.6-8.7,4.2-11.6,7.6c-2.9,3.4-4.3,8-4.3,13.7c0,4.8,1.2,8.9,3.6,12.3c2.4,3.4,5.6,6,9.6,7.7s8.4,2.6,13.2,2.6   c5.9,0,11.2-1.4,15.8-4.2c4.6-2.8,8.1-6.2,10.5-10.2c1.1,2.9,2.6,5.3,4.5,7.1s4.3,3.2,7.3,4.1c3,0.9,6.4,1.3,10.4,1.3v-13.6   C470.1,141.3,468,140.6,466.9,139.2z M448.9,122c0,3.9-0.9,7.5-2.6,10.8c-1.7,3.3-4.1,6-7.2,8.1c-3.1,2-6.7,3.1-10.8,3.1   c-3.8,0-7.1-0.9-9.8-2.6c-2.7-1.7-4.1-4.5-4.1-8.3c0-2.9,0.8-5.2,2.3-6.8c1.6-1.6,3.6-2.8,6.2-3.5s5.3-1,8.2-1h17.8V122z"></path>		<path class="st0" d="M375.7,47.1c-2.9,0-5.4,1-7.4,3c-2.1,2-3.1,4.4-3.1,7.3c0,3,1,5.5,3.1,7.5s4.5,3.1,7.4,3.1c3,0,5.5-1,7.6-3.1   c2.1-2,3.1-4.6,3.1-7.5s-1-5.3-3.1-7.3S378.7,47.1,375.7,47.1z"></path>		<rect x="247.6" y="81" class="st0" width="15.9" height="74.1"></rect>		<path class="st0" d="M255.5,47.1c-2.9,0-5.4,1-7.4,3c-2.1,2-3.1,4.4-3.1,7.3c0,3,1,5.5,3.1,7.5s4.5,3.1,7.4,3.1c3,0,5.5-1,7.6-3.1   c2-2,3.1-4.6,3.1-7.5s-1-5.3-3.1-7.3S258.5,47.1,255.5,47.1z"></path>		<path class="st0" d="M196.2,139.5c-1.2-1.4-1.8-3.5-1.9-6.4v-22.8c0-6-1.2-11.4-3.5-16.1c-2.4-4.7-5.9-8.4-10.7-11   c-4.8-2.7-10.8-4-18-4c-5.5,0-10.8,1-15.7,3s-9,4.9-12.1,8.7c-3.2,3.8-5,8.4-5.5,13.8h16.1c0.8-4.2,2.8-7.3,6-9.2   c3.2-2,6.9-2.9,11.1-2.9c3.2,0,6,0.6,8.4,1.9c2.4,1.3,4.3,3.2,5.7,5.9c1.4,2.6,2.1,6.1,2.1,10.4h-19c-5.8,0-11.2,0.8-16.1,2.5   c-4.9,1.7-8.8,4.2-11.6,7.7c-2.9,3.5-4.3,8-4.3,13.7c0,4.8,1.2,8.9,3.6,12.3c2.4,3.4,5.6,6,9.7,7.7c4,1.7,8.5,2.6,13.3,2.6   c5.9,0,11.2-1.4,15.8-4.2s8.2-6.2,10.6-10.2c1.1,2.9,2.6,5.3,4.5,7.1c1.9,1.9,4.3,3.2,7.3,4.1c3,0.9,6.5,1.4,10.5,1.4v-13.7   C199.5,141.7,197.4,140.9,196.2,139.5z M178.2,122.2c0,3.9-0.9,7.5-2.6,10.9c-1.7,3.4-4.1,6.1-7.2,8.1c-3.1,2.1-6.7,3.1-10.9,3.1   c-3.8,0-7.1-0.9-9.8-2.6c-2.7-1.8-4.1-4.5-4.1-8.3c0-2.9,0.8-5.2,2.3-6.8c1.6-1.6,3.6-2.8,6.2-3.5c2.6-0.7,5.3-1,8.2-1h17.8v0.1   H178.2z"></path>	</g></g></svg>