<svg viewBox="0 0 71 24" fill="none" xmlns="http://www.w3.org/2000/svg"><g clip-path="url(#clip0_1283_4930)"><path d="M61.5649 7.63775C58.2649 5.08517 54.9539 6.46902 53.6322 8.10791C53.2751 7.75085 53.0223 7.40933 52.6852 7.07445H50.4453V24H55.0337V20.1301L54.9206 18.8349C55.668 19.7752 59.1786 21.0305 62.1659 18.0987C62.881 17.4074 63.4386 16.5699 63.8005 15.6435C64.1625 14.7171 64.3204 13.7234 64.2633 12.7304C64.2063 11.7374 63.9357 10.7684 63.47 9.88956C63.0043 9.01068 62.3545 8.2426 61.5649 7.63775ZM57.3512 15.637C56.8559 15.6335 56.3728 15.4834 55.9626 15.2057C55.5525 14.928 55.2338 14.535 55.0466 14.0764C54.8595 13.6178 54.8124 13.114 54.9111 12.6287C55.0099 12.1433 55.2502 11.698 55.6017 11.349C55.9531 11 56.4001 10.7629 56.8861 10.6675C57.3722 10.5722 57.8756 10.6229 58.3329 10.8132C58.7902 11.0036 59.1809 11.3251 59.4557 11.7372C59.7305 12.1492 59.8772 12.6335 59.8772 13.1288C59.8772 13.4589 59.812 13.7858 59.6854 14.0907C59.5588 14.3956 59.3733 14.6725 59.1394 14.9055C58.9056 15.1385 58.628 15.3231 58.3227 15.4486C58.0174 15.5742 57.6902 15.6382 57.3601 15.637H57.3512Z" fill="currentColor"></path><path d="M13.8296 12.978C13.8484 12.0983 13.69 11.2238 13.3639 10.4066C13.0377 9.58937 12.5505 8.8461 11.9313 8.22103C8.89743 5.03419 5.20939 6.44687 4.47755 7.27185L4.58843 4.91222V0H0V19.0323H2.2421C2.57697 18.6975 2.82979 18.367 3.18684 17.9989C4.51746 19.6378 7.81963 21.0216 11.1196 18.469C11.9618 17.8226 12.6443 16.9913 13.1142 16.0392C13.5841 15.0871 13.8288 14.0397 13.8296 12.978V12.978ZM9.42303 12.978C9.42303 13.4741 9.27592 13.959 9.00032 14.3715C8.72471 14.784 8.33298 15.1055 7.87466 15.2953C7.41634 15.4851 6.91202 15.5348 6.42547 15.438C5.93893 15.3413 5.492 15.1024 5.14122 14.7516C4.79044 14.4008 4.55155 13.9539 4.45477 13.4673C4.35799 12.9808 4.40767 12.4765 4.59751 12.0182C4.78735 11.5598 5.10883 11.1681 5.52131 10.8925C5.93378 10.6169 6.41872 10.4698 6.9148 10.4698C7.58003 10.4698 8.218 10.734 8.68839 11.2044C9.15877 11.6748 9.42303 12.3128 9.42303 12.978Z" fill="currentColor"></path><path d="M18.121 19.0322H15.0273V0.250488H19.6136V17.5486L18.121 19.0322Z" fill="currentColor"></path><path d="M68.1862 19.1766C67.69 19.177 67.2047 19.0303 66.7919 18.7548C66.3791 18.4794 66.0572 18.0877 65.8671 17.6293C65.677 17.1709 65.6272 16.6664 65.7239 16.1796C65.8206 15.6928 66.0595 15.2457 66.4104 14.8948C66.7613 14.5439 67.2085 14.305 67.6952 14.2082C68.182 14.1115 68.6865 14.1614 69.1449 14.3515C69.6033 14.5416 69.995 14.8635 70.2704 15.2763C70.5459 15.6891 70.6927 16.1743 70.6922 16.6706C70.6922 17.3352 70.4282 17.9726 69.9582 18.4426C69.4883 18.9126 68.8509 19.1766 68.1862 19.1766V19.1766Z" fill="currentColor"></path><path d="M42.423 6.23633C41.0675 6.23633 39.7424 6.63834 38.6154 7.39153C37.4884 8.14471 36.6101 9.21522 36.0915 10.4676C35.573 11.7201 35.4375 13.0981 35.7023 14.4276C35.9671 15.757 36.6202 16.978 37.579 17.9362C38.5378 18.8944 39.7593 19.5467 41.0888 19.8106C42.4184 20.0745 43.7964 19.9382 45.0485 19.4188C46.3006 18.8995 47.3705 18.0205 48.123 16.893C48.8754 15.7655 49.2766 14.4401 49.2757 13.0846C49.2746 11.2679 48.5521 9.52604 47.2671 8.24187C45.982 6.9577 44.2397 6.23633 42.423 6.23633V6.23633ZM42.423 15.5928C41.9275 15.5928 41.4431 15.4459 41.031 15.1706C40.6189 14.8954 40.2977 14.5041 40.108 14.0463C39.9182 13.5886 39.8685 13.0848 39.965 12.5987C40.0615 12.1127 40.3 11.6661 40.6502 11.3156C41.0005 10.965 41.4468 10.7262 41.9328 10.6292C42.4187 10.5323 42.9225 10.5816 43.3805 10.7709C43.8384 10.9603 44.23 11.2811 44.5056 11.6929C44.7812 12.1048 44.9286 12.5891 44.929 13.0846C44.9296 13.414 44.8652 13.7402 44.7395 14.0446C44.6138 14.3491 44.4293 14.6257 44.1965 14.8587C43.9637 15.0917 43.6872 15.2765 43.3829 15.4025C43.0786 15.5284 42.7524 15.5931 42.423 15.5928V15.5928Z" fill="currentColor"></path><path d="M27.6362 6.23633C26.2806 6.23589 24.9553 6.63753 23.828 7.39045C22.7006 8.14336 21.822 9.21372 21.3031 10.4661C20.7842 11.7185 20.6485 13.0966 20.913 14.4262C21.1775 15.7558 21.8304 16.977 22.7891 17.9354C23.7479 18.8938 24.9693 19.5464 26.299 19.8104C27.6286 20.0745 29.0067 19.9383 30.2589 19.4191C31.5112 18.8998 32.5812 18.0208 33.3338 16.8932C34.0863 15.7656 34.4875 14.4402 34.4867 13.0846C34.4855 11.2683 33.7633 9.52676 32.4788 8.24266C31.1942 6.95855 29.4525 6.23692 27.6362 6.23633V6.23633ZM27.6362 15.5928C27.1405 15.5933 26.6559 15.4467 26.2435 15.1717C25.8312 14.8967 25.5096 14.5056 25.3196 14.0479C25.1295 13.5901 25.0794 13.0863 25.1757 12.6001C25.2719 12.1139 25.5102 11.6672 25.8604 11.3164C26.2105 10.9656 26.6569 10.7265 27.1429 10.6294C27.6289 10.5323 28.1328 10.5815 28.5909 10.7707C29.049 10.96 29.4407 11.2808 29.7164 11.6927C29.9921 12.1046 30.1395 12.589 30.14 13.0846C30.1408 13.4139 30.0767 13.74 29.9512 14.0445C29.8258 14.3489 29.6415 14.6255 29.4088 14.8586C29.1762 15.0916 28.8999 15.2764 28.5957 15.4024C28.2915 15.5284 27.9654 15.5931 27.6362 15.5928V15.5928Z" fill="currentColor"></path></g><defs><clipPath id="clip0_1283_4930"><rect width="70.6916" height="24" fill="white"></rect></clipPath></defs></svg>