<?xml version="1.0" encoding="UTF-8" standalone="no"?>
<!DOCTYPE svg PUBLIC "-//W3C//DTD SVG 1.1//EN" "http://www.w3.org/Graphics/SVG/1.1/DTD/svg11.dtd">
<svg width="100%" height="100%" viewBox="0 0 219 33" version="1.1" xmlns="http://www.w3.org/2000/svg" xmlns:xlink="http://www.w3.org/1999/xlink" xml:space="preserve" xmlns:serif="http://www.serif.com/" style="fill-rule:evenodd;clip-rule:evenodd;stroke-linejoin:round;stroke-miterlimit:2;">
    <path d="M5.974,0.92L0.383,0.92L0.383,26.422L5.4,26.422C5.841,26.422 6.199,26.78 6.199,27.221L6.199,31.954L12.962,31.954C19.767,31.954 25.037,26.438 25.037,19.633C25.037,12.829 19.767,7.313 12.962,7.313C9.887,7.313 7.524,8.836 5.974,11.269L5.974,0.92ZM6.233,19.633C6.233,15.917 9.246,12.904 12.962,12.904C16.679,12.904 19.691,15.917 19.691,19.633C19.691,23.35 16.679,26.363 12.962,26.363L7.032,26.363C6.591,26.363 6.233,26.005 6.233,25.564L6.233,19.633Z"/>
    <path d="M160.878,32.928C154.765,32.928 151.015,29.024 151.015,22.242L151.015,7.087L157.128,7.087L157.128,21.626C157.128,25.53 158.875,27.38 162.06,27.38C165.348,27.38 167.454,25.068 167.454,21.42L167.454,7.087L173.568,7.087L173.568,32.158L168.174,32.158L168.174,29.743C166.53,31.849 163.807,32.928 160.878,32.928ZM85.879,31.97L85.879,6.9L91.273,6.9L91.273,9.828C92.763,7.362 95.588,6.129 98.773,6.129C104.938,6.129 108.74,10.033 108.74,16.815L108.74,31.97L102.626,31.97L102.626,17.431C102.626,13.527 100.777,11.677 97.54,11.677C94.201,11.677 91.992,14.041 91.992,17.637L91.992,31.97L85.879,31.97ZM42.98,6.9L39.794,6.9C36.66,6.9 34.708,8.492 34.092,11.266L34.092,6.9L28.697,6.9L28.697,31.97L34.811,31.97L34.811,16.969C34.811,13.835 36.147,12.294 39.126,12.294L42.98,12.294L42.98,6.9ZM147.987,6.9L144.801,6.9C141.667,6.9 139.715,8.492 139.098,11.266L139.098,6.9L133.704,6.9L133.704,31.97L139.818,31.97L139.818,16.969C139.818,13.835 141.153,12.294 144.133,12.294L147.987,12.294L147.987,6.9ZM122.125,0.92L115.975,0.92L115.975,6.9L112.607,6.9L112.607,12.294L115.632,12.294L115.632,25.6C115.632,30.172 117.636,31.97 122.054,31.97L127.004,31.97C127.887,31.97 128.602,31.255 128.602,30.373L128.602,26.576L124.109,26.576C122.362,26.576 121.746,25.857 121.746,24.213L121.746,12.294L128.602,12.294L128.602,6.9L122.125,6.9L122.125,0.92ZM211.41,1.107L205.26,1.107L205.26,7.087L202.435,7.087L202.435,12.481L205.46,12.481L205.46,25.787C205.46,30.359 207.464,32.158 211.882,32.158L216.832,32.158C217.714,32.158 218.429,31.442 218.429,30.56L218.429,26.763L213.937,26.763C212.19,26.763 211.574,26.044 211.574,24.4L211.574,12.481L218.429,12.481L218.429,7.087L211.41,7.087L211.41,1.107ZM177.533,26.246C178.396,30.637 182.357,32.928 188.567,32.928C195.245,32.928 199.407,29.692 199.407,24.657C199.407,20.496 196.684,17.721 191.957,17.156L187.899,16.694C185.382,16.386 184.2,15.564 184.2,14.074C184.2,12.327 185.844,11.3 188.464,11.3C191.221,11.3 192.963,12.213 193.086,14.19L199.033,12.897C198.166,8.536 194.327,6.316 188.567,6.316C182.196,6.316 178.189,9.399 178.189,14.382C178.189,18.646 181.118,21.42 185.793,21.934L189.8,22.345C192.009,22.551 193.242,23.373 193.242,24.965C193.242,26.815 191.546,27.996 188.772,27.996C185.712,27.996 183.918,26.983 183.691,24.907L177.533,26.246ZM80.28,0.92L74.13,0.92L74.13,7.069L80.28,7.069L80.28,0.92ZM74.13,31.97L74.13,10.028L80.243,10.028L80.243,31.97L74.13,31.97Z" style="fill-rule:nonzero;"/>
    <path d="M55.675,31.954C58.452,31.954 60.819,30.447 62.446,28.037L62.447,28.495C62.447,30.191 64.324,31.966 66.071,31.966L69.343,31.97C69.784,31.97 70.143,31.612 70.143,31.171L70.143,27.039L68.501,27.039C67.987,27.039 67.727,26.782 67.727,26.268L67.727,12.85L63.247,12.85C62.806,12.85 62.448,12.492 62.448,12.051L62.448,7.313L55.675,7.313C48.87,7.313 43.6,12.829 43.6,19.633C43.6,26.438 48.87,31.954 55.675,31.954ZM62.404,19.633C62.404,23.35 59.391,26.363 55.675,26.363C51.958,26.363 48.945,23.35 48.945,19.633C48.945,15.917 51.958,12.904 55.675,12.904L61.605,12.904C62.046,12.904 62.404,13.262 62.404,13.703L62.404,19.633Z"/>
</svg>
