
  <svg
    width="20"
    height="20"
    viewBox="0 0 20 20"
    fill="none"
    xmlns="http://www.w3.org/2000/svg"
  >
    <rect width="20" height="20" rx="4.26667" fill="#D6FF62" />
    <mask
      id="mask0_3269_819"
      style={{
        maskType: "luminance",
      }}
      maskUnits="userSpaceOnUse"
      x="3"
      y="3"
      width="15"
      height="12"
    >
      <path d="M17.2001 3.91504H3.00024V14.512H17.2001V3.91504Z" fill="white" />
    </mask>
    <g mask="url(#mask0_3269_819)">
      <path
        d="M3.00024 14.3389L7.07143 3.91504H8.42849L4.34301 14.3389H3.00024Z"
        fill="#0B151E"
      />
      <path
        d="M11.0815 7.07682C12.8573 7.07682 14.0989 8.08738 14.3445 9.66114H12.9875C12.7565 8.76611 12.0345 8.28941 11.1251 8.28941C9.84033 8.28941 8.95957 9.27098 8.95957 10.8015C8.95957 12.332 9.78236 13.2993 11.0676 13.2993C12.0349 13.2993 12.7569 12.794 13.0022 11.9565H14.3592C14.085 13.487 12.7712 14.5119 11.0676 14.5119C8.98853 14.5119 7.61719 13.0393 7.61719 10.8158C7.61719 8.59225 9.01752 7.07642 11.0823 7.07642L11.0815 7.07682Z"
        fill="#0B151E"
      />
      <path
        d="M15.0807 13.5013C15.0807 12.9381 15.557 12.4761 16.1202 12.4761C16.6834 12.4761 17.1455 12.9381 17.1455 13.5013C17.1455 14.0645 16.6691 14.5119 16.1202 14.5119C15.5713 14.5119 15.0807 14.0499 15.0807 13.5013Z"
        fill="#0B151E"
      />
    </g>
  </svg>
  