<svg width="197" height="41" viewBox="0 0 197 41" fill="none" xmlns="http://www.w3.org/2000/svg">
<g clip-path="url(#clip0_280_25935)">
<path fill-rule="evenodd" clip-rule="evenodd" d="M15.1992 1.24393L0.368164 11.1189V30.0159L17.3332 18.7169C18.5142 17.9329 19.4702 16.1459 19.4702 14.7309V3.52993C19.4702 0.696934 17.5582 -0.329067 15.1992 1.24393Z" fill="#BBA0CB"/>
<path fill-rule="evenodd" clip-rule="evenodd" d="M0.368164 11.1194L14.5567 20.5662L17.3327 22.4152C18.5147 23.2022 19.4707 24.9862 19.4707 26.4042V37.6052C19.4707 39.5362 18.5807 40.6272 17.2677 40.6272C16.6547 40.6272 15.9497 40.3902 15.1997 39.8912L0.368664 30.0162L0.368164 11.1194Z" fill="#7F3F97"/>
<path fill-rule="evenodd" clip-rule="evenodd" d="M25.0391 1.24393L39.8711 11.1189V30.0159L22.9051 18.7169C21.7261 17.9329 20.7681 16.1459 20.7681 14.7309V3.52993C20.7681 0.696934 22.6821 -0.329067 25.0391 1.24393Z" fill="#BBA0CB"/>
<path fill-rule="evenodd" clip-rule="evenodd" d="M39.871 11.1194V30.0154L25.0386 39.8912C24.2886 40.3902 23.5846 40.6272 22.9716 40.6272C21.6586 40.6272 20.7686 39.5362 20.7686 37.6052V26.4042C20.7686 24.9862 21.7256 23.2022 22.9056 22.4152L25.6826 20.5662L39.871 11.1194Z" fill="#7F3F97"/>
<path fill-rule="evenodd" clip-rule="evenodd" d="M123.232 14.499L126.625 22.755L129.269 14.499H131.939L126.188 31.407H123.517L125.432 26.023L120.444 14.499H123.232ZM190.991 14.333C195.437 14.333 196.388 16.678 196.388 20.362C196.388 20.66 196.381 20.965 196.353 21.278C194.938 21.527 191.99 21.819 190.283 21.895L188.105 21.993C188.243 24.372 189.486 24.927 191.4 24.927C193.051 24.927 194.563 24.768 195.833 24.607L196.055 26.571C194.716 26.786 193.099 27.022 190.72 27.022C186.579 27.022 185.49 24.337 185.49 20.675C185.49 16.192 186.876 14.333 190.991 14.333ZM53.0535 14.3333C54.3575 14.3333 55.3575 14.5203 56.1895 14.7633L55.9815 16.7123C55.2945 16.5883 54.5665 16.4563 53.8375 16.4563C50.6575 16.4563 50.2872 17.311 50.272 20.3413L50.2715 20.5563C50.2715 23.5883 50.4035 24.8573 53.8515 24.8573C54.5665 24.8573 55.2665 24.7253 55.9745 24.5873L56.2105 26.5923C55.1625 26.8343 53.9205 27.0223 52.3745 27.0223C48.2525 27.0223 47.5935 23.9073 47.5935 20.5563C47.5935 16.5103 48.5305 14.3333 53.0535 14.3333ZM81.0353 9.72666V23.6717C81.0353 24.4837 81.0003 25.1907 80.9303 25.9397C79.5503 26.7177 77.6903 27.0217 76.0743 27.0217C72.0153 27.0217 70.3083 25.5167 70.3083 20.6747C70.3083 15.9077 71.9393 14.3327 75.7073 14.3327C76.5663 14.3327 77.5663 14.4657 78.4053 14.6727V9.72666H81.0353ZM88.7797 14.333C93.2267 14.333 94.1767 16.678 94.1767 20.362C94.1767 20.66 94.1697 20.965 94.1427 21.278C92.7277 21.527 89.7787 21.819 88.0727 21.895L85.8937 21.993C86.0327 24.372 87.2737 24.927 89.1887 24.927C90.8397 24.927 92.3527 24.768 93.6217 24.607L93.8437 26.571C92.5047 26.786 90.8887 27.022 88.5087 27.022C84.3677 27.022 83.2777 24.337 83.2777 20.675C83.2777 16.192 84.6647 14.333 88.7797 14.333ZM101.151 14.3332C103.871 14.3332 106.112 15.0762 106.112 18.2252V23.6712C106.112 24.4832 106.077 25.1912 106.008 25.9392C104.627 26.7172 102.788 27.0222 100.485 27.0222C97.1413 27.0222 95.8303 25.7112 95.8303 23.1712C95.8303 21.0142 96.7663 19.6612 99.1533 19.3002C100.513 19.0912 102.005 19.0372 103.531 18.9752C103.531 17.2602 102.782 16.4012 100.902 16.4012C99.4243 16.4012 97.8703 16.5532 96.6073 16.7122L96.3913 14.7842C97.7233 14.5612 99.3413 14.3332 101.151 14.3332ZM170.666 14.333C175.112 14.333 176.063 16.678 176.063 20.362C176.063 20.66 176.055 20.965 176.028 21.278C174.613 21.527 171.665 21.819 169.958 21.895L167.78 21.993C167.918 24.372 169.16 24.927 171.074 24.927C172.725 24.927 174.238 24.768 175.508 24.607L175.73 26.571C174.391 26.786 172.774 27.022 170.395 27.022C166.253 27.022 165.164 24.337 165.164 20.675C165.164 16.192 166.551 14.333 170.666 14.333ZM135.911 14.4994L138.097 24.3294L140.24 17.0944C140.567 15.9974 141.142 15.4774 142.051 15.4774C142.96 15.4774 143.535 15.9904 143.862 17.0944L145.971 24.3024L148.177 14.4994H150.772L147.997 25.2954C147.692 26.4734 147.032 27.0214 146.055 27.0214C145.07 27.0214 144.431 26.4664 144.07 25.2954L141.995 18.5514L139.929 25.2884C139.568 26.4594 138.929 27.0214 137.937 27.0214C136.946 27.0214 136.28 26.4664 135.974 25.2814L133.22 14.4994H135.911ZM63.1397 14.3334C67.1847 14.3334 68.6417 16.1304 68.6417 20.6744C68.6417 25.2244 67.1847 27.0214 63.1397 27.0214C59.0947 27.0214 57.6387 25.3024 57.6387 20.6744C57.6387 16.0544 59.0947 14.3334 63.1397 14.3334ZM114.454 14.3326C118.804 14.3326 119.248 16.3656 119.248 18.9326V26.8556H116.612V19.2176C116.612 17.2466 116.266 16.4146 113.733 16.4146C112.941 16.4146 112.012 16.5536 111.477 16.8306C111.423 17.3296 111.401 17.9326 111.401 18.4886V26.8556H108.772V17.6836C108.772 16.8716 108.808 16.1636 108.877 15.4156C110.277 14.7296 112.116 14.3326 114.454 14.3326ZM155.324 9.72656V14.7986C156.226 14.5136 157.246 14.3326 158.377 14.3326C162.647 14.3326 163.178 16.28 163.199 18.7695L163.199 26.8556H160.562V19.2456C160.562 17.2746 160.201 16.4416 157.655 16.4416C156.865 16.4416 156.004 16.6226 155.324 16.9276V26.8556H152.688V9.72656H155.324ZM183.273 14.3326C183.683 14.3326 184.064 14.3466 184.425 14.3806L184.217 16.4766C183.939 16.4416 183.628 16.4276 183.273 16.4276C182.483 16.4276 181.553 16.5666 181.019 16.8446C180.963 17.3436 180.942 17.9476 180.942 18.5026V26.8556H178.313V17.6836C178.313 16.8716 178.347 16.1636 178.417 15.4156C179.797 14.6386 181.657 14.3326 183.273 14.3326ZM103.531 20.6942C102.441 20.7362 101.179 20.7572 100.173 20.9932C98.8893 21.2922 98.4313 21.6862 98.4313 23.1302C98.4313 24.6782 99.2923 25.0512 100.874 25.0512C101.678 25.0512 102.677 24.9892 103.454 24.6282C103.51 24.1292 103.531 23.5262 103.531 22.9712V20.6942ZM76.3243 16.3727C73.0283 16.3727 72.9663 18.1837 72.9663 20.6747L72.9679 21.0226C72.99 23.1542 73.2775 24.9967 76.0743 24.9967C76.8653 24.9967 77.7953 24.8567 78.3293 24.5807C78.3843 24.0807 78.4053 23.4767 78.4053 22.9217V16.7197C77.7953 16.5107 76.9623 16.3727 76.3243 16.3727ZM63.1397 16.4274C60.9057 16.4274 60.2947 17.2674 60.2947 20.6744C60.2947 24.0874 60.9057 24.9274 63.1397 24.9274C65.3737 24.9274 65.9977 23.9494 65.9977 20.6744C65.9977 17.4064 65.3737 16.4274 63.1397 16.4274ZM88.7797 16.317C86.1777 16.317 85.8247 17.961 85.8247 20.195L88.3077 20.077C89.2167 20.036 90.6457 19.918 91.4987 19.799C91.5197 19.64 91.5277 19.383 91.5277 19.224C91.5277 17.344 90.8327 16.317 88.7797 16.317ZM170.666 16.317C168.063 16.317 167.71 17.961 167.71 20.195L170.193 20.077C171.102 20.036 172.532 19.918 173.384 19.799C173.406 19.64 173.413 19.383 173.413 19.224C173.413 17.344 172.718 16.317 170.666 16.317ZM190.991 16.317C188.389 16.317 188.035 17.961 188.035 20.195L190.519 20.077C191.428 20.036 192.857 19.918 193.709 19.799C193.731 19.64 193.738 19.383 193.738 19.224C193.738 17.344 193.043 16.317 190.991 16.317Z" fill="#686868"/>
</g>
<defs>
<clipPath id="clip0_280_25935">
<rect width="197" height="41" fill="white"/>
</clipPath>
</defs>
</svg>
