<svg width="755" height="265" viewBox="0 0 755 265" fill="none" xmlns="http://www.w3.org/2000/svg">
<path d="M110.8 232.813C122.674 232.813 132.3 229.59 132.3 225.613C132.3 221.637 122.674 218.413 110.8 218.413C98.9259 218.413 89.3 221.637 89.3 225.613C89.3 229.59 98.9259 232.813 110.8 232.813Z" fill="#F0F6FC"/>
<path d="M144.4 154.613L143.1 148.613C164.1 144.013 172.8 128.213 172.9 128.013L178.3 130.913C177.9 131.713 168.2 149.313 144.4 154.613Z" fill="#C2DBF2"/>
<path d="M46.2 173.313L40.3 171.613C40.6 170.713 47.1 149.513 74.7001 147.713L75.1 153.813C51.7 155.413 46.3 173.113 46.2 173.313Z" fill="#C2DBF2"/>
<path d="M157.7 171.313L149 186.313C132.5 214.813 91.4001 214.813 74.9001 186.313L66.2001 171.313C56.8001 155.013 62.7001 135.813 76.5001 126.413C77.2001 125.913 78.0001 125.413 78.8001 125.013C84.4001 122.413 97.1001 120.713 112 120.713C126.9 120.713 139.7 122.513 145.2 125.113C146 125.513 146.7 126.013 147.4 126.513C161.2 135.813 167.1 155.113 157.7 171.313Z" fill="#D7E7F9"/>
<path d="M148.1 127.913C148.1 131.913 131.9 135.113 111.9 135.113C91.9002 135.113 75.7002 131.913 75.7002 127.913C75.7002 127.413 75.9002 126.913 76.4002 126.513C76.9002 126.013 77.7002 125.513 78.7002 125.113C84.3002 122.513 97.0002 120.813 111.9 120.813C126.8 120.813 139.6 122.613 145.1 125.213C146.1 125.613 146.8 126.113 147.3 126.613C147.9 126.913 148.1 127.413 148.1 127.913Z" fill="#C2DBF2"/>
<path d="M43.3 183.713C37.1 183.713 32 178.713 32 172.413C32 166.213 37 161.113 43.3 161.113C49.5 161.113 54.6 166.113 54.6 172.413C54.5 178.713 49.5 183.713 43.3 183.713Z" fill="#D7E7F9"/>
<path d="M178.4 138.713C172.2 138.713 167.1 133.713 167.1 127.413C167.1 121.213 172.1 116.113 178.4 116.113C184.6 116.113 189.7 121.113 189.7 127.413C189.7 133.613 184.6 138.713 178.4 138.713Z" fill="#D7E7F9"/>
<path d="M127.1 176.813L125.8 175.513L124.9 174.613C128.8 168.513 128.1 160.313 122.7 155.013C116.6 148.913 106.6 148.913 100.5 155.013C94.4 161.113 94.4 171.113 100.5 177.213C105.8 182.513 114 183.213 120.1 179.413L121 180.313L122.3 181.613C123.6 182.913 125.8 182.913 127.1 181.613C128.4 180.313 128.4 178.213 127.1 176.813ZM105.3 172.513C101.8 169.013 101.8 163.413 105.3 159.913C108.8 156.413 114.4 156.413 117.9 159.913C120.5 162.513 121.2 166.413 119.8 169.613C119.4 170.713 118.7 171.613 117.9 172.513C117 173.413 116.1 174.013 115 174.413C111.8 175.713 107.9 175.113 105.3 172.513Z" fill="#6366F1"/>
<path d="M144.3 125.113L75.8 117.213C60.8 115.513 50 101.813 51.7 86.813L53.1 74.613C56.2 48.213 80.1 29.313 106.5 32.313L133.9 35.513C160.3 38.613 179.2 62.413 176.1 88.813L174.7 101.013C172.9 116.113 159.3 126.913 144.3 125.113Z" fill="#D7E7F9"/>
<path d="M134.6 106.413L89.4 101.213C77.9 99.913 69.6 89.413 70.9 77.913L72.1 67.513C73.4 56.013 83.9 47.713 95.4 49.013L140.6 54.213C152.1 55.513 160.4 66.013 159.1 77.513L157.9 87.913C156.6 99.413 146.1 107.713 134.6 106.413Z" fill="#2F445B"/>
<path d="M97.4001 84.4129C102.15 84.4129 106 80.5625 106 75.8129C106 71.0632 102.15 67.2129 97.4001 67.2129C92.6504 67.2129 88.8 71.0632 88.8 75.8129C88.8 80.5625 92.6504 84.4129 97.4001 84.4129Z" fill="#6366F1"/>
<path d="M132.6 88.513C137.35 88.513 141.2 84.6626 141.2 79.913C141.2 75.1633 137.35 71.313 132.6 71.313C127.85 71.313 124 75.1633 124 79.913C124 84.6626 127.85 88.513 132.6 88.513Z" fill="#6366F1"/>
<path d="M128.745 35.1813L111.362 33.1653L109.346 50.548L126.729 52.564L128.745 35.1813Z" fill="#C2DBF2"/>
<path d="M642.5 198.213L640.1 195.813C649.9 180.413 648.1 159.713 634.7 146.313C619.2 130.813 593.9 130.813 578.4 146.313C562.9 161.813 562.9 187.113 578.4 202.613C591.8 216.013 612.5 217.813 627.9 208.013L630.3 210.413L633.5 213.613C636.9 217.013 642.4 217.013 645.7 213.613C649.1 210.213 649.1 204.713 645.7 201.413L642.5 198.213ZM590.6 190.413C581.8 181.613 581.8 167.313 590.6 158.613C599.4 149.813 613.7 149.813 622.4 158.613C629 165.213 630.6 174.913 627.3 183.113C626.2 185.813 624.6 188.313 622.4 190.413C620.2 192.613 617.7 194.213 615.1 195.313C607 198.613 597.2 197.013 590.6 190.413Z" fill="#6366F1"/>
<path d="M704.6 135.913C700.4 133.713 695.6 132.413 690.6 132.313C690.3 132.313 689.9 132.313 689.6 132.313C684.2 132.313 679.1 133.613 674.6 135.913C664.1 141.313 656.9 152.313 656.9 165.013V203.213C656.9 208.013 660.8 211.913 665.6 211.913C670.4 211.913 674.2 208.013 674.2 203.213V186.013H693.2C697.5 186.013 701.1 182.913 701.8 178.713C701.9 178.213 701.9 177.813 701.9 177.313C701.9 176.813 701.9 176.313 701.8 175.913C701.1 171.813 697.6 168.713 693.2 168.713H674.2V165.013C674.2 156.513 681.1 149.613 689.6 149.613C698.1 149.613 705 156.513 705 165.013V203.213C705 208.013 708.9 211.913 713.7 211.913C718.5 211.913 722.4 208.013 722.4 203.213V165.013C722.3 152.413 715.1 141.413 704.6 135.913Z" fill="#6366F1"/>
<path d="M223.7 208.213C218.7 208.213 214.1 207.413 209.9 205.713C205.8 204.013 202.2 201.613 199.2 198.413C196.2 195.213 193.9 191.313 192.3 186.613C190.7 181.913 189.9 176.613 189.9 170.613C189.9 164.613 190.8 159.313 192.6 154.613C194.4 149.913 196.9 146.013 200 142.813C203.1 139.613 206.7 137.213 210.9 135.613C215 133.913 219.5 133.113 224.2 133.113C227.2 133.113 229.8 133.313 232.2 133.713C234.6 134.113 236.7 134.613 238.4 135.213C240.2 135.813 241.6 136.313 242.7 136.913C243.8 137.513 244.6 137.913 245 138.113L242.1 146.413C241.5 146.013 240.6 145.513 239.4 145.113C238.2 144.613 236.9 144.113 235.4 143.613C233.9 143.113 232.3 142.713 230.5 142.413C228.7 142.113 227 141.913 225.2 141.913C221.4 141.913 218 142.613 214.9 143.913C211.9 145.213 209.3 147.113 207.1 149.613C205 152.113 203.3 155.113 202.2 158.713C201.1 162.313 200.5 166.213 200.5 170.713C200.5 175.013 201 178.913 202 182.413C203 185.913 204.5 188.913 206.5 191.513C208.5 194.013 211 196.013 214 197.413C217 198.813 220.5 199.513 224.5 199.513C229.1 199.513 233 199.013 236 198.013C239 197.013 241.3 196.213 242.8 195.413L245.4 203.713C244.9 204.013 244.1 204.513 242.8 205.013C241.6 205.513 240 206.013 238.1 206.513C236.2 207.013 234.1 207.413 231.6 207.713C229.1 208.013 226.6 208.213 223.7 208.213Z" fill="#2F445B"/>
<path d="M302.4 179.713C302.4 184.013 301.8 187.813 300.5 191.313C299.3 194.813 297.5 197.713 295.3 200.213C293.1 202.713 290.4 204.613 287.3 205.913C284.2 207.213 280.8 207.913 277.1 207.913C273.4 207.913 270.1 207.213 266.9 205.913C263.8 204.613 261.1 202.613 258.9 200.213C256.7 197.713 254.9 194.713 253.7 191.313C252.5 187.813 251.8 184.013 251.8 179.713C251.8 175.513 252.4 171.613 253.7 168.113C254.9 164.613 256.7 161.613 258.9 159.113C261.1 156.613 263.8 154.713 266.9 153.413C270 152.113 273.4 151.413 277.1 151.413C280.8 151.413 284.1 152.113 287.3 153.413C290.4 154.713 293.1 156.713 295.3 159.113C297.5 161.613 299.3 164.613 300.5 168.113C301.8 171.613 302.4 175.513 302.4 179.713ZM292.4 179.713C292.4 173.613 291 168.813 288.3 165.213C285.6 161.613 281.9 159.913 277.2 159.913C272.5 159.913 268.8 161.713 266.1 165.213C263.4 168.813 262 173.613 262 179.713C262 185.813 263.4 190.613 266.1 194.113C268.8 197.713 272.5 199.413 277.2 199.413C281.9 199.413 285.6 197.613 288.3 194.113C291 190.613 292.4 185.813 292.4 179.713Z" fill="#2F445B"/>
<path d="M316 154.313C318.2 153.713 321.1 153.213 324.8 152.513C328.5 151.813 332.7 151.613 337.4 151.613C341.7 151.613 345.2 152.213 348.1 153.413C350.9 154.613 353.2 156.313 354.9 158.513C356.6 160.713 357.8 163.313 358.5 166.313C359.2 169.313 359.5 172.713 359.5 176.313V206.513H349.9V178.313C349.9 175.013 349.7 172.213 349.2 169.813C348.8 167.513 348 165.613 347 164.113C346 162.613 344.6 161.613 342.9 160.913C341.2 160.213 339 159.913 336.5 159.913C335.5 159.913 334.4 159.913 333.3 160.013C332.2 160.113 331.1 160.213 330.1 160.313C329.1 160.413 328.2 160.513 327.4 160.713C326.6 160.813 326 160.913 325.7 161.013V206.513H316V154.313Z" fill="#2F445B"/>
<path d="M384.5 152.813H404.9V160.913H384.5V185.813C384.5 188.513 384.7 190.713 385.1 192.513C385.5 194.313 386.1 195.613 387 196.613C387.8 197.613 388.9 198.313 390.1 198.713C391.3 199.113 392.8 199.313 394.4 199.313C397.3 199.313 399.6 199.013 401.4 198.313C403.2 197.613 404.4 197.213 405.1 196.913L407 204.913C406 205.413 404.3 206.013 401.9 206.713C399.5 207.413 396.7 207.813 393.6 207.813C389.9 207.813 386.9 207.313 384.5 206.413C382.1 205.513 380.2 204.113 378.8 202.213C377.3 200.313 376.3 198.013 375.7 195.313C375.1 192.613 374.8 189.413 374.8 185.813V137.713L384.4 136.013V152.813H384.5Z" fill="#2F445B"/>
<path d="M413.1 179.813C413.1 175.013 413.8 170.913 415.2 167.313C416.6 163.713 418.4 160.813 420.7 158.413C423 156.113 425.6 154.313 428.6 153.113C431.6 151.913 434.6 151.313 437.7 151.313C444.9 151.313 450.5 153.613 454.4 158.113C458.3 162.613 460.2 169.513 460.2 178.813C460.2 179.213 460.2 179.713 460.2 180.413C460.2 181.113 460.2 181.713 460.1 182.213H423.2C423.6 187.813 425.2 192.013 428.1 194.913C430.9 197.813 435.4 199.313 441.4 199.313C444.8 199.313 447.6 199.013 449.9 198.413C452.2 197.813 454 197.213 455.1 196.713L456.4 204.813C455.2 205.413 453.2 206.113 450.2 206.813C447.3 207.513 443.9 207.813 440.2 207.813C435.5 207.813 431.4 207.113 428 205.713C424.6 204.313 421.8 202.313 419.6 199.813C417.4 197.313 415.8 194.413 414.7 190.913C413.6 187.613 413.1 183.913 413.1 179.813ZM450 174.513C450.1 170.213 449 166.613 446.7 163.813C444.5 161.013 441.4 159.613 437.4 159.613C435.2 159.613 433.2 160.013 431.5 160.913C429.8 161.813 428.4 162.913 427.2 164.313C426 165.713 425.1 167.313 424.5 169.113C423.8 170.913 423.4 172.713 423.2 174.613H450V174.513Z" fill="#2F445B"/>
<path d="M506.2 206.613C505.4 205.113 504.5 203.413 503.4 201.513C502.3 199.613 501.1 197.713 499.8 195.813C498.5 193.813 497.1 191.913 495.8 189.913C494.4 188.013 493.1 186.113 491.8 184.413C490.5 186.113 489.1 188.013 487.8 189.913C486.4 191.913 485.1 193.813 483.8 195.813C482.5 197.813 481.3 199.713 480.2 201.513C479.1 203.413 478.2 205.013 477.4 206.513H467.5C469.9 201.813 472.8 197.013 476.1 192.213C479.4 187.313 482.8 182.713 486.1 178.313L468.3 152.713H479L491.8 171.613L504.7 152.713H515L497.6 177.713C500.9 182.213 504.3 186.913 507.8 191.913C511.3 196.913 514.2 201.813 516.7 206.613H506.2Z" fill="#2F445B"/>
<path d="M535.9 152.813H556.3V160.913H535.9V185.813C535.9 188.513 536.1 190.713 536.5 192.513C536.9 194.313 537.5 195.613 538.4 196.613C539.2 197.613 540.3 198.313 541.5 198.713C542.7 199.113 544.2 199.313 545.8 199.313C548.7 199.313 551 199.013 552.8 198.313C554.6 197.613 555.8 197.213 556.5 196.913L558.4 204.913C557.4 205.413 555.7 206.013 553.3 206.713C550.9 207.413 548.1 207.813 545 207.813C541.3 207.813 538.3 207.313 535.9 206.413C533.5 205.513 531.6 204.113 530.2 202.213C528.7 200.313 527.7 198.013 527.1 195.313C526.5 192.613 526.2 189.413 526.2 185.813V137.713L535.8 136.013V152.813H535.9Z" fill="#2F445B"/>
</svg>
