<svg width="93" height="32" viewBox="0 0 93 32" fill="none" xmlns="http://www.w3.org/2000/svg">
<path d="M76.5727 23.6936C74.8636 23.6936 73.3088 23.291 71.9083 22.4858C70.5078 21.6807 69.4041 20.5676 68.597 19.1467C67.8136 17.7258 67.422 16.1273 67.422 14.3512C67.422 12.575 67.8136 10.9765 68.597 9.5556C69.4041 8.13469 70.5078 7.02165 71.9083 6.21646C73.3088 5.41128 74.8636 5.00869 76.5727 5.00869C78.2106 5.00869 79.7061 5.39944 81.0591 6.18094C82.4121 6.96244 83.4684 8.03996 84.228 9.4135C85.0114 10.7634 85.403 12.2672 85.403 13.9249C85.403 14.3275 85.3793 14.7064 85.3318 15.0616C85.3081 15.3932 85.2725 15.63 85.225 15.7721H71.7303C71.8253 16.6009 72.0982 17.3469 72.5492 18.01C73.0003 18.6731 73.57 19.1822 74.2583 19.5375C74.9705 19.8927 75.7419 20.0703 76.5727 20.0703C77.4748 20.0703 78.2581 19.8808 78.9227 19.5019C79.6111 19.123 80.1333 18.6612 80.4894 18.1166H84.9045C84.596 19.0401 84.0737 19.9282 83.3379 20.7808C82.6258 21.6096 81.7 22.3082 80.5606 22.8766C79.4212 23.4213 78.0919 23.6936 76.5727 23.6936ZM81.1303 12.8592C81.0354 12.054 80.7861 11.3317 80.3826 10.6923C79.979 10.0292 79.4449 9.50823 78.7803 9.12932C78.1394 8.75042 77.4035 8.56096 76.5727 8.56096C75.6945 8.56096 74.9111 8.75042 74.2227 9.12932C73.5344 9.50823 72.9765 10.0292 72.5492 10.6923C72.122 11.3317 71.849 12.054 71.7303 12.8592H81.1303Z" fill="#4F00A9"/>
<path d="M61.2555 23.3384C59.8075 23.3384 58.6918 22.9713 57.9085 22.2372C57.1489 21.5031 56.7691 20.4729 56.7691 19.1467V9.41351H53.9206V5.36392H56.7691V0H61.0774V5.36392H65.1721V9.41351H61.0774V18.2587C61.0774 18.6612 61.1724 18.9573 61.3623 19.1467C61.5522 19.3362 61.8489 19.4309 62.2524 19.4309H65.1721V23.3384H61.2555Z" fill="#4F00A9"/>
<path d="M43.2268 23.6936C41.5178 23.6936 39.963 23.291 38.5625 22.4858C37.1619 21.6807 36.0582 20.5676 35.2511 19.1467C34.4678 17.7258 34.0761 16.1273 34.0761 14.3512C34.0761 12.575 34.4678 10.9765 35.2511 9.5556C36.0582 8.13469 37.1619 7.02165 38.5625 6.21646C39.963 5.41128 41.5178 5.00869 43.2268 5.00869C44.8647 5.00869 46.3602 5.39944 47.7132 6.18094C49.0662 6.96244 50.1225 8.03996 50.8821 9.4135C51.6655 10.7634 52.0571 12.2672 52.0571 13.9249C52.0571 14.3275 52.0334 14.7064 51.9859 15.0616C51.9622 15.3932 51.9266 15.63 51.8791 15.7721H38.3844C38.4794 16.6009 38.7523 17.3469 39.2034 18.01C39.6544 18.6731 40.2241 19.1822 40.9125 19.5375C41.6246 19.8927 42.396 20.0703 43.2268 20.0703C44.1289 20.0703 44.9122 19.8808 45.5768 19.5019C46.2652 19.123 46.7874 18.6612 47.1435 18.1166H51.5587C51.4013 18.5876 51.1883 19.0494 50.9198 19.5019C50.6618 19.9367 50.3526 20.363 49.992 20.7808C49.2799 21.6096 48.3541 22.3082 47.2147 22.8766C46.0753 23.4213 44.746 23.6936 43.2268 23.6936ZM47.7844 12.8592C47.6895 12.054 47.4402 11.3317 47.0367 10.6923C46.6332 10.0292 46.0991 9.50823 45.4344 9.12932C44.7935 8.75042 44.0577 8.56096 43.2268 8.56096C42.3486 8.56096 41.5652 8.75042 40.8768 9.12932C40.1885 9.50823 39.6306 10.0292 39.2034 10.6923C38.7761 11.3317 38.5031 12.054 38.3844 12.8592H47.7844Z" fill="#4F00A9"/>
<path d="M21.859 23.3384V5.36392H25.9537V6.92692H26.1318C26.4404 6.45328 26.8558 6.07437 27.378 5.79019C27.9239 5.50601 28.5886 5.36392 29.3719 5.36392H32.6833V9.4135H29.6924C28.5292 9.4135 27.651 9.72137 27.0575 10.3371C26.4641 10.9291 26.1674 11.8054 26.1674 12.9658V23.3384H21.859Z" fill="#4F00A9"/>
<path d="M9.11515 23.6936C7.40606 23.6936 5.85126 23.291 4.45075 22.4858C3.07399 21.6807 1.98207 20.5676 1.175 19.1467C0.391667 17.7258 0 16.1273 0 14.3512C0 12.575 0.391667 10.9765 1.175 9.5556C1.98207 8.13469 3.07399 7.02165 4.45075 6.21646C5.85126 5.41128 7.40606 5.00869 9.11515 5.00869C10.848 5.00869 12.4028 5.41128 13.7795 6.21646C15.18 7.02165 16.272 8.13469 17.0553 9.5556C17.8624 10.9765 18.2659 12.575 18.2659 14.3512C18.2659 16.1273 17.8624 17.7258 17.0553 19.1467C16.272 20.5676 15.18 21.6807 13.7795 22.4858C12.4028 23.291 10.848 23.6936 9.11515 23.6936ZM9.11515 19.6796C9.99343 19.6796 10.8005 19.4664 11.5364 19.0401C12.2722 18.5902 12.8538 17.9626 13.2811 17.1574C13.7321 16.3286 13.9576 15.3932 13.9576 14.3512C13.9576 13.3092 13.7321 12.3856 13.2811 11.5804C12.8538 10.7515 12.2722 10.124 11.5364 9.69769C10.8005 9.24773 9.99343 9.02276 9.11515 9.02276C8.23686 9.02276 7.42979 9.24773 6.69394 9.69769C5.95808 10.124 5.37651 10.7515 4.94924 11.5804C4.52197 12.3856 4.30833 13.3092 4.30833 14.3512C4.30833 15.3932 4.52197 16.3286 4.94924 17.1574C5.37651 17.9626 5.95808 18.5902 6.69394 19.0401C7.42979 19.4664 8.23686 19.6796 9.11515 19.6796Z" fill="#4F00A9"/>
<path d="M9.15378 28.1991C10.4593 28.1991 11.5038 27.8202 12.2871 27.0624C13.0704 26.3282 13.4621 25.3735 13.4621 24.0784L17.7704 24.114C17.7704 25.677 17.4262 27.0505 16.7379 28.2346C16.0732 29.4424 15.0881 30.366 13.7826 31.0054C12.477 31.6685 10.9341 32 9.15378 32C7.37347 32 5.83049 31.6685 4.52494 31.0054C3.21938 30.366 2.23428 29.4424 1.56963 28.2346C0.881249 27.0505 0.537057 25.677 0.537057 24.114L4.84539 24.0784C4.84539 25.3735 5.23706 26.3282 6.02039 27.0624C6.80372 27.8202 7.84822 28.1991 9.15378 28.1991Z" fill="#4F00A9"/>
<path d="M17.9692 1.50675C17.4334 1.50675 16.9029 1.61203 16.4079 1.81659C15.9129 2.02114 15.4631 2.32095 15.0843 2.69892C14.7054 3.07688 14.4049 3.52559 14.1999 4.01942C13.9949 4.51325 13.8893 5.04254 13.8893 5.57706L17.9692 5.57706V1.50675Z" fill="#4F00A9"/>
<path d="M88.6917 0H93V23.3384H88.6917V0Z" fill="#4F00A9"/>
</svg>
