<svg class="header_logo__j09Wk" width="288" height="50" viewBox="0 0 288 50" fill="none" xmlns="http://www.w3.org/2000/svg"><path d="M1.17374 40.438C0.920158 41.0455 0.788964 41.6972 0.787668 42.3556C0.787668 45.0847 3.09359 47.5748 6.90525 49.482C7.25319 49.6512 7.63267 49.7456 8.01927 49.7593C8.40589 49.7729 8.79108 49.7054 9.15007 49.5612C9.50907 49.417 9.8339 49.1992 10.1037 48.9218C10.3736 48.6444 10.5824 48.3136 10.7169 47.9507L14.9639 37.73C15.7076 35.9512 16.2948 34.1109 16.7187 32.2298C8.8497 33.5505 2.91813 36.5675 1.27554 40.2588L1.20883 40.4169L1.17374 40.438ZM16.7052 17.533C16.2814 15.652 15.6941 13.8116 14.9503 12.0328L10.7034 1.80865C10.5682 1.44582 10.3587 1.11534 10.0884 0.838345C9.81807 0.561352 9.49284 0.343933 9.13362 0.200047C8.77438 0.05616 8.38911 -0.0108795 8.00244 0.00294113C7.61577 0.0169029 7.23626 0.111584 6.88827 0.280903C3.08013 2.18447 0.77417 4.67824 0.77417 7.40712C0.775742 8.06561 0.906925 8.71717 1.16024 9.32493V9.34594L1.22695 9.50406C2.90464 13.1954 8.83621 16.2089 16.7052 17.533ZM44.4138 0.280903C48.2255 2.18447 50.5314 4.67824 50.5314 7.40712C50.5214 8.06685 50.3831 8.71814 50.1242 9.32493L50.0681 9.45486C48.4396 13.1708 42.4939 16.2018 34.6004 17.533C35.0242 15.652 35.6113 13.8116 36.3552 12.0328L40.6021 1.80865C40.7364 1.44569 40.9453 1.11478 41.2152 0.837513C41.4851 0.560246 41.8101 0.342552 42.1692 0.198662C42.5284 0.0547752 42.9136 -0.0122643 43.3003 0.00183487C43.6869 0.015934 44.0661 0.111031 44.4138 0.280903ZM34.6246 32.2298C35.0405 34.1093 35.6206 35.9487 36.3584 37.7265L40.6054 47.9507C40.7397 48.3136 40.9487 48.6444 41.2185 48.9218C41.4883 49.1992 41.8131 49.417 42.1722 49.5612C42.5312 49.7054 42.9164 49.7729 43.303 49.7593C43.6896 49.7456 44.069 49.6512 44.4169 49.482C48.2286 47.5748 50.5346 45.0847 50.5346 42.3556C50.5315 41.6974 50.4005 41.046 50.1485 40.438L50.0924 40.308C48.4708 36.5921 42.5041 33.5574 34.6246 32.2298ZM34.3566 19.7084C39.9443 18.848 44.5876 17.1727 47.7921 14.9845L46.8831 17.1656C44.8472 22.1033 44.8472 27.6467 46.8831 32.5844L47.7851 34.7584C44.5771 32.5703 39.9336 30.9126 34.3531 30.0415L34.2056 30.0204C31.3759 29.5919 28.5177 29.3794 25.6557 29.3847C22.8008 29.3804 19.9497 29.593 17.1269 30.0204L16.9795 30.0415C11.3954 30.8985 6.75195 32.5739 3.54398 34.762L4.44949 32.5844C6.48536 27.6467 6.48536 22.1033 4.44949 17.1656L3.54398 14.9845C6.7379 17.1832 11.3814 18.848 16.9654 19.7084L17.1129 19.7296C22.7805 20.5725 28.5415 20.5725 34.2092 19.7296L34.3566 19.7084Z" fill="#594CE9" style="translate: none; rotate: none; scale: none; transform-origin: 0px 0px;" data-svg-origin="0.7741699814796448 -0.000005409121513366699" transform="matrix(1,0,0,1,0,0)"></path><path d="M75.6394 40.7176V9.36344H79.8066V23.2514H95.7107V9.36344H99.8778V40.7217H95.7107V26.9687H79.8066V40.7217H75.6394V40.7176ZM120.513 16.0825H124.946L112.85 46.0503C112.314 47.4408 111.014 48.3363 109.488 48.3363H102.008V44.8439H109.222L111.418 39.3803L102.013 16.0866H106.446L113.48 34.8124L120.513 16.0866V16.0825ZM131.007 17.8737C131.007 18.8143 131.007 19.6199 130.917 20.6505H131.007C132.753 17.4238 135.89 15.4527 139.877 15.4527C146.016 15.4527 151.209 19.9757 151.209 28.2651C151.209 36.5545 146.011 41.3474 139.877 41.3474C135.89 41.3474 132.753 39.3763 131.007 36.1496H130.917C131.007 37.1802 131.007 37.9858 131.007 38.9264V48.3323H126.975V16.0825H131.007V17.8737ZM138.937 37.8509C143.685 37.8959 147.001 33.9986 147.001 28.2651C147.001 22.5316 143.685 18.9042 138.937 18.9492C134.144 18.9942 130.962 22.8015 130.962 28.2201C130.962 33.6387 134.144 37.8059 138.937 37.8509ZM176.237 26.5189V29.7455H156.975C157.466 34.8083 160.513 37.855 164.725 37.855C168.042 37.855 170.683 35.9738 171.669 33.152H176.012C174.981 37.9 170.593 41.3515 164.725 41.3515C157.556 41.3515 152.718 36.1987 152.718 28.4041C152.718 20.6096 157.646 15.4568 164.725 15.4568C171.354 15.4568 176.237 20.2047 176.237 26.523V26.5189ZM164.725 18.9492C160.423 18.9492 157.511 22.1308 157.02 26.1631H172.16C171.71 21.9509 168.888 18.9492 164.725 18.9492ZM179.235 40.7176V16.0784H183.177V20.3805H183.267C184.432 18.0045 186.673 15.4527 190.612 15.4527H192.988V18.9451H190.076C185.954 18.9451 183.267 21.6769 183.267 26.8297V40.7176H179.235ZM199.024 17.8737C199.024 18.8143 199.024 19.6199 198.934 20.6505H199.024C200.77 17.4238 203.906 15.4527 207.894 15.4527C214.032 15.4527 219.226 19.9757 219.226 28.2651C219.226 36.5545 214.028 41.3474 207.894 41.3474C203.906 41.3474 200.77 39.3763 199.024 36.1496H198.934C199.024 37.1802 199.024 37.9858 199.024 38.9264V40.7176H194.991V4.88135H199.024V17.8737ZM206.953 37.8509C211.701 37.8959 215.018 33.9986 215.018 28.2651C215.018 22.5316 211.701 18.9042 206.953 18.9492C202.16 18.9942 198.979 22.8015 198.979 28.2201C198.979 33.6387 202.16 37.8059 206.953 37.8509ZM233.784 41.3474C226.975 41.3474 221.553 36.6445 221.553 28.4C221.553 20.1556 226.971 15.4527 233.784 15.4527C240.597 15.4527 246.012 20.1106 246.012 28.4C246.012 36.6895 240.593 41.3474 233.784 41.3474ZM233.784 37.8509C238.262 37.8059 241.804 34.6243 241.804 28.4C241.804 22.1758 238.266 18.9942 233.784 18.9492C229.306 18.9042 225.765 22.1308 225.765 28.4C225.765 34.6692 229.302 37.8959 233.784 37.8509ZM248.212 40.7176V4.88135H252.244V40.7176H248.212ZM256.579 11.9153V7.7031H260.791V11.9153H256.579ZM256.669 40.7176V16.0784H260.701V40.7176H256.669ZM275.878 41.3474C268.574 41.3474 263.646 36.1946 263.646 28.3551C263.646 20.5155 268.214 15.4527 275.878 15.4527C282.867 15.4527 286.719 19.9757 287.255 25.4883H283.042C282.772 21.9959 280.266 18.9492 275.873 18.9492C270.901 18.9492 267.854 22.8465 267.854 28.3551C267.854 34.1785 271.346 37.8509 275.873 37.8509C280.401 37.8509 282.637 34.5343 283.042 31.8025H287.255C286.584 36.8203 282.642 41.3433 275.878 41.3433V41.3474Z" fill="#594CE9" style="translate: none; rotate: none; scale: none; transform-origin: 0px 0px; opacity: 1;" data-svg-origin="75.63939666748047 4.881350040435791" transform="matrix(1,0,0,1,0,0)"></path></svg>