<?xml version="1.0" standalone="no"?>
<!DOCTYPE svg PUBLIC "-//W3C//DTD SVG 20010904//EN"
 "http://www.w3.org/TR/2001/REC-SVG-20010904/DTD/svg10.dtd">
<svg version="1.0" xmlns="http://www.w3.org/2000/svg"
 width="402.000000pt" height="162.000000pt" viewBox="0 0 402.000000 162.000000"
 preserveAspectRatio="xMidYMid meet">

<g transform="translate(0.000000,162.000000) scale(0.100000,-0.100000)"
fill="#000000" stroke="none">
<path d="M2075 1238 c-48 -26 -60 -79 -25 -116 29 -31 66 -38 106 -19 56 27
59 104 4 132 -34 18 -57 19 -85 3z"/>
<path d="M1000 938 c0 -158 -4 -289 -11 -310 -18 -68 -96 -89 -149 -41 -24 22
-32 39 -37 81 l-6 52 -79 0 -80 0 7 -62 c16 -142 75 -204 212 -223 116 -16
229 32 271 115 21 43 22 53 22 352 l0 308 -75 0 -75 0 0 -272z"/>
<path d="M1815 1197 c-3 -6 -4 -179 -3 -382 l3 -370 78 -3 77 -3 0 386 0 385
-75 0 c-51 0 -77 -4 -80 -13z"/>
<path d="M1223 1005 c-3 -9 -3 -107 -1 -218 4 -180 7 -206 25 -242 40 -77 88
-105 179 -105 66 0 102 17 143 67 l31 38 0 -53 0 -52 75 0 75 0 0 290 0 290
-80 0 -80 0 0 -185 c0 -234 -12 -265 -105 -265 -92 0 -105 34 -105 270 l0 180
-75 0 c-59 0 -77 -3 -82 -15z"/>
<path d="M2040 730 l0 -290 75 0 75 0 0 290 0 290 -75 0 -75 0 0 -290z"/>
<path d="M2260 818 c0 -118 5 -220 11 -243 25 -91 87 -135 191 -135 72 0 119
22 146 70 24 42 32 37 32 -20 l0 -50 70 0 70 0 0 290 0 290 -74 0 -75 0 -3
-196 -3 -196 -33 -29 c-43 -39 -107 -41 -141 -5 -33 35 -40 83 -41 264 l0 162
-75 0 -75 0 0 -202z"/>
<path d="M2966 1006 c-81 -30 -126 -87 -126 -161 0 -92 59 -141 205 -171 92
-19 110 -27 125 -54 9 -16 6 -25 -14 -45 -20 -20 -35 -25 -77 -25 -46 0 -55 4
-85 36 -33 34 -36 35 -87 29 -30 -4 -60 -11 -67 -15 -38 -23 48 -130 122 -152
71 -21 195 -16 253 10 86 39 117 83 117 165 0 88 -45 126 -193 158 -109 23
-139 40 -139 74 0 66 121 75 172 12 15 -20 20 -20 78 -9 35 6 65 13 68 16 13
14 -39 84 -82 111 -43 26 -58 30 -140 32 -62 2 -104 -1 -130 -11z"/>
</g>
</svg>
