<svg width="400" height="72" viewBox="0 0 400 72" fill="none" xmlns="http://www.w3.org/2000/svg">
<path fill-rule="evenodd" clip-rule="evenodd" d="M16 0H0V72H47L56 56C45.0087 56.09 16 56 16 56V0ZM64 72L104 0L144 72H128L120 58H88L80 72H64ZM104 30L96 44H104H112L104 30ZM160 0V72H182.977V65.0172V65.0078C182.977 61.9922 184.107 59.2281 185.985 57.0784C182.354 55.0296 179.584 48.6913 180.052 43.0735C180.526 37.3761 182.614 34.6675 182.614 34.6675C182.614 34.6675 182.696 34.5666 182.844 34.4339C182.99 34.2995 183.378 34 183.744 34C184.348 34 184.837 34.9302 184.881 35.0494L191.535 53.3475L191.52 53.3581C192.917 52.8707 194.426 52.6047 196 52.6047C197.574 52.6047 199.083 52.8707 200.48 53.3581L200.465 53.3475L207.119 35.0494C207.163 34.9302 207.652 34 208.256 34C208.622 34 209.01 34.2995 209.156 34.4339C209.304 34.5666 209.386 34.6675 209.386 34.6675C209.386 34.6675 211.474 37.3761 211.948 43.0735C212.416 48.6913 209.646 55.0296 206.015 57.0784C207.893 59.2281 209.023 61.9922 209.023 65.0078V72H232V0L196 32L160 0ZM272 0H256V72H272V0ZM312 36V72H296V0L344 36V0H360V72L312 36ZM400 0H384V72H400V0Z" fill="#FF6C71"/>
</svg>
