<svg width="145" height="31" viewBox="0 0 145 31" fill="none" xmlns="http://www.w3.org/2000/svg">
<path d="M4.20887 2.81622H0.624023V24.5623H15.9999V21.0983H4.20887V2.81622Z" fill="white"/>
<path d="M34.0215 24.5623H37.6063V24.5236H37.6531L37.6595 24.364C37.6611 24.3173 37.674 23.8821 37.6079 23.2115V15.1182C37.6079 12.0733 39.8275 10.6871 41.8907 10.6871C44.1103 10.6871 45.1903 11.8831 45.1903 14.3445V24.5623H48.7751V13.8674C48.7751 9.80541 46.1945 7.28119 42.0406 7.28119C40.2756 7.28119 38.7008 7.78249 37.4645 8.73512L37.4306 7.57939H34.0263V24.5623H34.0215Z" fill="white"/>
<path d="M63.3652 8.82699C62.1192 7.81473 60.517 7.28119 58.7101 7.28119C53.876 7.28119 50.873 10.6146 50.873 15.9806C50.873 21.3466 53.876 24.7106 58.7101 24.7106C60.4154 24.7106 61.9371 24.2464 63.1363 23.363C63.0332 25.9953 61.3842 27.5588 58.6811 27.5588C56.4083 27.5588 55.122 26.8351 54.8576 25.4085L54.8254 25.2312L51.3421 26.2935L51.3727 26.4369C51.9611 29.2722 54.6143 30.9647 58.4731 30.9647C61.0908 30.9647 63.1444 30.2523 64.5774 28.8451C66.0232 27.4266 66.755 25.3827 66.755 22.7715V7.57939H63.4394L63.3668 8.82699H63.3652ZM63.1412 16.1305C63.1412 19.3704 61.5631 21.3063 58.918 21.3063C56.0827 21.3063 54.4579 19.3655 54.4579 15.9822C54.4579 12.5988 56.0843 10.6871 58.918 10.6871C61.4986 10.6871 63.1154 12.6133 63.1412 15.713V16.1305Z" fill="white"/>
<path d="M84.4181 17.6665C83.675 20.0698 81.7665 21.3948 79.0472 21.3948C75.1577 21.3948 72.7399 18.4418 72.7399 13.6884C72.7399 8.93489 75.1787 5.9819 79.1069 5.9819C81.8245 5.9819 83.3913 7.04736 84.1876 9.43457L84.5599 10.5516L87.9449 8.96229L87.6273 8.06769C86.3378 4.4361 83.3607 2.51794 79.0182 2.51794C76.0669 2.51794 73.562 3.5834 71.7728 5.59827C70.0029 7.59379 69.0664 10.3904 69.0664 13.69C69.0664 20.476 72.9833 24.862 79.0472 24.862C83.3204 24.862 86.6296 22.6263 87.8998 18.8803L88.2238 17.9228L84.7469 16.601L84.4165 17.6681L84.4181 17.6665Z" fill="white"/>
<path d="M97.806 7.28124C96.0942 7.28124 94.5709 7.7503 93.3749 8.64167V0.732117H89.79V24.5639H93.3749V15.1199C93.3749 12.0557 95.5945 10.6598 97.6577 10.6598C99.8773 10.6598 100.957 11.8558 100.957 14.3171V24.5656H104.542V13.84C104.542 9.85704 101.899 7.28446 97.8076 7.28446L97.806 7.28124Z" fill="white"/>
<path d="M125.496 0.219543C124.164 0.219543 123.197 1.18668 123.197 2.5181C123.197 3.84952 124.164 4.81666 125.496 4.81666C126.827 4.81666 127.794 3.84952 127.794 2.5181C127.794 1.18668 126.827 0.219543 125.496 0.219543Z" fill="white"/>
<path d="M138.262 7.28119C136.497 7.28119 134.923 7.78249 133.686 8.73512L133.652 7.57939H130.248V24.5623H133.833V15.1182C133.833 12.0733 136.052 10.6871 138.116 10.6871C140.335 10.6871 141.415 11.8831 141.415 14.3445V24.5623H145V13.8674C145 9.80541 142.419 7.28119 138.266 7.28119H138.262Z" fill="white"/>
<path d="M127.237 7.57945H123.67V15.9984C122.68 15.1666 121.514 14.538 120.198 14.127V13.271C120.198 9.52017 117.736 7.28125 113.611 7.28125C110.26 7.28125 107.754 8.85446 106.733 11.5963L106.458 12.3361L109.332 14.4542L109.825 13.1695C110.475 11.4754 111.679 10.6856 113.611 10.6856C115.544 10.6856 116.613 11.6156 116.613 13.4483V13.5435C116.498 13.5386 116.382 13.5354 116.266 13.5338C112.428 13.4725 109.628 14.3704 107.944 16.1982C106.221 18.068 106.372 20.1683 106.395 20.4004L106.411 20.5616H106.427C106.695 23.1777 108.98 24.8573 112.301 24.8573C114.13 24.8573 115.82 24.348 117.098 23.4179L117.112 24.5607H120.198V19.2479L120.131 19.1996C119.695 18.8804 118.934 18.4678 117.789 18.3227C117.43 18.2776 117.087 18.255 116.771 18.2615H116.611V18.7499C116.611 19.8734 115.32 21.4546 112.448 21.4546C110.328 21.4546 110.012 20.5632 110.012 20.0313V19.9765C110.028 19.738 110.128 19.1544 110.655 18.6112C111.324 17.9197 112.83 17.1106 116.207 17.1622C118.652 17.2008 120.528 17.8843 121.784 19.1947C123.325 20.8034 123.615 23.0053 123.668 23.8676V24.5623H127.235V7.57945H127.237Z" fill="white"/>
<path d="M24.7523 7.20709C21.4012 7.20709 18.8947 8.7803 17.8743 11.5221L17.5987 12.262L20.4727 14.38L20.9659 13.0953C21.6155 11.4012 22.8196 10.6114 24.7523 10.6114C26.6849 10.6114 27.7536 11.5415 27.7536 13.3742V13.8046L24.0624 14.4558C19.7345 15.2214 17.5391 17.0719 17.5391 19.9539C17.5391 22.836 19.8554 24.7832 23.4402 24.7832C25.2697 24.7832 26.959 24.2738 28.2372 23.3437L28.2517 24.4866H31.3369V13.1969C31.3369 9.44601 28.8755 7.20709 24.7507 7.20709H24.7523ZM27.7536 17.1638V18.6773C27.7536 19.8008 26.4625 21.3821 23.5901 21.3821C21.4705 21.3821 21.1545 20.4907 21.1545 19.9588C21.1545 19.4865 21.1545 18.3807 24.9102 17.6844L27.7536 17.1654V17.1638Z" fill="white"/>
</svg>
