<?xml version="1.0" encoding="UTF-8" standalone="no"?>
<svg
   width="256"
   height="256"
   viewBox="0 0 256 256"
   fill="none"
   version="1.1"
   id="svg910"
   sodipodi:docname="lovable-logo-256x256.svg"
   inkscape:version="1.1.1 (c3084ef, 2021-09-22)"
   xmlns:inkscape="http://www.inkscape.org/namespaces/inkscape"
   xmlns:sodipodi="http://sodipodi.sourceforge.net/DTD/sodipodi-0.dtd"
   xmlns="http://www.w3.org/2000/svg"
   xmlns:svg="http://www.w3.org/2000/svg">
  <sodipodi:namedview
     id="namedview912"
     pagecolor="#505050"
     bordercolor="#ffffff"
     borderopacity="1"
     inkscape:pageshadow="0"
     inkscape:pageopacity="0"
     inkscape:pagecheckerboard="1"
     showgrid="false"
     inkscape:zoom="2.5565104"
     inkscape:cx="124.19273"
     inkscape:cy="126.3441"
     inkscape:window-width="1710"
     inkscape:window-height="1040"
     inkscape:window-x="0"
     inkscape:window-y="39"
     inkscape:window-maximized="0"
     inkscape:current-layer="svg910" />
  <mask
     id="mask0_1_498"
     maskUnits="userSpaceOnUse"
     x="0"
     y="0"
     width="256"
     height="228">
    <path
       d="m 128,227.734 c -2.56,0 -5.138,-0.463 -7.734,-1.388 -2.595,-0.924 -4.852,-2.346 -6.772,-4.266 L 94.8256,204.906 C 69.6523,181.652 47.5552,159.199 28.5344,137.546 9.51147,115.892 0,92.8704 0,68.48 0,48.9963 6.54187,32.7115 19.6256,19.6256 32.7115,6.54187 48.9248,0 68.2656,0 79.2885,0 90.0267,2.54187 100.48,7.62561 110.933,12.7115 120.107,20.6229 128,31.36 136.604,20.6229 145.919,12.7115 155.946,7.62561 165.972,2.54187 176.569,0 187.734,0 207.075,0 223.289,6.54187 236.374,19.6256 249.458,32.7115 256,48.9963 256,68.48 c 0,24.3904 -9.493,47.43 -28.48,69.12 -18.987,21.69 -41.138,44.161 -66.454,67.414 l -18.56,17.066 c -1.92,1.92 -4.177,3.342 -6.772,4.266 -2.596,0.925 -5.174,1.388 -7.734,1.388 z"
       fill="#ffffff"
       id="path824" />
  </mask>
  <g
     mask="url(#mask0_1_498)"
     id="g857"
     transform="translate(0,14.133)">
    <g
       id="g1089">
      <path
         d="m 128,227.734 c -2.56,0 -5.138,-0.463 -7.734,-1.388 -2.595,-0.924 -4.852,-2.346 -6.772,-4.266 L 94.8256,204.906 C 69.6523,181.652 47.5552,159.199 28.5344,137.546 9.51147,115.892 0,92.8704 0,68.48 0,48.9963 6.54187,32.7115 19.6256,19.6256 32.7115,6.54187 48.9248,0 68.2656,0 79.2885,0 90.0267,2.54187 100.48,7.62561 110.933,12.7115 120.107,20.6229 128,31.36 136.604,20.6229 145.919,12.7115 155.946,7.62561 165.972,2.54187 176.569,0 187.734,0 207.075,0 223.289,6.54187 236.374,19.6256 249.458,32.7115 256,48.9963 256,68.48 c 0,24.3904 -9.493,47.43 -28.48,69.12 -18.987,21.69 -41.138,44.161 -66.454,67.414 l -18.56,17.066 c -1.92,1.92 -4.177,3.342 -6.772,4.266 -2.596,0.925 -5.174,1.388 -7.734,1.388 z"
         fill="#ff1814"
         id="path827" />
      <g
         filter="url(#filter0_f_1_498)"
         id="g831">
        <ellipse
           cx="163.767"
           cy="278.08301"
           rx="96.787102"
           ry="98.052299"
           transform="rotate(-105,163.767,278.083)"
           fill="#ffab25"
           id="ellipse829" />
      </g>
      <g
         filter="url(#filter1_f_1_498)"
         id="g835">
        <ellipse
           cx="224.87199"
           cy="261.70901"
           rx="96.787102"
           ry="98.052299"
           transform="rotate(-105,224.872,261.709)"
           fill="#ffab25"
           id="ellipse833" />
      </g>
      <g
         filter="url(#filter2_f_1_498)"
         id="g839">
        <ellipse
           cx="69.918198"
           cy="172.24699"
           rx="96.787102"
           ry="98.052299"
           transform="rotate(-105,69.9182,172.247)"
           fill="#ffab25"
           id="ellipse837" />
      </g>
      <g
         filter="url(#filter3_f_1_498)"
         id="g843">
        <ellipse
           cx="131.022"
           cy="155.873"
           rx="96.787102"
           ry="98.052299"
           transform="rotate(-105,131.022,155.873)"
           fill="#ffab25"
           id="ellipse841" />
      </g>
      <g
         filter="url(#filter4_f_1_498)"
         id="g847">
        <circle
           cx="-89.587303"
           cy="48.319099"
           r="108.428"
           transform="rotate(2.38352,-89.5873,48.3191)"
           fill="#be2b29"
           id="circle845" />
      </g>
      <g
         filter="url(#filter5_f_1_498)"
         id="g851">
        <ellipse
           cx="81.517502"
           cy="70.523697"
           rx="81.517502"
           ry="70.523697"
           transform="matrix(-0.67039,-0.742009,0.730841,-0.682548,206.356,122.303)"
           fill="#00c986"
           id="ellipse849" />
      </g>
      <g
         style="mix-blend-mode:hard-light"
         filter="url(#filter6_f_1_498)"
         id="g855">
        <ellipse
           cx="91.893898"
           cy="79.4459"
           rx="91.893898"
           ry="79.4459"
           transform="matrix(-0.67039,-0.742009,0.730841,-0.682548,255.859,191.054)"
           fill="#297fff"
           id="ellipse853" />
      </g>
    </g>
  </g>
  <defs
     id="defs908">
    <filter
       id="filter0_f_1_498"
       x="-25.3186"
       y="90.0923"
       width="378.172"
       height="375.98099"
       filterUnits="userSpaceOnUse"
       color-interpolation-filters="sRGB">
      <feFlood
         flood-opacity="0"
         result="BackgroundImageFix"
         id="feFlood859" />
      <feBlend
         mode="normal"
         in="SourceGraphic"
         in2="BackgroundImageFix"
         result="shape"
         id="feBlend861" />
      <feGaussianBlur
         stdDeviation="45.5469"
         result="effect1_foregroundBlur_1_498"
         id="feGaussianBlur863" />
    </filter>
    <filter
       id="filter1_f_1_498"
       x="35.786098"
       y="73.719002"
       width="378.172"
       height="375.98099"
       filterUnits="userSpaceOnUse"
       color-interpolation-filters="sRGB">
      <feFlood
         flood-opacity="0"
         result="BackgroundImageFix"
         id="feFlood866" />
      <feBlend
         mode="normal"
         in="SourceGraphic"
         in2="BackgroundImageFix"
         result="shape"
         id="feBlend868" />
      <feGaussianBlur
         stdDeviation="45.5469"
         result="effect1_foregroundBlur_1_498"
         id="feGaussianBlur870" />
    </filter>
    <filter
       id="filter2_f_1_498"
       x="-119.168"
       y="-15.7439"
       width="378.172"
       height="375.98099"
       filterUnits="userSpaceOnUse"
       color-interpolation-filters="sRGB">
      <feFlood
         flood-opacity="0"
         result="BackgroundImageFix"
         id="feFlood873" />
      <feBlend
         mode="normal"
         in="SourceGraphic"
         in2="BackgroundImageFix"
         result="shape"
         id="feBlend875" />
      <feGaussianBlur
         stdDeviation="45.5469"
         result="effect1_foregroundBlur_1_498"
         id="feGaussianBlur877" />
    </filter>
    <filter
       id="filter3_f_1_498"
       x="-58.063999"
       y="-32.117199"
       width="378.172"
       height="375.98099"
       filterUnits="userSpaceOnUse"
       color-interpolation-filters="sRGB">
      <feFlood
         flood-opacity="0"
         result="BackgroundImageFix"
         id="feFlood880" />
      <feBlend
         mode="normal"
         in="SourceGraphic"
         in2="BackgroundImageFix"
         result="shape"
         id="feBlend882" />
      <feGaussianBlur
         stdDeviation="45.5469"
         result="effect1_foregroundBlur_1_498"
         id="feGaussianBlur884" />
    </filter>
    <filter
       id="filter4_f_1_498"
       x="-359.96201"
       y="-222.05499"
       width="540.74902"
       height="540.74902"
       filterUnits="userSpaceOnUse"
       color-interpolation-filters="sRGB">
      <feFlood
         flood-opacity="0"
         result="BackgroundImageFix"
         id="feFlood887" />
      <feBlend
         mode="normal"
         in="SourceGraphic"
         in2="BackgroundImageFix"
         result="shape"
         id="feBlend889" />
      <feGaussianBlur
         stdDeviation="80.9722"
         result="effect1_foregroundBlur_1_498"
         id="feGaussianBlur891" />
    </filter>
    <filter
       id="filter5_f_1_498"
       x="37.035198"
       y="-154.718"
       width="332.42801"
       height="336.79901"
       filterUnits="userSpaceOnUse"
       color-interpolation-filters="sRGB">
      <feFlood
         flood-opacity="0"
         result="BackgroundImageFix"
         id="feFlood894" />
      <feBlend
         mode="normal"
         in="SourceGraphic"
         in2="BackgroundImageFix"
         result="shape"
         id="feBlend896" />
      <feGaussianBlur
         stdDeviation="45.5469"
         result="effect1_foregroundBlur_1_498"
         id="feGaussianBlur898" />
    </filter>
    <filter
       id="filter6_f_1_498"
       x="76.567902"
       y="-109.574"
       width="351.49701"
       height="356.43301"
       filterUnits="userSpaceOnUse"
       color-interpolation-filters="sRGB">
      <feFlood
         flood-opacity="0"
         result="BackgroundImageFix"
         id="feFlood901" />
      <feBlend
         mode="normal"
         in="SourceGraphic"
         in2="BackgroundImageFix"
         result="shape"
         id="feBlend903" />
      <feGaussianBlur
         stdDeviation="45.5469"
         result="effect1_foregroundBlur_1_498"
         id="feGaussianBlur905" />
    </filter>
  </defs>
</svg>
