<svg width="200" height="61" viewBox="0 0 382 116" fill="none" xmlns="http://www.w3.org/2000/svg">
    <ellipse cx="48.6708" cy="64.5066" rx="32.3251" ry="33.2079" fill="#FF563F"/>
    <path fill-rule="evenodd" clip-rule="evenodd" d="M16.1527 69.0621C26.2854 79.1948 42.7136 79.1948 52.8463 69.0621C62.979 58.9295 62.979 42.5012 52.8463 32.3685C42.7136 22.2359 26.2854 22.2359 16.1527 32.3685C6.02005 42.5012 6.02005 58.9295 16.1527 69.0621ZM58.1872 74.403C45.1049 87.4854 23.8941 87.4854 10.8118 74.403C-2.27059 61.3207 -2.27059 40.11 10.8118 27.0276C23.8941 13.9452 45.1049 13.9452 58.1872 27.0276C71.2696 40.11 71.2696 61.3207 58.1872 74.403Z" fill="white"/>
    <path d="M107 84.0582V46.1958H114.757V50.6502H115.986C116.702 49.319 117.854 48.1414 119.442 47.1174C121.029 46.0934 123.179 45.5814 125.893 45.5814C128.709 45.5814 130.962 46.1702 132.651 47.3478C134.392 48.4742 135.698 49.9334 136.568 51.7254H137.797C138.667 49.9846 139.922 48.5254 141.56 47.3478C143.25 46.1702 145.63 45.5814 148.702 45.5814C151.16 45.5814 153.336 46.0934 155.23 47.1174C157.125 48.0902 158.635 49.575 159.762 51.5718C160.888 53.5174 161.451 55.9494 161.451 58.8678V84.0582H153.541V59.4822C153.541 57.1782 152.901 55.4118 151.621 54.183C150.392 52.903 148.626 52.263 146.322 52.263C143.864 52.263 141.893 53.0566 140.408 54.6438C138.923 56.231 138.181 58.5094 138.181 61.479V84.0582H130.27V59.4822C130.27 57.1782 129.63 55.4118 128.35 54.183C127.122 52.903 125.355 52.263 123.051 52.263C120.594 52.263 118.622 53.0566 117.138 54.6438C115.653 56.231 114.91 58.5094 114.91 61.479V84.0582H107Z" fill="white"/>
    <path d="M184.6 85.1334C181.887 85.1334 179.455 84.6726 177.304 83.751C175.205 82.8294 173.516 81.4726 172.236 79.6806C171.007 77.8886 170.392 75.7126 170.392 73.1526C170.392 70.5414 171.007 68.391 172.236 66.7014C173.516 64.9606 175.231 63.655 177.381 62.7846C179.583 61.9142 182.066 61.479 184.831 61.479H196.351V59.0214C196.351 56.8198 195.685 55.0534 194.354 53.7222C193.023 52.391 190.975 51.7254 188.21 51.7254C185.496 51.7254 183.423 52.3654 181.989 53.6454C180.556 54.9254 179.608 56.5894 179.148 58.6374L171.775 56.2566C172.389 54.2086 173.362 52.3654 174.693 50.727C176.076 49.0374 177.893 47.6806 180.146 46.6566C182.399 45.6326 185.112 45.1206 188.287 45.1206C193.202 45.1206 197.068 46.375 199.884 48.8838C202.7 51.3926 204.108 54.951 204.108 59.559V75.1494C204.108 76.6854 204.824 77.4534 206.258 77.4534H209.484V84.0582H203.57C201.778 84.0582 200.319 83.5974 199.192 82.6758C198.066 81.7542 197.503 80.4998 197.503 78.9126V78.6822H196.351C195.941 79.4502 195.327 80.3462 194.508 81.3702C193.688 82.3942 192.485 83.2902 190.898 84.0582C189.311 84.775 187.212 85.1334 184.6 85.1334ZM185.752 78.6054C188.927 78.6054 191.487 77.7094 193.432 75.9174C195.378 74.0742 196.351 71.5654 196.351 68.391V67.623H185.292C183.192 67.623 181.503 68.0838 180.223 69.0054C178.943 69.8758 178.303 71.1814 178.303 72.9222C178.303 74.663 178.968 76.0454 180.3 77.0694C181.631 78.0934 183.448 78.6054 185.752 78.6054Z" fill="white"/>
    <path d="M217.175 84.0582V46.1958H224.932V50.6502H226.161C226.775 49.063 227.748 47.911 229.079 47.1942C230.461 46.4262 232.151 46.0422 234.148 46.0422H238.679V53.1846H233.841C231.281 53.1846 229.181 53.9014 227.543 55.335C225.905 56.7174 225.085 58.8678 225.085 61.7862V84.0582H217.175Z" fill="white"/>
    <path d="M261.083 84.0582C258.779 84.0582 256.936 83.367 255.553 81.9846C254.222 80.6022 253.557 78.759 253.557 76.455V52.8774H243.112V46.1958H253.557V33.6774H261.467V46.1958H272.757V52.8774H261.467V75.0726C261.467 76.6086 262.184 77.3766 263.617 77.3766H271.528V84.0582H261.083Z" fill="white"/>
    <path d="M282.05 84.0582V46.1958H289.96V84.0582H282.05ZM286.044 41.0502C284.508 41.0502 283.202 40.5638 282.127 39.591C281.103 38.567 280.591 37.2614 280.591 35.6742C280.591 34.087 281.103 32.807 282.127 31.8342C283.202 30.8102 284.508 30.2982 286.044 30.2982C287.631 30.2982 288.936 30.8102 289.96 31.8342C290.984 32.807 291.496 34.087 291.496 35.6742C291.496 37.2614 290.984 38.567 289.96 39.591C288.936 40.5638 287.631 41.0502 286.044 41.0502Z" fill="white"/>
    <path d="M313.45 85.1334C310.737 85.1334 308.305 84.6726 306.154 83.751C304.055 82.8294 302.366 81.4726 301.086 79.6806C299.857 77.8886 299.242 75.7126 299.242 73.1526C299.242 70.5414 299.857 68.391 301.086 66.7014C302.366 64.9606 304.081 63.655 306.231 62.7846C308.433 61.9142 310.916 61.479 313.681 61.479H325.201V59.0214C325.201 56.8198 324.535 55.0534 323.204 53.7222C321.873 52.391 319.825 51.7254 317.06 51.7254C314.346 51.7254 312.273 52.3654 310.839 53.6454C309.406 54.9254 308.458 56.5894 307.998 58.6374L300.625 56.2566C301.239 54.2086 302.212 52.3654 303.543 50.727C304.926 49.0374 306.743 47.6806 308.996 46.6566C311.249 45.6326 313.962 45.1206 317.137 45.1206C322.052 45.1206 325.918 46.375 328.734 48.8838C331.55 51.3926 332.958 54.951 332.958 59.559V75.1494C332.958 76.6854 333.674 77.4534 335.108 77.4534H338.334V84.0582H332.42C330.628 84.0582 329.169 83.5974 328.042 82.6758C326.916 81.7542 326.353 80.4998 326.353 78.9126V78.6822H325.201C324.791 79.4502 324.177 80.3462 323.358 81.3702C322.538 82.3942 321.335 83.2902 319.748 84.0582C318.161 84.775 316.062 85.1334 313.45 85.1334ZM314.602 78.6054C317.777 78.6054 320.337 77.7094 322.282 75.9174C324.228 74.0742 325.201 71.5654 325.201 68.391V67.623H314.142C312.042 67.623 310.353 68.0838 309.073 69.0054C307.793 69.8758 307.153 71.1814 307.153 72.9222C307.153 74.663 307.818 76.0454 309.15 77.0694C310.481 78.0934 312.298 78.6054 314.602 78.6054Z" fill="white"/>
    <path d="M346.025 84.0582V46.1958H353.782V51.879H355.011C355.727 50.343 357.007 48.9094 358.851 47.5782C360.694 46.247 363.433 45.5814 367.068 45.5814C369.935 45.5814 372.47 46.2214 374.671 47.5014C376.924 48.7814 378.691 50.599 379.971 52.9542C381.251 55.2582 381.891 58.0486 381.891 61.3254V84.0582H373.98V61.9398C373.98 58.663 373.161 56.2566 371.523 54.7206C369.884 53.1334 367.631 52.3398 364.764 52.3398C361.487 52.3398 358.851 53.415 356.854 55.5654C354.908 57.7158 353.935 60.839 353.935 64.935V84.0582H346.025Z" fill="white"/>
</svg>

