<?xml version="1.0" encoding="UTF-8"?><svg id="Layer_2" xmlns="http://www.w3.org/2000/svg" viewBox="0 0 1368.99 272.12"><defs><style>.cls-1,.cls-2{fill:#000;stroke-width:0px;}.cls-2{fill-rule:evenodd;}</style></defs><g id="Layer_1-2"><path class="cls-2" d="M103.25,0h106.57l52.07,92.15-102.04,179.97H53.26L0,178.81,103.25,0ZM107.61,23.26L17.76,178.86l39.93,69.95,88.83-156.67L107.61,23.26ZM159.85,99.87l-88.9,156.79h79.95l88.9-156.79h-79.95ZM239.82,84.41h-79.97L120.89,15.46h79.97l38.96,68.95Z"/><path class="cls-2" d="M509.45,179.45l-53.91,92.66-106.71-.78-105.36-178.66L297.39,0l108.32.32,103.74,179.13ZM486.95,171.62L396.68,15.75l-81.21-.24,91.72,155.53,79.76.58ZM393.71,178.76L301.92,23.11l-40.44,69.52,91.79,155.65,40.44-69.52ZM366.73,256.01l40.45-69.53,79.85.58-40.45,69.53-79.85-.58Z"/><rect class="cls-1" x="1348.7" y="40.91" width="20.29" height="190.18"/><path class="cls-1" d="M1290.48,114.32c-1.29-1.62-2.63-3.19-4.06-4.69-6.26-6.76-13.61-12-22.06-15.72-8.28-3.89-17.16-5.83-26.63-5.83s-18.33,1.94-26.63,5.83c-8.11,3.72-15.3,8.96-21.55,15.72-6.25,6.59-11.16,14.29-14.71,23.08-3.55,8.79-5.33,18.17-5.33,28.15s1.77,19.36,5.33,28.15c3.55,8.79,8.45,16.57,14.71,23.33,6.26,6.59,13.44,11.83,21.55,15.72,8.29,3.72,17.16,5.58,26.63,5.58s18.35-1.86,26.63-5.58c8.46-3.89,15.8-9.13,22.06-15.72,1.43-1.54,2.77-3.14,4.06-4.79v23.56h20.29V90.61h-20.29v23.71ZM1283.63,188.5c-4.39,7.94-10.4,14.12-17.99,18.51-7.61,4.4-15.98,6.59-25.11,6.59s-17.24-2.2-24.85-6.59c-7.43-4.4-13.43-10.57-17.99-18.51-4.4-7.95-6.6-17.16-6.6-27.64s2.2-19.86,6.6-27.64c4.56-7.94,10.56-14.12,17.99-18.51,7.61-4.4,15.89-6.59,24.85-6.59s17.5,2.2,25.11,6.59c7.6,4.4,13.61,10.57,17.99,18.51,4.57,7.78,6.85,16.99,6.85,27.64s-2.28,19.69-6.85,27.64Z"/><path class="cls-1" d="M1117.59,114.32c-1.29-1.62-2.63-3.18-4.06-4.69-6.25-6.76-13.61-12-22.06-15.72-8.28-3.89-17.16-5.83-26.63-5.83s-18.34,1.94-26.63,5.83c-8.11,3.72-15.3,8.96-21.55,15.72-6.25,6.59-11.16,14.28-14.71,23.07-3.55,8.79-5.33,18.17-5.33,28.15s1.77,19.36,5.33,28.15c3.55,8.79,8.45,16.57,14.71,23.33,6.26,6.59,13.44,11.83,21.55,15.72,8.28,3.72,17.16,5.58,26.63,5.58s18.34-1.86,26.63-5.58c8.45-3.89,15.81-9.13,22.06-15.72,1.43-1.54,2.77-3.14,4.06-4.79v23.55h20.29V40.91h-20.29v73.41ZM1110.74,188.5c-4.4,7.95-10.4,14.12-18,18.51-7.61,4.4-15.98,6.59-25.1,6.59s-17.24-2.2-24.85-6.59c-7.44-4.4-13.44-10.57-18-18.51-4.4-7.94-6.59-17.16-6.59-27.64s2.2-19.86,6.59-27.64c4.56-7.94,10.57-14.12,18-18.51,7.61-4.4,15.89-6.59,24.85-6.59s17.5,2.2,25.1,6.59c7.61,4.4,13.61,10.57,18,18.51,4.56,7.78,6.85,16.99,6.85,27.64s-2.28,19.69-6.85,27.64Z"/><path class="cls-1" d="M950.94,109.63c-6.42-6.76-13.95-12-22.57-15.72-8.62-3.89-17.92-5.83-27.89-5.83s-19.1,1.94-27.89,5.83c-8.62,3.72-16.23,8.96-22.82,15.72-6.42,6.59-11.5,14.29-15.21,23.08-3.72,8.79-5.58,18.17-5.58,28.15s1.86,19.36,5.58,28.15c3.72,8.79,8.79,16.57,15.21,23.33,6.59,6.59,14.2,11.83,22.82,15.72,8.79,3.72,18.09,5.58,27.89,5.58s19.27-1.86,27.89-5.58c8.62-3.89,16.14-9.13,22.57-15.72,6.59-6.76,11.75-14.54,15.47-23.33,3.72-8.79,5.58-18.17,5.58-28.15s-1.86-19.36-5.58-28.15c-3.72-8.79-8.88-16.48-15.47-23.08ZM943.58,188.75c-4.4,7.78-10.4,13.86-18,18.26-7.61,4.4-15.98,6.59-25.1,6.59s-17.5-2.2-25.1-6.59c-7.61-4.4-13.69-10.48-18.26-18.26-4.56-7.94-6.85-17.24-6.85-27.89s2.28-19.95,6.85-27.89c4.56-7.94,10.65-14.03,18.26-18.26,7.61-4.4,15.98-6.59,25.1-6.59s17.5,2.2,25.1,6.59c7.61,4.23,13.61,10.31,18,18.26,4.57,7.94,6.85,17.24,6.85,27.89s-2.28,19.95-6.85,27.89Z"/><polygon class="cls-1" points="709.06 198.38 706.52 198.38 660.13 40.91 618.29 40.91 618.29 231.1 638.58 231.1 638.58 60.69 645.75 60.69 696.65 231.1 718.96 231.1 769.87 60.69 777.03 60.69 777.03 231.1 797.32 231.1 797.32 40.91 755.48 40.91 709.06 198.38"/></g></svg>