<?xml version="1.0" encoding="UTF-8"?>
<svg width="483px" height="125px" viewBox="0 0 483 125" version="1.1" xmlns="http://www.w3.org/2000/svg" xmlns:xlink="http://www.w3.org/1999/xlink">
    <title>morph-logo-black</title>
    <g id="Page-1" stroke="none" stroke-width="1" fill="none" fill-rule="evenodd">
        <g id="Text" transform="translate(185.000000, 11.706104)" fill="#000000">
            <path d="M253,2.33652528 L246.5,4.59352528 L246.238,42.7585253 L245.976,80.9235253 L253.988,80.9235253 L262,80.9235253 L262,63.8465253 L262,46.7695253 L264.923,43.8465253 C270.328,38.4415253 279.332,40.4055253 282.061,47.5845253 C282.578,48.9425253 283,56.9995253 283,65.4885253 L283,80.9235253 L290.5,80.9235253 L298,80.9235253 L298,64.1015253 C298,45.0065253 297.054,40.6835253 291.443,34.1285253 C285.323,26.9775253 274.02,23.6195253 264.75,26.1975253 L262,26.9615253 L262,13.4425253 C262,3.25252528 261.692,-0.0574747166 260.75,0.000752691402 C260.063,0.0445252834 256.575,1.09552528 253,2.33652528 M-2.84217094e-14,41.4235253 L-2.84217094e-14,80.9235253 L7.981,80.9235253 L15.962,80.9235253 L16.231,58.6735253 L16.5,36.4235253 L25.315,51.6735253 L34.13,66.9235253 L39.315,66.8995253 L44.5,66.8745253 L53,51.9605253 L61.5,37.0465253 L61.769,58.9855253 L62.038,80.9235253 L70.019,80.9235253 L78,80.9235253 L78,41.3795253 L78,1.83552528 L70.8,2.12952528 L63.601,2.42352528 L52.247,22.4235253 C46.003,33.4235253 40.531,43.0415253 40.088,43.7975253 C39.535,44.7395253 35.401,38.3755253 26.932,23.5475253 L14.582,1.92352528 L7.291,1.92352528 L-2.84217094e-14,1.92352528 L-2.84217094e-14,41.4235253 M182.25,24.0335253 C182.663,23.9725253 183,27.4645253 183,31.7925253 L183,31.7925253 L183,39.6615252 L179.49,40.2315252 C174.935,40.9705252 170.717,44.0295252 167.827,48.6915252 C165.737,52.0605252 165.477,53.8565252 165.147,67.1735252 L165.147,67.1735252 L164.782,81.9235252 L149.794,81.9235252 L149.794,25.0015253 L164.527,25.0015253 L164.527,30.5938956 C164.596,29.5785253 170.289,26.3455253 177.132,25.0015253 C179.534,24.5285253 181.837,24.0935253 182.25,24.0335253 Z M107.5,24.7995253 C115.899,22.6165253 129.104,26.8605253 135.076,33.6625253 C152.321,53.3045253 137.828,83.4575253 112,81.6725253 C101.45,80.9435253 93.488,75.9105253 88.56,66.8555253 C79.496,50.2025253 88.74,29.6765253 107.5,24.7995253 Z M206.734,24.9645253 C196.917,27.4005253 189.272,33.9075253 186.024,42.5905253 C184.196,47.4735253 184,50.3535253 184,72.2645253 L184,96.5295253 L190.821,98.7265253 C194.572,99.9345253 197.947,100.923525 198.321,100.923525 C198.694,100.923525 199,95.9735253 199,89.9235253 C199,83.8735253 199.17,78.9235253 199.378,78.9235253 C199.586,78.9235253 201.371,79.5985253 203.346,80.4235253 C208.394,82.5325253 216.924,82.2975253 223.41,79.8715253 C230.498,77.2195253 238.074,69.2235253 240.095,62.2625253 C244.249,47.9555253 238.291,33.5885253 225.682,27.5025253 C219.722,24.6265253 212.17,23.6145253 206.734,24.9645253 M109.379,40.5175253 C102.622,42.8245253 98.747,49.7935253 100.449,56.5755253 C101.31,60.0075253 106.916,65.6135253 110.348,66.4745253 C117.33,68.2275253 124.86,63.7125253 126.825,56.5945253 C129.677,46.2655253 119.639,37.0135253 109.379,40.5175253 M205.299,41.8835253 C194.641,48.3815253 198.663,65.2295253 211.21,66.6435253 C219.832,67.6155253 225.989,61.7485253 225.996027,52.5555253 C226,48.2325253 225.566,47.2545253 222.118,43.8055253 C218.669,40.3575253 217.691,39.9235253 213.368,39.9274981 C210.305,39.9295253 207.313,40.6555253 205.299,41.8835253" id="Morph"></path>
        </g>
        <g id="Icon" transform="translate(1.237894, 2.000000)" stroke-width="2">
            <path d="M4.96210637,54.2 C3.33110637,55.831 3.44910637,59.544 5.18810637,61.283 C6.39810637,62.493 15.0081064,62.652 61.9381064,62.329 C122.889106,61.91 131.762106,61.549 131.762106,59.487 C131.762106,57.577 128.385106,57.347 66.2621064,55.014 C2.27910637,52.612 6.49410637,52.668 4.96210637,54.2" id="svg_3" stroke="#FC8E1A" fill="#FC8E1A"></path>
            <path d="M25.2676306,72.2438889 C22.5607594,74.5010855 22.6450106,77.111565 25.4939053,79.2613717 C27.6001857,80.8511446 30.4984276,80.9344471 60.7951651,80.2750527 C82.6715952,79.7993251 94.5437952,79.9037042 96.0037485,80.5841752 C98.1244719,81.5737687 98.1208612,81.6490421 95.9074614,82.606519 C94.6424895,83.1535052 89.275687,84.3889917 83.9798963,85.3514868 C72.5951497,87.4220055 68.8616173,88.8772901 65.3074195,92.6238953 C63.1397561,94.9101975 62.7895117,96.2510667 63.3395518,100.171302 C63.7066464,102.793826 63.6079521,104.938614 63.1204986,104.938614 C62.6318416,104.938614 59.2726252,102.438535 55.6546373,99.3824377 C48.3608891,93.2220674 44.5298659,92.4643158 43.8931674,97.054986 C43.5850487,99.2720368 45.0750917,100.847759 52.9200835,106.600649 C67.6496033,117.403879 77.7477134,123.618446 76.9581592,121.39437 C74.4282155,114.264479 72.605982,106.661872 72.3002705,101.967826 C71.9704872,96.8903883 72.1811152,96.3915769 75.1624047,95.1751597 C76.9328838,94.4525356 83.0362827,93.1417758 88.7256469,92.2615796 C104.44211,89.8307525 112.001851,84.390999 108.418767,78.0911221 C105.242496,72.5098548 101.809861,71.9919742 62.8797809,71.2221788 C30.2047519,70.5758317 27.1680974,70.6581306 25.2676306,72.2438889" id="svg_4" stroke="#EF4039" fill="#EF4039"></path>
            <path d="M59.5546964,1.2 C57.8826964,2.872 58.0546964,7.506 59.8426964,8.99 C62.0276964,10.804 106.028696,13.726 107.592696,12.162 C108.332696,11.422 108.407696,10.653 107.796696,10.042 C106.822696,9.068 66.0266964,-1.77635684e-15 62.6186964,-1.77635684e-15 C61.5936964,-1.77635684e-15 60.2146964,0.54 59.5546964,1.2" id="svg_5" stroke="#2A91E6" fill="#2A91E6"></path>
            <path d="M25.9621064,16.2 C25.3021064,16.86 24.7621064,18.57 24.7621064,20 C24.7621064,23.305 26.4571064,25 29.7621064,25 C33.0671064,25 34.7621064,23.305 34.7621064,20 C34.7621064,16.695 33.0671064,15 29.7621064,15 C28.3321064,15 26.6221064,15.54 25.9621064,16.2 M41.4351064,19.47 C39.3751064,21.53 39.2851064,24.38 41.2191064,26.314 C42.8901064,27.985 53.6561064,28.603 98.6091064,29.608 C125.923106,30.219 126.942106,30.174 126.596106,28.375 C126.209106,26.366 126.009106,26.327 104.262106,24.061 C85.4401064,22.1 74.5631064,20.939 66.2621064,20.005 C46.4151064,17.772 43.2021064,17.703 41.4351064,19.47" id="svg_6" stroke="#4EC642" fill="#4EC642"></path>
            <path d="M1.29810637,35.96 C-1.08089363,38.589 -0.0398936256,42.761 3.19810637,43.573 C7.03010637,44.535 9.14910637,43.683 10.1741064,40.771 C12.0541064,35.425 5.16310637,31.69 1.29810637,35.96 M18.0121064,36.114 C16.3711064,37.802 16.4101064,42.463 18.0771064,43.847 C18.9761064,44.592 38.9391064,45.158 81.0771064,45.631 C137.911106,46.27 142.762106,46.195 142.762106,44.681 C142.762106,43.778 141.750106,42.83 140.512106,42.576 C139.274106,42.322 114.412106,40.726 85.2621064,39.031 C56.1121064,37.336 29.3371064,35.696 25.7621064,35.388 C21.1491064,34.99 18.8991064,35.201 18.0121064,36.114" id="svg_7" stroke="#FFD218" fill="#FFD218"></path>
        </g>
    </g>
</svg>