<svg width="360" height="65" viewBox="0 0 360 65" fill="none" xmlns="http://www.w3.org/2000/svg">
<mask id="mask0_1194_3791" style="mask-type:alpha" maskUnits="userSpaceOnUse" x="0" y="0" width="59" height="58">
<rect width="58.1818" height="57.2358" fill="url(#paint0_radial_1194_3791)" style=""/>
<rect width="58.1818" height="57.2358" fill="url(#paint1_linear_1194_3791)" style=""/>
<rect width="58.1818" height="57.2358" fill="url(#paint2_linear_1194_3791)" style=""/>
</mask>
<g mask="url(#mask0_1194_3791)">
<path fill-rule="evenodd" clip-rule="evenodd" d="M9.39769 14.387C10.4113 14.4647 11.4697 14.6405 12.5214 14.9389C14.7276 15.5648 16.9993 16.7617 18.7816 18.7991C21.6266 14.7778 26.5482 9.26184 34.548 5.1846C25.1131 3.04966 15.1631 6.64607 9.39769 14.387ZM39.2981 8.03437C30.865 11.6157 25.7773 17.0353 22.8824 21.023C26.1652 21.3173 28.994 21.9559 31.5889 23.1881C31.5898 23.1886 31.5908 23.189 31.5917 23.1895C31.5934 23.1903 31.595 23.1911 31.5967 23.1919C31.6754 23.2293 31.7539 23.2673 31.8323 23.3058C34.4048 24.5717 36.6272 26.3733 38.8102 28.7887C40.1192 23.65 41.223 15.9306 39.2981 8.03437ZM43.0524 30.9308C45.8211 30.9948 48.2267 31.9478 50.1358 33.2245C51.0481 33.8346 51.866 34.5306 52.5739 35.2587C55.3053 25.9555 52.0364 15.9211 44.4217 9.89714C45.7932 18.2027 44.4243 25.9535 43.0524 30.9308ZM50.5383 40.1254C49.9921 39.2107 48.973 37.9835 47.5191 37.0113C45.6667 35.7725 43.2672 35.0484 40.3963 35.8357C39.4635 36.0915 38.4672 35.7524 37.8946 34.9841C35.6065 31.9144 33.6295 29.8675 31.585 28.4732L20.4863 51.1107C31.8095 55.3175 44.6912 50.6886 50.5383 40.1254ZM16.3058 49.0972C8.28643 44.2653 3.96761 35.4276 4.74409 26.5493C4.85426 25.2895 3.90546 24.1804 2.62488 24.0721C1.34429 23.9637 0.216857 24.8971 0.106679 26.1568C-0.893016 37.5873 5.20263 48.9745 16.3152 54.3198C30.7456 61.261 48.1638 55.38 55.2197 41.1842C62.2757 26.9884 56.2975 9.85344 41.867 2.91222C27.4366 -4.02901 10.0185 1.85198 2.96252 16.0478C2.54905 16.8797 2.68567 17.8746 3.30869 18.5688C3.93171 19.2629 4.91843 19.5195 5.80874 19.2189C6.7254 18.9094 8.94005 18.6883 11.2317 19.3385C13.4214 19.9597 15.4877 21.312 16.5999 23.9786C16.9528 24.8246 17.7834 25.3828 18.7128 25.3986C22.353 25.4605 25.1035 25.7789 27.3962 26.4767L16.3058 49.0972Z" fill="url(#paint3_linear_1194_3791)" style=""/>
</g>
<path d="M208.122 3.57724H216.669V50.6958H208.122V3.57724Z" fill="url(#paint4_linear_1194_3791)" style=""/>
<path fill-rule="evenodd" clip-rule="evenodd" d="M275.218 26.8578C274.196 29.0028 273.691 31.4145 273.691 34.0807H273.679C273.679 36.6378 274.159 38.9767 275.132 41.0854C276.105 43.1942 277.447 45.012 279.184 46.5269C280.92 48.0417 282.989 49.2173 285.403 50.0535C287.817 50.8897 290.477 51.3017 293.359 51.3017C294.591 51.3017 295.847 51.2048 297.103 50.9988C298.359 50.7927 299.579 50.5261 300.749 50.1868C301.919 49.8475 303.015 49.4597 304.037 48.9991C305.059 48.5386 305.946 48.0539 306.697 47.5449V50.6958H315.244V3.57724H306.697V19.6106C305.946 19.1744 305.084 18.7744 304.111 18.3987C303.138 18.023 302.103 17.708 300.995 17.4413C299.887 17.1747 298.729 16.9687 297.534 16.8112C296.34 16.6536 295.12 16.5809 293.889 16.5809C290.995 16.5809 288.31 16.9929 285.847 17.817C283.384 18.6411 281.241 19.8167 279.442 21.3436C277.644 22.8706 276.24 24.7127 275.218 26.8578ZM283.494 37.886C282.94 36.6984 282.669 35.4259 282.669 34.0807V34.0564C282.669 32.6264 282.94 31.2933 283.507 30.0572C284.073 28.8211 284.874 27.7546 285.921 26.8457C286.967 25.9367 288.261 25.2217 289.788 24.7006C291.315 24.1795 293.064 23.925 295.022 23.925C295.983 23.925 296.968 23.9977 297.99 24.1431C299.012 24.2886 300.022 24.5067 301.02 24.8097C302.017 25.1126 303.002 25.5005 303.963 25.9731C304.924 26.4457 305.847 27.0274 306.71 27.7061V39.3282C306.02 40.0311 305.207 40.6613 304.271 41.2309C303.335 41.8005 302.337 42.2852 301.266 42.6852C300.195 43.0851 299.074 43.388 297.928 43.6062C296.783 43.8243 295.625 43.9334 294.468 43.9334C292.657 43.9334 291.032 43.6789 289.578 43.1578C288.125 42.6367 286.881 41.9217 285.859 41.0249C284.837 40.128 284.049 39.0737 283.494 37.886Z" fill="url(#paint5_linear_1194_3791)" style=""/>
<path fill-rule="evenodd" clip-rule="evenodd" d="M319.592 27.3062C318.644 29.3785 318.176 31.5478 318.176 33.8262C318.176 36.2742 318.681 38.5526 319.654 40.6734C320.627 42.7942 322.092 44.6363 324.038 46.2118C325.984 47.7873 328.398 49.0355 331.28 49.9323C334.162 50.8291 337.524 51.2896 341.354 51.2896C342.857 51.2896 344.285 51.229 345.64 51.0957C346.995 50.9624 348.288 50.7685 349.532 50.514C350.776 50.2595 351.97 49.9323 353.116 49.5445C354.261 49.1567 355.579 48.6962 356.699 48.1872L353.62 41.7762C351.859 42.4064 350 42.9275 348.054 43.3275C346.108 43.7274 344.15 43.9334 342.191 43.9334C340.233 43.9334 338.435 43.7638 336.822 43.4365C335.208 43.1093 333.78 42.6367 332.548 42.0307C331.317 41.4248 330.282 40.6977 329.469 39.8736C328.656 39.0495 328.065 38.1284 327.696 37.1226H359.914C359.951 36.8196 359.975 36.4924 359.988 36.1167C360 35.7417 360 35.403 360 35.0764V35.0745C360 32.4931 359.52 30.0814 358.547 27.8273C357.574 25.5732 356.182 23.622 354.359 21.9496C352.537 20.2772 350.332 18.9683 347.721 18.0109C345.11 17.0535 342.191 16.5809 338.928 16.5809C335.664 16.5809 332.745 17.0535 330.171 17.9988C327.597 18.9441 325.417 20.2045 323.656 21.8042C321.895 23.4039 320.54 25.2339 319.592 27.3062ZM349.507 27.9606C350.147 28.7605 350.628 29.6209 350.936 30.5541L350.923 30.5783H327.683C327.991 29.6815 328.472 28.8332 329.137 28.0455C329.802 27.2577 330.627 26.5548 331.637 25.9489C332.647 25.3429 333.804 24.8582 335.135 24.4946C336.465 24.131 337.943 23.9492 339.556 23.9492C341.083 23.9492 342.475 24.1189 343.743 24.4582C345.012 24.7976 346.132 25.2702 347.093 25.864C348.054 26.4579 348.867 27.1608 349.507 27.9606Z" fill="url(#paint6_linear_1194_3791)" style=""/>
<path d="M265.834 12.6059C264.984 12.6059 264.221 12.4847 263.543 12.2544C262.866 12.0242 262.275 11.697 261.794 11.2849C261.314 10.8729 260.945 10.4002 260.686 9.867C260.427 9.33376 260.292 8.75205 260.292 8.1461C260.292 7.54015 260.427 6.93421 260.686 6.40097C260.945 5.86774 261.314 5.3951 261.794 4.99517C262.275 4.59524 262.854 4.28015 263.543 4.03777C264.233 3.79539 264.996 3.68632 265.834 3.68632C266.671 3.68632 267.472 3.80751 268.162 4.03777C268.851 4.26803 269.43 4.59524 269.91 4.99517C270.391 5.3951 270.76 5.85562 271.019 6.40097C271.278 6.94632 271.413 7.52803 271.413 8.1461C271.413 8.76417 271.278 9.32164 271.019 9.867C270.76 10.4123 270.391 10.885 269.91 11.2849C269.43 11.6848 268.851 12.0121 268.162 12.2544C267.472 12.4968 266.708 12.6059 265.834 12.6059Z" fill="url(#paint7_linear_1194_3791)" style=""/>
<path d="M261.56 17.1747H270.108V50.6958H261.56V17.1747Z" fill="url(#paint8_linear_1194_3791)" style=""/>
<path d="M223.054 40.4217L223.049 40.4189L223.061 40.4068L223.054 40.4217Z" fill="url(#paint9_linear_1194_3791)" style=""/>
<path d="M219.847 46.842L223.054 40.4217C225.368 41.7776 227.903 42.7826 230.672 43.4244C233.443 44.0667 236.276 44.3939 239.183 44.3939C241.141 44.3939 242.779 44.2606 244.084 43.994C245.39 43.7274 246.437 43.3881 247.225 42.976C248.013 42.564 248.567 42.0913 248.9 41.5581C249.232 41.0249 249.392 40.4916 249.392 39.9341C249.392 39.1343 249.035 38.4556 248.333 37.886C247.631 37.3164 246.473 37.0377 244.86 37.0377C244.109 37.0377 243.296 37.0862 242.434 37.1831L239.712 37.4861C238.764 37.5952 237.766 37.6921 236.744 37.7891C235.722 37.886 234.675 37.9345 233.616 37.9345C231.3 37.9345 229.342 37.6921 227.717 37.1953C226.091 36.6984 224.773 36.0318 223.751 35.1835C222.729 34.3352 221.99 33.3172 221.534 32.1538C221.078 30.9903 220.844 29.73 220.844 28.3848C220.844 26.676 221.251 25.1126 222.051 23.6705C222.852 22.2283 224.01 20.9922 225.512 19.9378C227.015 18.8835 228.825 18.0715 230.956 17.4777C233.086 16.8839 235.451 16.593 238.074 16.593C239.441 16.593 240.87 16.6778 242.36 16.8354C243.85 16.9929 245.316 17.2111 246.757 17.4777C248.198 17.7443 249.589 18.0473 250.919 18.3987C252.025 18.691 253.285 19.1926 254.265 19.5833C254.464 19.6625 254.651 19.7371 254.824 19.8045L251.757 26.0579C249.577 25.2581 247.409 24.6279 245.242 24.1674C243.074 23.7068 240.845 23.4766 238.554 23.4766C236.953 23.4766 235.611 23.5978 234.503 23.828C233.394 24.0583 232.495 24.3734 231.805 24.7612C231.116 25.149 230.611 25.5974 230.291 26.0943C229.97 26.5912 229.81 27.1244 229.81 27.6697C229.81 28.0697 229.896 28.4211 230.057 28.7483C230.217 29.0756 230.488 29.3543 230.869 29.5845C231.251 29.8148 231.732 29.9966 232.347 30.1299C232.963 30.2632 233.702 30.3117 234.589 30.3117C235.402 30.3117 236.251 30.2632 237.163 30.1663C237.412 30.1398 237.663 30.1133 237.916 30.0865L237.917 30.0864C238.59 30.0154 239.28 29.9425 239.995 29.8633C240.981 29.7542 241.991 29.6573 243.037 29.5603C244.084 29.4634 245.156 29.4149 246.252 29.4149C248.296 29.4149 250.082 29.6573 251.609 30.1299C253.136 30.6025 254.405 31.2691 255.402 32.1174C256.4 32.9657 257.151 33.9716 257.656 35.1229C258.161 36.2742 258.407 37.5346 258.407 38.904C258.407 40.6613 257.989 42.2973 257.164 43.8122C256.338 45.3271 255.107 46.6359 253.469 47.7509C251.831 48.8658 249.799 49.7263 247.36 50.3443C244.922 50.9624 242.114 51.2775 238.912 51.2775C236.953 51.2775 235.057 51.1563 233.222 50.9261C231.387 50.6958 229.65 50.3686 228 49.9565C226.35 49.5445 224.773 49.1082 223.332 48.5265C221.486 47.7845 221.104 47.5587 220.623 47.2745C220.421 47.1549 220.201 47.025 219.847 46.842Z" fill="url(#paint10_linear_1194_3791)" style=""/>
<path fill-rule="evenodd" clip-rule="evenodd" d="M164.278 27.1729C163.28 29.2816 162.788 31.5357 162.788 33.9353C162.788 36.347 163.28 38.589 164.278 40.6977C165.275 42.8064 166.692 44.6363 168.527 46.2118C170.362 47.7873 172.579 49.0355 175.19 49.9323C177.801 50.8291 180.732 51.2896 183.983 51.2896C187.234 51.2896 190.178 50.8412 192.776 49.9323C195.375 49.0234 197.604 47.7873 199.439 46.2118C201.274 44.6363 202.678 42.8064 203.676 40.6977C204.673 38.589 205.166 36.347 205.166 33.9353C205.166 31.5236 204.661 29.2816 203.676 27.1729C202.691 25.0642 201.274 23.2342 199.439 21.6588C197.604 20.0833 195.387 18.835 192.776 17.9382C190.166 17.0414 187.234 16.5809 183.983 16.5809C180.732 16.5809 177.788 17.0293 175.19 17.9382C172.591 18.8472 170.374 20.0833 168.527 21.6588C166.679 23.2342 165.275 25.0642 164.278 27.1729ZM172.591 37.7528C172.037 36.553 171.766 35.2805 171.766 33.9353C171.766 32.5901 172.037 31.3176 172.591 30.1057C173.145 28.8938 173.946 27.8152 174.993 26.9063C176.039 25.9974 177.333 25.2702 178.835 24.7249C180.338 24.1795 182.062 23.9129 183.983 23.9129C185.904 23.9129 187.616 24.1916 189.131 24.7249C190.646 25.2581 191.914 25.9852 192.974 26.9063C194.033 27.8273 194.821 28.8938 195.375 30.1057C195.929 31.3176 196.2 32.5901 196.2 33.9353C196.2 35.2805 195.929 36.553 195.375 37.7528C194.821 38.9525 194.02 40.019 192.974 40.9279C191.927 41.8368 190.634 42.564 189.131 43.1093C187.628 43.6547 185.904 43.9213 183.983 43.9213C182.062 43.9213 180.35 43.6426 178.835 43.1093C177.32 42.5761 176.052 41.8368 174.993 40.9279C173.933 40.019 173.145 38.9525 172.591 37.7528Z" fill="url(#paint11_linear_1194_3791)" style=""/>
<path fill-rule="evenodd" clip-rule="evenodd" d="M118.574 33.9353C118.574 31.5357 119.067 29.2816 120.064 27.1729C121.062 25.0642 122.466 23.2342 124.313 21.6588C126.161 20.0833 128.377 18.8472 130.976 17.9382C133.575 17.0293 136.518 16.5809 139.77 16.5809C143.021 16.5809 145.952 17.0414 148.563 17.9382C151.174 18.835 153.391 20.0833 155.226 21.6588C157.061 23.2342 158.477 25.0642 159.475 27.1729C160.472 29.2816 160.965 31.5236 160.965 33.9353C160.965 36.347 160.472 38.589 159.475 40.6977C158.477 42.8064 157.073 44.6363 155.226 46.2118C153.378 47.7873 151.162 49.0234 148.563 49.9323C145.964 50.8412 143.021 51.2896 139.77 51.2896C136.518 51.2896 133.587 50.8291 130.976 49.9323C128.365 49.0355 126.148 47.7873 124.313 46.2118C122.478 44.6363 121.062 42.8064 120.064 40.6977C119.067 38.589 118.574 36.347 118.574 33.9353ZM127.552 33.9353C127.552 35.2805 127.823 36.553 128.377 37.7528C128.932 38.9525 129.72 40.019 130.779 40.9279C131.838 41.8368 133.107 42.5761 134.622 43.1093C136.136 43.6426 137.848 43.9213 139.77 43.9213C141.691 43.9213 143.415 43.6547 144.918 43.1093C146.42 42.564 147.713 41.8368 148.76 40.9279C149.807 40.019 150.607 38.9525 151.162 37.7528C151.716 36.553 151.987 35.2805 151.987 33.9353C151.987 32.5901 151.716 31.3176 151.162 30.1057C150.607 28.8938 149.819 27.8273 148.76 26.9063C147.701 25.9852 146.432 25.2581 144.918 24.7249C143.403 24.1916 141.691 23.9129 139.77 23.9129C137.848 23.9129 136.124 24.1795 134.622 24.7249C133.119 25.2702 131.826 25.9974 130.779 26.9063C129.732 27.8152 128.932 28.8938 128.377 30.1057C127.823 31.3176 127.552 32.5901 127.552 33.9353Z" fill="url(#paint12_linear_1194_3791)" style=""/>
<path fill-rule="evenodd" clip-rule="evenodd" d="M74.5455 64.3902H83.0926L83.1049 64.3781V48.272C83.8562 48.7083 84.7183 49.1082 85.6912 49.4839C86.6642 49.8596 87.6987 50.1747 88.8071 50.4413C89.9155 50.7079 91.0732 50.914 92.2678 51.0715C93.4625 51.229 94.6817 51.3018 95.9133 51.3018C98.8075 51.3018 101.492 50.8897 103.955 50.0656C106.419 49.2415 108.562 48.066 110.36 46.539C112.158 45.012 113.562 43.1699 114.584 41.0249C115.606 38.8798 116.111 36.3591 116.111 33.802C116.111 31.2449 115.631 28.9059 114.658 26.7972C113.685 24.6885 112.342 22.8707 110.606 21.3558C108.869 19.8409 106.8 18.6654 104.387 17.8292C101.973 16.993 99.3124 16.5809 96.4305 16.5809C95.1743 16.5809 93.9181 16.6779 92.6742 16.8839C91.4304 17.0899 90.2111 17.3565 89.0411 17.6959C87.8711 18.0352 86.775 18.423 85.7528 18.8835C84.7306 19.344 83.8438 19.8288 83.0926 20.3378V17.1869H74.5455V64.3902ZM85.839 41.8974C84.8784 41.4248 83.9547 40.8431 83.0926 40.1644V28.5666C83.7823 27.8637 84.5951 27.2335 85.5311 26.6639C86.4671 26.0943 87.4647 25.6095 88.5361 25.2096C89.6076 24.8097 90.7284 24.5067 91.8737 24.2886C93.0191 24.0704 94.1768 23.9614 95.3344 23.9614C97.1449 23.9614 98.7705 24.2159 100.224 24.737C101.677 25.2581 102.921 25.9731 103.943 26.8699C104.965 27.7667 105.754 28.8211 106.308 30.0087C106.862 31.1964 107.133 32.4689 107.133 33.8141C107.133 35.2441 106.862 36.5772 106.295 37.8133C105.729 39.0495 104.928 40.1159 103.882 41.0249C102.835 41.9338 101.542 42.6488 100.014 43.1699C98.4873 43.691 96.7384 43.9455 94.7802 43.9455C93.8196 43.9455 92.8343 43.8728 91.8121 43.7274C90.7899 43.582 89.78 43.3638 88.7825 43.0609C87.7849 42.7579 86.7996 42.3701 85.839 41.8974Z" fill="url(#paint13_linear_1194_3791)" style=""/>
<defs>
<radialGradient id="paint0_radial_1194_3791" cx="0" cy="0" r="1" gradientUnits="userSpaceOnUse" gradientTransform="translate(2.81555 23.5099) rotate(67.7069) scale(34.8788 26.2489)">
<stop offset="0.061608" stop-opacity="0" style="stop-color:none;stop-opacity:0;"/>
<stop offset="1" style="stop-color:black;stop-opacity:1;"/>
</radialGradient>
<linearGradient id="paint1_linear_1194_3791" x1="27.8962" y1="35.978" x2="16.4416" y2="41.0878" gradientUnits="userSpaceOnUse">
<stop style="stop-color:black;stop-opacity:1;"/>
<stop offset="1" stop-opacity="0" style="stop-color:none;stop-opacity:0;"/>
</linearGradient>
<linearGradient id="paint2_linear_1194_3791" x1="16.6599" y1="28.6179" x2="17.868" y2="25.3204" gradientUnits="userSpaceOnUse">
<stop stop-opacity="0" style="stop-color:none;stop-opacity:0;"/>
<stop offset="1" style="stop-color:black;stop-opacity:1;"/>
</linearGradient>
<linearGradient id="paint3_linear_1194_3791" x1="29.6018" y1="-0.00242323" x2="62.0645" y2="54.9407" gradientUnits="userSpaceOnUse">
<stop stop-color="#9E85FF" style="stop-color:#9E85FF;stop-color:color(display-p3 0.6185 0.5232 1.0000);stop-opacity:1;"/>
<stop offset="0.5" stop-color="#6E76FF" style="stop-color:#6E76FF;stop-color:color(display-p3 0.4314 0.4627 1.0000);stop-opacity:1;"/>
<stop offset="1" stop-color="#365AFF" style="stop-color:#365AFF;stop-color:color(display-p3 0.2135 0.3530 1.0000);stop-opacity:1;"/>
</linearGradient>
<linearGradient id="paint4_linear_1194_3791" x1="219.777" y1="3.57723" x2="229.691" y2="81.0635" gradientUnits="userSpaceOnUse">
<stop stop-color="#9E85FF" style="stop-color:#9E85FF;stop-color:color(display-p3 0.6185 0.5232 1.0000);stop-opacity:1;"/>
<stop offset="0.5" stop-color="#6E76FF" style="stop-color:#6E76FF;stop-color:color(display-p3 0.4314 0.4627 1.0000);stop-opacity:1;"/>
<stop offset="1" stop-color="#365AFF" style="stop-color:#365AFF;stop-color:color(display-p3 0.2135 0.3530 1.0000);stop-opacity:1;"/>
</linearGradient>
<linearGradient id="paint5_linear_1194_3791" x1="219.777" y1="3.57723" x2="229.691" y2="81.0635" gradientUnits="userSpaceOnUse">
<stop stop-color="#9E85FF" style="stop-color:#9E85FF;stop-color:color(display-p3 0.6185 0.5232 1.0000);stop-opacity:1;"/>
<stop offset="0.5" stop-color="#6E76FF" style="stop-color:#6E76FF;stop-color:color(display-p3 0.4314 0.4627 1.0000);stop-opacity:1;"/>
<stop offset="1" stop-color="#365AFF" style="stop-color:#365AFF;stop-color:color(display-p3 0.2135 0.3530 1.0000);stop-opacity:1;"/>
</linearGradient>
<linearGradient id="paint6_linear_1194_3791" x1="219.777" y1="3.57723" x2="229.691" y2="81.0635" gradientUnits="userSpaceOnUse">
<stop stop-color="#9E85FF" style="stop-color:#9E85FF;stop-color:color(display-p3 0.6185 0.5232 1.0000);stop-opacity:1;"/>
<stop offset="0.5" stop-color="#6E76FF" style="stop-color:#6E76FF;stop-color:color(display-p3 0.4314 0.4627 1.0000);stop-opacity:1;"/>
<stop offset="1" stop-color="#365AFF" style="stop-color:#365AFF;stop-color:color(display-p3 0.2135 0.3530 1.0000);stop-opacity:1;"/>
</linearGradient>
<linearGradient id="paint7_linear_1194_3791" x1="219.777" y1="3.57723" x2="229.691" y2="81.0635" gradientUnits="userSpaceOnUse">
<stop stop-color="#9E85FF" style="stop-color:#9E85FF;stop-color:color(display-p3 0.6185 0.5232 1.0000);stop-opacity:1;"/>
<stop offset="0.5" stop-color="#6E76FF" style="stop-color:#6E76FF;stop-color:color(display-p3 0.4314 0.4627 1.0000);stop-opacity:1;"/>
<stop offset="1" stop-color="#365AFF" style="stop-color:#365AFF;stop-color:color(display-p3 0.2135 0.3530 1.0000);stop-opacity:1;"/>
</linearGradient>
<linearGradient id="paint8_linear_1194_3791" x1="219.777" y1="3.57723" x2="229.691" y2="81.0635" gradientUnits="userSpaceOnUse">
<stop stop-color="#9E85FF" style="stop-color:#9E85FF;stop-color:color(display-p3 0.6185 0.5232 1.0000);stop-opacity:1;"/>
<stop offset="0.5" stop-color="#6E76FF" style="stop-color:#6E76FF;stop-color:color(display-p3 0.4314 0.4627 1.0000);stop-opacity:1;"/>
<stop offset="1" stop-color="#365AFF" style="stop-color:#365AFF;stop-color:color(display-p3 0.2135 0.3530 1.0000);stop-opacity:1;"/>
</linearGradient>
<linearGradient id="paint9_linear_1194_3791" x1="219.777" y1="3.57723" x2="229.691" y2="81.0635" gradientUnits="userSpaceOnUse">
<stop stop-color="#9E85FF" style="stop-color:#9E85FF;stop-color:color(display-p3 0.6185 0.5232 1.0000);stop-opacity:1;"/>
<stop offset="0.5" stop-color="#6E76FF" style="stop-color:#6E76FF;stop-color:color(display-p3 0.4314 0.4627 1.0000);stop-opacity:1;"/>
<stop offset="1" stop-color="#365AFF" style="stop-color:#365AFF;stop-color:color(display-p3 0.2135 0.3530 1.0000);stop-opacity:1;"/>
</linearGradient>
<linearGradient id="paint10_linear_1194_3791" x1="219.777" y1="3.57723" x2="229.691" y2="81.0635" gradientUnits="userSpaceOnUse">
<stop stop-color="#9E85FF" style="stop-color:#9E85FF;stop-color:color(display-p3 0.6185 0.5232 1.0000);stop-opacity:1;"/>
<stop offset="0.5" stop-color="#6E76FF" style="stop-color:#6E76FF;stop-color:color(display-p3 0.4314 0.4627 1.0000);stop-opacity:1;"/>
<stop offset="1" stop-color="#365AFF" style="stop-color:#365AFF;stop-color:color(display-p3 0.2135 0.3530 1.0000);stop-opacity:1;"/>
</linearGradient>
<linearGradient id="paint11_linear_1194_3791" x1="219.777" y1="3.57723" x2="229.691" y2="81.0635" gradientUnits="userSpaceOnUse">
<stop stop-color="#9E85FF" style="stop-color:#9E85FF;stop-color:color(display-p3 0.6185 0.5232 1.0000);stop-opacity:1;"/>
<stop offset="0.5" stop-color="#6E76FF" style="stop-color:#6E76FF;stop-color:color(display-p3 0.4314 0.4627 1.0000);stop-opacity:1;"/>
<stop offset="1" stop-color="#365AFF" style="stop-color:#365AFF;stop-color:color(display-p3 0.2135 0.3530 1.0000);stop-opacity:1;"/>
</linearGradient>
<linearGradient id="paint12_linear_1194_3791" x1="219.777" y1="3.57723" x2="229.691" y2="81.0635" gradientUnits="userSpaceOnUse">
<stop stop-color="#9E85FF" style="stop-color:#9E85FF;stop-color:color(display-p3 0.6185 0.5232 1.0000);stop-opacity:1;"/>
<stop offset="0.5" stop-color="#6E76FF" style="stop-color:#6E76FF;stop-color:color(display-p3 0.4314 0.4627 1.0000);stop-opacity:1;"/>
<stop offset="1" stop-color="#365AFF" style="stop-color:#365AFF;stop-color:color(display-p3 0.2135 0.3530 1.0000);stop-opacity:1;"/>
</linearGradient>
<linearGradient id="paint13_linear_1194_3791" x1="219.777" y1="3.57723" x2="229.691" y2="81.0635" gradientUnits="userSpaceOnUse">
<stop stop-color="#9E85FF" style="stop-color:#9E85FF;stop-color:color(display-p3 0.6185 0.5232 1.0000);stop-opacity:1;"/>
<stop offset="0.5" stop-color="#6E76FF" style="stop-color:#6E76FF;stop-color:color(display-p3 0.4314 0.4627 1.0000);stop-opacity:1;"/>
<stop offset="1" stop-color="#365AFF" style="stop-color:#365AFF;stop-color:color(display-p3 0.2135 0.3530 1.0000);stop-opacity:1;"/>
</linearGradient>
</defs>
</svg>
