<svg width="116" height="56" viewBox="0 0 116 56" fill="none" xmlns="http://www.w3.org/2000/svg">
									<g clip-path="url(#clip0_13837_52635)">
										<path d="M46.3153 28.5714C41.6199 28.5714 37.7999 24.7514 37.7999 20.056C37.7999 15.3606 41.6199 11.5406 46.3153 11.5406C51.0107 11.5406 54.8306 15.3606 54.8306 20.056C54.8306 24.7514 51.0107 28.5714 46.3153 28.5714ZM46.3153 15.1545C43.6126 15.1545 41.4137 17.3533 41.4137 20.056C41.4137 22.7587 43.6126 24.9575 46.3153 24.9575C49.018 24.9575 51.2168 22.7587 51.2168 20.056C51.2168 17.3533 49.018 15.1545 46.3153 15.1545Z" fill="#7968FA"></path>
										<path d="M66.6671 28.5714C61.9717 28.5714 58.1517 24.7514 58.1517 20.056C58.1517 15.3606 61.9717 11.5406 66.6671 11.5406C71.3625 11.5406 75.1824 15.3606 75.1824 20.056C75.1824 24.7514 71.3625 28.5714 66.6671 28.5714ZM66.6671 15.1545C63.9644 15.1545 61.7655 17.3533 61.7655 20.056C61.7655 22.7587 63.9644 24.9575 66.6671 24.9575C69.3698 24.9575 71.5686 22.7587 71.5686 20.056C71.5686 17.3533 69.3698 15.1545 66.6671 15.1545Z" fill="#7968FA"></path>
										<path d="M87.0189 28.5714C82.3235 28.5714 78.5036 24.7514 78.5036 20.056C78.5036 15.3606 82.3235 11.5406 87.0189 11.5406C91.7144 11.5406 95.5343 15.3606 95.5343 20.056C95.5343 24.7514 91.7144 28.5714 87.0189 28.5714ZM87.0189 15.1545C84.3162 15.1545 82.1174 17.3533 82.1174 20.056C82.1174 22.7587 84.3162 24.9575 87.0189 24.9575C89.7217 24.9575 91.9205 22.7587 91.9205 20.056C91.9205 17.3533 89.7217 15.1545 87.0189 15.1545Z" fill="#7968FA"></path>
										<path d="M107.373 28.5714C102.678 28.5714 98.858 24.7514 98.858 20.056C98.858 15.3606 102.678 11.5406 107.373 11.5406C112.069 11.5406 115.889 15.3606 115.889 20.056C115.889 24.7514 112.069 28.5714 107.373 28.5714ZM107.373 15.1545C104.671 15.1545 102.472 17.3533 102.472 20.056C102.472 22.7587 104.671 24.9575 107.373 24.9575C110.076 24.9575 112.275 22.7587 112.275 20.056C112.275 17.3533 110.076 15.1545 107.373 15.1545Z" fill="#7968FA"></path>
										<path d="M54.8306 9.80499H51.2168V36H54.8306V9.80499Z" fill="#7968FA"></path>
										<path d="M95.5343 4H91.9205V30.195H95.5343V4Z" fill="#7968FA"></path>
										<path d="M27.9357 20.0585C27.9357 25.8152 26.1263 30.4826 23.8918 30.4826C22.9757 30.4826 22.1384 29.6962 21.4538 28.3678C23.1894 26.4692 24.3092 23.456 24.3092 20.0611C24.3092 16.6661 23.1894 13.6453 21.4538 11.7468C22.1358 10.4183 22.9757 9.63449 23.8918 9.63449C26.1263 9.63449 27.9357 14.2994 27.9357 20.0611" fill="#5AE3AE"></path>
										<path d="M24.3118 20.0611C24.3118 23.4586 23.192 26.4718 21.4538 28.3677C20.4842 26.4692 19.8556 23.456 19.8556 20.0611C19.8556 16.6661 20.4842 13.6453 21.4538 11.7468C23.192 13.6453 24.3118 16.6636 24.3118 20.0611Z" fill="#7968FA"></path>
										<path d="M14.0938 29.5155C12.8239 30.1314 11.4166 30.48 9.92524 30.48C4.44345 30.48 0 25.8126 0 20.056C0 14.2993 4.44345 9.62939 9.92524 9.62939C11.4166 9.62939 12.8239 9.97551 14.0938 10.5939C11.6278 12.2405 9.91252 15.8594 9.91252 20.0585C9.91252 24.2577 11.6253 27.8715 14.0938 29.5181" fill="#5AE3AE"></path>
										<path d="M19.8556 20.0611C19.8556 24.2551 17.4964 27.874 14.0913 29.5206C11.6253 27.874 9.90997 24.2551 9.90997 20.0611C9.90997 15.867 11.6227 12.2456 14.0913 10.5965C17.4939 12.2481 19.8556 15.8619 19.8556 20.0611Z" fill="#7968FA"></path>
										<path d="M21.4564 28.3652C20.2526 29.6937 18.7486 30.48 17.1147 30.48C16.0357 30.48 15.01 30.1365 14.0939 29.5155C17.4964 27.8664 19.8581 24.2475 19.8581 20.056C19.8581 23.4535 20.4867 26.4667 21.4564 28.3627" fill="#5AE3AE"></path>
										<path d="M21.4564 11.7442C20.4867 13.6428 19.8581 16.6611 19.8581 20.0585C19.8581 15.8594 17.499 12.2456 14.0939 10.5939C15.01 9.97043 16.0357 9.62686 17.1147 9.62686C18.7511 9.62686 20.2526 10.4132 21.4564 11.7417" fill="#5AE3AE"></path>
										<path d="M1.63987 53.8971H0.327311V43.5735H5.94626V44.7829H1.63987V47.9389H5.71029V49.1335H1.63987V53.8971ZM10.798 46.5674C11.3387 46.5674 11.8352 46.6657 12.2875 46.8623C12.7496 47.059 13.1478 47.3293 13.4821 47.6735C13.8164 48.0077 14.0769 48.401 14.2637 48.8533C14.4505 49.3056 14.5439 49.7922 14.5439 50.3133C14.5439 50.8344 14.4505 51.3211 14.2637 51.7734C14.0769 52.2256 13.8164 52.6238 13.4821 52.9679C13.1478 53.3022 12.7496 53.5677 12.2875 53.7643C11.8352 53.961 11.3387 54.0593 10.798 54.0593C10.2572 54.0593 9.75579 53.961 9.29369 53.7643C8.84142 53.5677 8.44814 53.3022 8.11386 52.9679C7.77957 52.6238 7.51902 52.2256 7.33222 51.7734C7.14541 51.3211 7.05201 50.8344 7.05201 50.3133C7.05201 49.7922 7.14541 49.3056 7.33222 48.8533C7.51902 48.401 7.77957 48.0077 8.11386 47.6735C8.44814 47.3293 8.84142 47.059 9.29369 46.8623C9.75579 46.6657 10.2572 46.5674 10.798 46.5674ZM10.798 47.7324C10.444 47.7324 10.1147 47.8013 9.80986 47.9389C9.51491 48.0667 9.25436 48.2486 9.02823 48.4846C8.81192 48.7206 8.63986 48.9958 8.51205 49.3105C8.39407 49.6251 8.33507 49.9594 8.33507 50.3133C8.33507 50.6673 8.39407 51.0016 8.51205 51.3162C8.63986 51.6308 8.81192 51.9061 9.02823 52.1421C9.25436 52.378 9.51491 52.5648 9.80986 52.7025C10.1147 52.8303 10.444 52.8942 10.798 52.8942C11.1519 52.8942 11.4764 52.8303 11.7713 52.7025C12.0761 52.5648 12.3367 52.378 12.553 52.1421C12.7791 51.9061 12.9512 51.6308 13.0692 51.3162C13.197 51.0016 13.2609 50.6673 13.2609 50.3133C13.2609 49.9594 13.197 49.6251 13.0692 49.3105C12.9512 48.9958 12.7791 48.7206 12.553 48.4846C12.3367 48.2486 12.0761 48.0667 11.7713 47.9389C11.4764 47.8013 11.1519 47.7324 10.798 47.7324ZM20.1283 47.9094C20.1087 47.9094 20.0792 47.9045 20.0398 47.8947C20.0103 47.8947 19.971 47.8947 19.9219 47.8947C19.8727 47.8848 19.8235 47.8799 19.7744 47.8799C19.1058 47.8799 18.5798 48.1208 18.1963 48.6026C17.8227 49.0843 17.6359 49.7136 17.6359 50.4903V53.8971H16.3824V46.7296H17.6212V47.9979C17.6998 47.7914 17.8129 47.6046 17.9604 47.4375C18.1177 47.2605 18.2947 47.113 18.4913 46.995C18.6879 46.8771 18.8993 46.7837 19.1255 46.7148C19.3516 46.646 19.5827 46.6116 19.8186 46.6116C19.8678 46.6116 19.9071 46.6165 19.9366 46.6263C19.9759 46.6263 20.0103 46.6263 20.0398 46.6263C20.0792 46.6362 20.1087 46.6411 20.1283 46.6411V47.9094ZM22.9651 53.8971H21.6968V46.7296H22.9504V47.7619C23.147 47.3883 23.4223 47.0983 23.7762 46.8918C24.1302 46.6755 24.5579 46.5674 25.0593 46.5674C25.5902 46.5674 26.0425 46.6903 26.4161 46.9361C26.7996 47.1819 27.0994 47.526 27.3157 47.9684C27.4042 47.8209 27.5173 47.6636 27.6549 47.4965C27.7926 47.3293 27.9597 47.1769 28.1564 47.0393C28.3628 46.9016 28.5939 46.7886 28.8495 46.7001C29.115 46.6116 29.4198 46.5674 29.7639 46.5674C30.5996 46.5674 31.2485 46.8377 31.7106 47.3785C32.1727 47.9192 32.4038 48.6517 32.4038 49.5759V53.8971H31.1354V49.7971C31.1354 49.1581 30.9978 48.6566 30.7225 48.2929C30.457 47.9192 30.0539 47.7324 29.5132 47.7324C28.9528 47.7324 28.5054 47.9487 28.1711 48.3813C27.8467 48.814 27.6844 49.399 27.6844 50.1363V53.8971H26.4161V49.8266C26.4161 49.1777 26.2785 48.6665 26.0032 48.2929C25.7279 47.9192 25.3248 47.7324 24.7938 47.7324C24.2334 47.7324 23.7861 47.9487 23.4518 48.3813C23.1273 48.814 22.9651 49.399 22.9651 50.1363V53.8971ZM40.6759 53.1449C40.2728 53.43 39.8353 53.6562 39.3634 53.8233C38.8915 53.9806 38.4048 54.0593 37.9033 54.0593C37.3331 54.0593 36.8169 53.9659 36.3548 53.7791C35.8927 53.5824 35.4945 53.317 35.1602 52.9827C34.8358 52.6386 34.5851 52.2404 34.4081 51.7881C34.2311 51.3358 34.1426 50.8442 34.1426 50.3133C34.1426 49.7824 34.2311 49.2908 34.4081 48.8385C34.5851 48.3764 34.8259 47.9782 35.1307 47.644C35.4454 47.3097 35.819 47.0491 36.2516 46.8623C36.6842 46.6657 37.161 46.5674 37.6821 46.5674C38.1836 46.5674 38.6407 46.6657 39.0537 46.8623C39.4666 47.0491 39.8206 47.3097 40.1155 47.644C40.4203 47.9782 40.6514 48.3715 40.8087 48.8238C40.9758 49.2662 41.0594 49.7431 41.0594 50.2543C41.0594 50.333 41.0545 50.4018 41.0446 50.4608C41.0446 50.51 41.0446 50.5542 41.0446 50.5935C41.0348 50.6329 41.0299 50.6722 41.0299 50.7115H35.4109C35.4404 51.0065 35.5191 51.2916 35.6469 51.5669C35.7846 51.8324 35.9615 52.0634 36.1778 52.26C36.404 52.4567 36.6694 52.614 36.9742 52.732C37.279 52.85 37.6182 52.909 37.9918 52.909C38.9062 52.909 39.8009 52.5304 40.6759 51.7734V53.1449ZM39.7763 49.6644C39.7468 49.3793 39.6731 49.1187 39.5551 48.8828C39.447 48.637 39.2995 48.4256 39.1127 48.2486C38.9357 48.0716 38.7194 47.934 38.4638 47.8357C38.218 47.7275 37.9476 47.6735 37.6526 47.6735C37.3577 47.6735 37.0775 47.7324 36.812 47.8504C36.5564 47.9684 36.3302 48.1208 36.1336 48.3076C35.937 48.4944 35.7747 48.7058 35.6469 48.9418C35.5289 49.1777 35.4601 49.4186 35.4404 49.6644H39.7763ZM46.5708 47.9094C46.5512 47.9094 46.5217 47.9045 46.4824 47.8947C46.4529 47.8947 46.4135 47.8947 46.3644 47.8947C46.3152 47.8848 46.2661 47.8799 46.2169 47.8799C45.5483 47.8799 45.0223 48.1208 44.6389 48.6026C44.2653 49.0843 44.0784 49.7136 44.0784 50.4903V53.8971H42.8249V46.7296H44.0637V47.9979C44.1424 47.7914 44.2554 47.6046 44.4029 47.4375C44.5602 47.2605 44.7372 47.113 44.9338 46.995C45.1305 46.8771 45.3419 46.7837 45.568 46.7148C45.7941 46.646 46.0252 46.6116 46.2611 46.6116C46.3103 46.6116 46.3496 46.6165 46.3791 46.6263C46.4184 46.6263 46.4529 46.6263 46.4824 46.6263C46.5217 46.6362 46.5512 46.6411 46.5708 46.6411V47.9094ZM49.4076 43.5735V53.8971H48.1393V43.5735H49.4076ZM54.438 54.9884C54.1136 55.7651 53.7744 56.3157 53.4204 56.6402C53.0665 56.9745 52.6191 57.1416 52.0784 57.1416C51.7834 57.1416 51.5229 57.0924 51.2967 56.9941V55.8733C51.3754 55.9028 51.4737 55.9274 51.5917 55.947C51.7097 55.9765 51.8375 55.9913 51.9751 55.9913C52.2603 55.9913 52.4962 55.8979 52.683 55.7111C52.8797 55.5242 53.0763 55.1998 53.273 54.7377L53.7006 53.7053L50.8543 46.7296H52.2111L54.3643 52.26L56.5765 46.7296H57.8891L54.438 54.9884ZM62.5319 48.7353C62.5319 47.9881 62.6646 47.29 62.9301 46.6411C63.2054 45.9922 63.579 45.4269 64.0509 44.9451C64.5327 44.4633 65.0931 44.0848 65.7322 43.8095C66.3811 43.5342 67.0742 43.3966 67.8116 43.3966C68.8931 43.3966 69.9009 43.7063 70.8349 44.3257V45.7857C69.8419 45.0385 68.8243 44.6649 67.7821 44.6649C67.2315 44.6649 66.7203 44.773 66.2483 44.9893C65.7764 45.1958 65.3635 45.4809 65.0095 45.8447C64.6654 46.2085 64.3901 46.6411 64.1836 47.1425C63.987 47.6341 63.8887 48.165 63.8887 48.7353C63.8887 49.2957 63.987 49.8266 64.1836 50.3281C64.3901 50.8197 64.6654 51.2474 65.0095 51.6111C65.3635 51.9749 65.7764 52.265 66.2483 52.4813C66.7203 52.6877 67.2315 52.791 67.7821 52.791C68.8243 52.791 69.8517 52.4272 70.8644 51.6996V53.1597C69.9009 53.7594 68.8784 54.0593 67.7969 54.0593C67.0595 54.0593 66.3712 53.9216 65.7322 53.6463C65.0931 53.3711 64.5327 52.9974 64.0509 52.5255C63.579 52.0437 63.2054 51.4784 62.9301 50.8295C62.6646 50.1806 62.5319 49.4825 62.5319 48.7353ZM75.9969 46.5674C76.5377 46.5674 77.0342 46.6657 77.4865 46.8623C77.9486 47.059 78.3468 47.3293 78.6811 47.6735C79.0153 48.0077 79.2759 48.401 79.4627 48.8533C79.6495 49.3056 79.7429 49.7922 79.7429 50.3133C79.7429 50.8344 79.6495 51.3211 79.4627 51.7734C79.2759 52.2256 79.0153 52.6238 78.6811 52.9679C78.3468 53.3022 77.9486 53.5677 77.4865 53.7643C77.0342 53.961 76.5377 54.0593 75.9969 54.0593C75.4562 54.0593 74.9548 53.961 74.4927 53.7643C74.0404 53.5677 73.6471 53.3022 73.3128 52.9679C72.9785 52.6238 72.718 52.2256 72.5312 51.7734C72.3444 51.3211 72.251 50.8344 72.251 50.3133C72.251 49.7922 72.3444 49.3056 72.5312 48.8533C72.718 48.401 72.9785 48.0077 73.3128 47.6735C73.6471 47.3293 74.0404 47.059 74.4927 46.8623C74.9548 46.6657 75.4562 46.5674 75.9969 46.5674ZM75.9969 47.7324C75.643 47.7324 75.3136 47.8013 75.0088 47.9389C74.7139 48.0667 74.4533 48.2486 74.2272 48.4846C74.0109 48.7206 73.8388 48.9958 73.711 49.3105C73.593 49.6251 73.534 49.9594 73.534 50.3133C73.534 50.6673 73.593 51.0016 73.711 51.3162C73.8388 51.6308 74.0109 51.9061 74.2272 52.1421C74.4533 52.378 74.7139 52.5648 75.0088 52.7025C75.3136 52.8303 75.643 52.8942 75.9969 52.8942C76.3509 52.8942 76.6753 52.8303 76.9703 52.7025C77.2751 52.5648 77.5356 52.378 77.7519 52.1421C77.9781 51.9061 78.1501 51.6308 78.2681 51.3162C78.3959 51.0016 78.4598 50.6673 78.4598 50.3133C78.4598 49.9594 78.3959 49.6251 78.2681 49.3105C78.1501 48.9958 77.9781 48.7206 77.7519 48.4846C77.5356 48.2486 77.2751 48.0667 76.9703 47.9389C76.6753 47.8013 76.3509 47.7324 75.9969 47.7324ZM88.5259 43.5735V53.8971H87.2723V52.7615C87.0167 53.1548 86.6627 53.4694 86.2104 53.7053C85.7582 53.9413 85.2666 54.0593 84.7356 54.0593C84.2244 54.0593 83.7475 53.9659 83.3051 53.7791C82.8725 53.5824 82.494 53.317 82.1695 52.9827C81.8451 52.6484 81.5894 52.2551 81.4026 51.8029C81.2256 51.3408 81.1372 50.8442 81.1372 50.3133C81.1372 49.7824 81.2256 49.2908 81.4026 48.8385C81.5894 48.3863 81.8451 47.993 82.1695 47.6587C82.494 47.3146 82.8725 47.0491 83.3051 46.8623C83.7475 46.6657 84.2244 46.5674 84.7356 46.5674C85.2666 46.5674 85.7533 46.6755 86.1957 46.8918C86.648 47.1081 87.0068 47.4129 87.2723 47.8062V43.5735H88.5259ZM87.346 50.3133C87.346 49.9495 87.2821 49.6103 87.1543 49.2957C87.0363 48.9811 86.8643 48.7107 86.6381 48.4846C86.4218 48.2486 86.1613 48.0667 85.8565 47.9389C85.5615 47.8013 85.2371 47.7324 84.8831 47.7324C84.5292 47.7324 84.1998 47.8013 83.895 47.9389C83.6001 48.0667 83.3395 48.2486 83.1134 48.4846C82.8971 48.7107 82.725 48.9811 82.5972 49.2957C82.4792 49.6103 82.4202 49.9495 82.4202 50.3133C82.4202 50.6771 82.4792 51.0163 82.5972 51.3309C82.725 51.6456 82.8971 51.9208 83.1134 52.1568C83.3395 52.3829 83.6001 52.5648 83.895 52.7025C84.1998 52.8303 84.5292 52.8942 84.8831 52.8942C85.2371 52.8942 85.5615 52.8303 85.8565 52.7025C86.1613 52.5648 86.4218 52.3829 86.6381 52.1568C86.8643 51.9208 87.0363 51.6456 87.1543 51.3309C87.2821 51.0163 87.346 50.6771 87.346 50.3133ZM92.3747 44.6059C92.3747 44.8419 92.2911 45.0434 92.124 45.2106C91.9569 45.3777 91.7553 45.4613 91.5193 45.4613C91.2834 45.4613 91.0818 45.3777 90.9147 45.2106C90.7475 45.0434 90.664 44.8419 90.664 44.6059C90.664 44.3699 90.7475 44.1684 90.9147 44.0012C91.0818 43.8341 91.2834 43.7505 91.5193 43.7505C91.7553 43.7505 91.9569 43.8341 92.124 44.0012C92.2911 44.1684 92.3747 44.3699 92.3747 44.6059ZM92.1535 46.7296V53.8971H90.8852V46.7296H92.1535ZM99.5436 46.7296H100.812V53.8971H99.5436V52.8647C99.3174 53.2187 99.0176 53.5087 98.644 53.7348C98.2703 53.9511 97.8132 54.0593 97.2724 54.0593C96.358 54.0593 95.6501 53.7791 95.1487 53.2187C94.6571 52.6484 94.4113 51.8864 94.4113 50.9327V46.7296H95.6796V50.7853C95.6796 51.4342 95.8369 51.9454 96.1516 52.319C96.4662 52.6927 96.9283 52.8795 97.5379 52.8795C98.1474 52.8795 98.6341 52.6632 98.9979 52.2306C99.3617 51.7979 99.5436 51.2129 99.5436 50.4756V46.7296ZM104.655 53.8971H103.386V46.7296H104.64V47.7619C104.837 47.3883 105.112 47.0983 105.466 46.8918C105.82 46.6755 106.247 46.5674 106.749 46.5674C107.28 46.5674 107.732 46.6903 108.106 46.9361C108.489 47.1819 108.789 47.526 109.005 47.9684C109.094 47.8209 109.207 47.6636 109.344 47.4965C109.482 47.3293 109.649 47.1769 109.846 47.0393C110.052 46.9016 110.283 46.7886 110.539 46.7001C110.805 46.6116 111.109 46.5674 111.453 46.5674C112.289 46.5674 112.938 46.8377 113.4 47.3785C113.862 47.9192 114.093 48.6517 114.093 49.5759V53.8971H112.825V49.7971C112.825 49.1581 112.687 48.6566 112.412 48.2929C112.147 47.9192 111.743 47.7324 111.203 47.7324C110.642 47.7324 110.195 47.9487 109.861 48.3813C109.536 48.814 109.374 49.399 109.374 50.1363V53.8971H108.106V49.8266C108.106 49.1777 107.968 48.6665 107.693 48.2929C107.417 47.9192 107.014 47.7324 106.483 47.7324C105.923 47.7324 105.476 47.9487 105.141 48.3813C104.817 48.814 104.655 49.399 104.655 50.1363V53.8971Z" fill="#7968FA"></path>
									</g>
									<defs>
										<clipPath id="clip0_13837_52635">
											<rect width="116" height="56" fill="white"></rect>
										</clipPath>
									</defs>
								</svg>