<svg width="157" height="27" viewBox="0 0 157 27" fill="none" xmlns="http://www.w3.org/2000/svg">
<circle cx="18.5997" cy="9.29651" r="9.25989" fill="url(#paint0_linear_2938_7257)"/>
<path fill-rule="evenodd" clip-rule="evenodd" d="M7.0832 8.23535H6C2.68629 8.23535 0 10.9216 0 14.2354V20.9746C0 24.2883 2.6863 26.9746 6 26.9746H12.7392C16.0049 26.9746 18.6612 24.3656 18.7375 21.1183C18.7375 21.1183 18.7374 21.1183 18.7374 21.1183C12.269 21.1183 7.02539 15.8747 7.02539 9.40634C7.02539 9.01113 7.04497 8.6205 7.0832 8.23535ZM9.44026 8.23535C9.39243 8.61896 9.36779 9.00978 9.36779 9.40634C9.36779 14.581 13.5627 18.7759 18.7374 18.7759C18.738 18.7759 18.7386 18.7759 18.7392 18.7759V14.2354C18.7392 10.9216 16.0529 8.23535 12.7392 8.23535H9.44026Z" fill="url(#paint1_linear_2938_7257)"/>
<path fill-rule="evenodd" clip-rule="evenodd" d="M18.7392 18.7756C13.5652 18.7747 9.37109 14.5801 9.37109 9.40595C9.37109 9.00952 9.39571 8.61884 9.44351 8.23535H12.7392C16.0529 8.23535 18.7392 10.9216 18.7392 14.2354V18.7756Z" fill="#9281F8"/>
<path d="M37.4347 21V6.45455H42.8892C44.0066 6.45455 44.9441 6.64867 45.7017 7.03693C46.464 7.42519 47.0393 7.9697 47.4276 8.67045C47.8205 9.36648 48.017 10.1785 48.017 11.1065C48.017 12.0393 47.8182 12.849 47.4205 13.5355C47.0275 14.2173 46.4474 14.7453 45.6804 15.1193C44.9134 15.4886 43.9711 15.6733 42.8537 15.6733H38.9688V13.4858H42.4986C43.152 13.4858 43.687 13.3958 44.1037 13.2159C44.5204 13.0312 44.8281 12.7637 45.027 12.4134C45.2306 12.0582 45.3324 11.6226 45.3324 11.1065C45.3324 10.5904 45.2306 10.1501 45.027 9.78551C44.8234 9.41619 44.5133 9.13684 44.0966 8.94744C43.6799 8.75331 43.1425 8.65625 42.4844 8.65625H40.0696V21H37.4347ZM44.9489 14.4091L48.5497 21H45.6094L42.0724 14.4091H44.9489ZM54.6021 21.2131C53.5084 21.2131 52.5638 20.9858 51.7683 20.5312C50.9776 20.072 50.3692 19.4233 49.943 18.5852C49.5169 17.7424 49.3038 16.7505 49.3038 15.6094C49.3038 14.4872 49.5169 13.5024 49.943 12.6548C50.3739 11.8026 50.9752 11.1397 51.747 10.6662C52.5188 10.188 53.4255 9.94886 54.4672 9.94886C55.1395 9.94886 55.774 10.0578 56.3706 10.2756C56.9719 10.4886 57.5022 10.8201 57.9615 11.2699C58.4255 11.7197 58.7901 12.2926 59.0553 12.9886C59.3204 13.6799 59.453 14.5038 59.453 15.4602V16.2486H50.5112V14.5156H56.9885C56.9838 14.0232 56.8772 13.5852 56.6689 13.2017C56.4606 12.8134 56.1694 12.508 55.7953 12.2855C55.426 12.063 54.9951 11.9517 54.5027 11.9517C53.9771 11.9517 53.5155 12.0795 53.1178 12.3352C52.72 12.5862 52.4099 12.9176 52.1874 13.3295C51.9696 13.7367 51.8583 14.1842 51.8536 14.6719V16.1847C51.8536 16.8191 51.9696 17.3636 52.2016 17.8182C52.4336 18.268 52.7579 18.6136 53.1746 18.8551C53.5912 19.0919 54.0789 19.2102 54.6376 19.2102C55.0117 19.2102 55.3502 19.1581 55.6533 19.054C55.9563 18.9451 56.2191 18.7865 56.4416 18.5781C56.6642 18.3698 56.8322 18.1117 56.9459 17.804L59.3464 18.0739C59.1949 18.7083 58.9061 19.2623 58.48 19.7358C58.0586 20.2045 57.5188 20.5691 56.8607 20.8295C56.2025 21.0852 55.4497 21.2131 54.6021 21.2131ZM63.7991 6.45455V21H61.2281V6.45455H63.7991ZM70.8724 21.2131C69.7787 21.2131 68.8341 20.9858 68.0386 20.5312C67.2479 20.072 66.6395 19.4233 66.2134 18.5852C65.7872 17.7424 65.5741 16.7505 65.5741 15.6094C65.5741 14.4872 65.7872 13.5024 66.2134 12.6548C66.6442 11.8026 67.2455 11.1397 68.0173 10.6662C68.7891 10.188 69.6958 9.94886 70.7375 9.94886C71.4098 9.94886 72.0443 10.0578 72.6409 10.2756C73.2422 10.4886 73.7725 10.8201 74.2318 11.2699C74.6958 11.7197 75.0604 12.2926 75.3256 12.9886C75.5907 13.6799 75.7233 14.5038 75.7233 15.4602V16.2486H66.7815V14.5156H73.2588C73.2541 14.0232 73.1475 13.5852 72.9392 13.2017C72.7309 12.8134 72.4397 12.508 72.0656 12.2855C71.6963 12.063 71.2654 11.9517 70.773 11.9517C70.2474 11.9517 69.7858 12.0795 69.3881 12.3352C68.9903 12.5862 68.6802 12.9176 68.4577 13.3295C68.2399 13.7367 68.1286 14.1842 68.1239 14.6719V16.1847C68.1239 16.8191 68.2399 17.3636 68.4719 17.8182C68.7039 18.268 69.0282 18.6136 69.4449 18.8551C69.8616 19.0919 70.3492 19.2102 70.908 19.2102C71.282 19.2102 71.6205 19.1581 71.9236 19.054C72.2266 18.9451 72.4894 18.7865 72.7119 18.5781C72.9345 18.3698 73.1026 18.1117 73.2162 17.804L75.6168 18.0739C75.4652 18.7083 75.1764 19.2623 74.7503 19.7358C74.3289 20.2045 73.7891 20.5691 73.131 20.8295C72.4728 21.0852 71.72 21.2131 70.8724 21.2131ZM86.9302 10.0909L83.0452 21H80.2043L76.3194 10.0909H79.0609L81.568 18.1946H81.6816L84.1958 10.0909H86.9302ZM91.136 21.2202C90.4447 21.2202 89.8221 21.0971 89.2681 20.8509C88.7189 20.5999 88.2833 20.2306 87.9613 19.7429C87.6441 19.2552 87.4854 18.6539 87.4854 17.9389C87.4854 17.3234 87.5991 16.8144 87.8263 16.4119C88.0536 16.0095 88.3638 15.6875 88.7567 15.446C89.1497 15.2045 89.5924 15.0223 90.0849 14.8991C90.582 14.7713 91.0958 14.679 91.6261 14.6222C92.2653 14.5559 92.7837 14.4967 93.1815 14.4446C93.5792 14.3878 93.868 14.3026 94.0479 14.1889C94.2326 14.0705 94.3249 13.8883 94.3249 13.642V13.5994C94.3249 13.0644 94.1663 12.6501 93.8491 12.3565C93.5318 12.063 93.0749 11.9162 92.4783 11.9162C91.8486 11.9162 91.3491 12.0535 90.9798 12.3281C90.6152 12.6027 90.369 12.9271 90.2411 13.3011L87.8406 12.9602C88.0299 12.2973 88.3424 11.7434 88.7781 11.2983C89.2137 10.8485 89.7463 10.5123 90.3761 10.2898C91.0058 10.0625 91.7018 9.94886 92.4641 9.94886C92.9897 9.94886 93.5129 10.0104 94.0337 10.1335C94.5546 10.2566 95.0304 10.4602 95.4613 10.7443C95.8922 11.0237 96.2378 11.4048 96.4982 11.8878C96.7634 12.3707 96.896 12.9744 96.896 13.6989V21H94.4244V19.5014H94.3391C94.1829 19.8045 93.9627 20.0885 93.6786 20.3537C93.3993 20.6141 93.0465 20.8248 92.6204 20.9858C92.199 21.142 91.7042 21.2202 91.136 21.2202ZM91.8036 19.331C92.3197 19.331 92.7672 19.2292 93.146 19.0256C93.5247 18.8172 93.8159 18.5426 94.0195 18.2017C94.2279 17.8608 94.332 17.4891 94.332 17.0866V15.8011C94.2515 15.8674 94.1142 15.929 93.9201 15.9858C93.7307 16.0426 93.5176 16.0923 93.2809 16.1349C93.0442 16.1776 92.8098 16.2154 92.5778 16.2486C92.3458 16.2817 92.1445 16.3101 91.9741 16.3338C91.5906 16.3859 91.2473 16.4711 90.9442 16.5895C90.6412 16.7079 90.4021 16.8736 90.2269 17.0866C90.0517 17.295 89.9641 17.5649 89.9641 17.8963C89.9641 18.3698 90.137 18.7273 90.4826 18.9688C90.8282 19.2102 91.2686 19.331 91.8036 19.331ZM101.652 14.608V21H99.0812V10.0909H101.539V11.9446H101.666C101.917 11.3338 102.317 10.8485 102.867 10.4886C103.421 10.1288 104.105 9.94886 104.919 9.94886C105.672 9.94886 106.328 10.1098 106.887 10.4318C107.45 10.7538 107.886 11.2202 108.193 11.831C108.506 12.4418 108.66 13.1828 108.655 14.054V21H106.084V14.4517C106.084 13.7225 105.895 13.152 105.516 12.7401C105.142 12.3281 104.623 12.1222 103.96 12.1222C103.511 12.1222 103.111 12.2216 102.76 12.4205C102.415 12.6146 102.142 12.8963 101.943 13.2656C101.749 13.6349 101.652 14.0824 101.652 14.608ZM115.627 21.2131C114.538 21.2131 113.603 20.974 112.822 20.4957C112.045 20.0175 111.446 19.357 111.025 18.5142C110.608 17.6667 110.4 16.6913 110.4 15.5881C110.4 14.4801 110.613 13.5024 111.039 12.6548C111.465 11.8026 112.067 11.1397 112.843 10.6662C113.624 10.188 114.548 9.94886 115.613 9.94886C116.498 9.94886 117.282 10.1122 117.964 10.4389C118.65 10.7609 119.197 11.2178 119.604 11.8097C120.012 12.3968 120.244 13.0833 120.3 13.8693H117.843C117.744 13.3437 117.507 12.9058 117.133 12.5554C116.764 12.2003 116.269 12.0227 115.649 12.0227C115.123 12.0227 114.661 12.1648 114.264 12.4489C113.866 12.7282 113.556 13.1307 113.333 13.6562C113.115 14.1818 113.006 14.8116 113.006 15.5455C113.006 16.2888 113.115 16.928 113.333 17.4631C113.551 17.9934 113.856 18.4029 114.249 18.6918C114.647 18.9759 115.113 19.1179 115.649 19.1179C116.027 19.1179 116.366 19.0469 116.664 18.9048C116.967 18.758 117.22 18.5473 117.424 18.2727C117.628 17.9981 117.767 17.6643 117.843 17.2713H120.3C120.239 18.0431 120.012 18.7273 119.619 19.3239C119.226 19.9157 118.691 20.3797 118.014 20.7159C117.336 21.0473 116.541 21.2131 115.627 21.2131ZM126.841 21.2131C125.747 21.2131 124.803 20.9858 124.007 20.5312C123.217 20.072 122.608 19.4233 122.182 18.5852C121.756 17.7424 121.543 16.7505 121.543 15.6094C121.543 14.4872 121.756 13.5024 122.182 12.6548C122.613 11.8026 123.214 11.1397 123.986 10.6662C124.758 10.188 125.665 9.94886 126.706 9.94886C127.379 9.94886 128.013 10.0578 128.61 10.2756C129.211 10.4886 129.741 10.8201 130.201 11.2699C130.665 11.7197 131.029 12.2926 131.294 12.9886C131.559 13.6799 131.692 14.5038 131.692 15.4602V16.2486H122.75V14.5156H129.228C129.223 14.0232 129.116 13.5852 128.908 13.2017C128.7 12.8134 128.408 12.508 128.034 12.2855C127.665 12.063 127.234 11.9517 126.742 11.9517C126.216 11.9517 125.755 12.0795 125.357 12.3352C124.959 12.5862 124.649 12.9176 124.426 13.3295C124.209 13.7367 124.097 14.1842 124.093 14.6719V16.1847C124.093 16.8191 124.209 17.3636 124.441 17.8182C124.673 18.268 124.997 18.6136 125.414 18.8551C125.83 19.0919 126.318 19.2102 126.877 19.2102C127.251 19.2102 127.589 19.1581 127.892 19.054C128.195 18.9451 128.458 18.7865 128.681 18.5781C128.903 18.3698 129.071 18.1117 129.185 17.804L131.586 18.0739C131.434 18.7083 131.145 19.2623 130.719 19.7358C130.298 20.2045 129.758 20.5691 129.1 20.8295C128.442 21.0852 127.689 21.2131 126.841 21.2131ZM140.01 21H137.197L142.318 6.45455H145.571L150.699 21H147.886L144.001 9.4375H143.887L140.01 21ZM140.102 15.2969H147.772V17.4134H140.102V15.2969ZM154.849 6.45455V21H152.214V6.45455H154.849Z" fill="#0D162F"/>
<defs>
<linearGradient id="paint0_linear_2938_7257" x1="13.5005" y1="15" x2="28.0005" y2="7.5" gradientUnits="userSpaceOnUse">
<stop stop-color="#E2DBFF"/>
<stop offset="1" stop-color="#DBEBFF"/>
</linearGradient>
<linearGradient id="paint1_linear_2938_7257" x1="13" y1="8" x2="9.36961" y2="26.9746" gradientUnits="userSpaceOnUse">
<stop stop-color="#9646E5"/>
<stop offset="1" stop-color="#4F46E5"/>
</linearGradient>
</defs>
</svg>
