<svg class="logo" xmlns="http://www.w3.org/2000/svg" width="117" height="28" viewBox="0 0 117 28" fill="none" role="presentation">
  <path d="M29.4945 24.0801C27.9755 25.7741 26.0785 27.1251 23.94 28.0001H33.572L36.4735 24.0801H29.4945Z" fill="#191B2E"></path>
  <path d="M18.235 0C10.5035 0 4.235 6.2685 4.235 14C4.235 17.409 5.46 20.531 7.4865 22.96H13.6255C10.381 21.2835 8.155 17.899 8.155 14C8.155 8.442 12.677 3.92 18.235 3.92C23.793 3.92 28.315 8.442 28.315 14C28.315 19.558 23.793 24.08 18.235 24.08H8.526H2.9015L0 28H18.235C25.9665 28 32.235 21.7315 32.235 14C32.235 6.2685 25.97 0 18.235 0Z" fill="#191B2E"></path>
  <path d="M38.892 19.488V8.51196H43.078C43.8305 8.51196 44.4955 8.64146 45.0695 8.90396C45.6435 9.16646 46.095 9.53746 46.417 10.024C46.739 10.5105 46.9035 11.088 46.9035 11.7565C46.9035 12.488 46.704 13.1005 46.3085 13.5905C45.913 14.0805 45.3635 14.4305 44.6635 14.6405L47.6595 19.4845H44.807L42.189 15.015H41.3735V19.4845H38.8955L38.892 19.488ZM41.37 12.9185H43.0325C43.421 12.9185 43.708 12.859 43.904 12.74C44.1 12.621 44.2295 12.4705 44.303 12.292C44.3765 12.1135 44.4115 11.9385 44.4115 11.76C44.4115 11.5815 44.373 11.4065 44.303 11.235C44.2295 11.0635 44.0965 10.92 43.904 10.8045C43.7115 10.689 43.421 10.633 43.0325 10.633H41.37V12.922V12.9185Z" fill="#191B2E"></path>
  <path d="M53.585 19.677C52.5595 19.677 51.7195 19.474 51.0615 19.0645C50.4035 18.6585 49.917 18.1125 49.602 17.4335C49.287 16.7545 49.133 16.002 49.133 15.176V8.51196H51.5935V15.19C51.5935 15.9005 51.765 16.4465 52.1115 16.828C52.458 17.2095 52.962 17.402 53.634 17.402C54.306 17.402 54.803 17.213 55.1635 16.828C55.524 16.4465 55.706 15.9005 55.706 15.19V8.51196H58.1665V15.176C58.1665 16.0335 58.0265 16.751 57.743 17.325C57.4595 17.899 57.092 18.361 56.637 18.704C56.182 19.0505 55.685 19.299 55.146 19.4495C54.607 19.6 54.0855 19.677 53.585 19.677Z" fill="#191B2E"></path>
  <path d="M60.984 19.488V8.51196H63.462L68.152 15.428V8.51196H70.63V19.488H68.152L63.462 12.6035V19.488H60.984Z" fill="#191B2E"></path>
  <path d="M73.7975 19.488V8.51196H76.2755V17.339H80.759V19.488H73.7975Z" fill="#191B2E"></path>
  <path d="M87.5315 19.677C86.779 19.677 86.0615 19.5475 85.3755 19.285C84.6895 19.0225 84.0805 18.648 83.5415 18.1545C83.0025 17.6645 82.579 17.066 82.271 16.366C81.963 15.666 81.809 14.875 81.809 14C81.809 13.125 81.963 12.334 82.271 11.634C82.579 10.934 83.0025 10.339 83.5415 9.8455C84.0805 9.3555 84.693 8.9775 85.3755 8.715C86.0615 8.4525 86.779 8.323 87.5315 8.323C88.284 8.323 89.005 8.4525 89.6945 8.715C90.384 8.9775 90.9965 9.352 91.5355 9.8455C92.0745 10.3355 92.5015 10.934 92.813 11.634C93.128 12.334 93.282 13.125 93.282 14C93.282 14.875 93.1245 15.666 92.813 16.366C92.5015 17.066 92.0745 17.661 91.5355 18.1545C90.9965 18.6445 90.384 19.0225 89.6945 19.285C89.005 19.5475 88.284 19.677 87.5315 19.677ZM87.5315 17.4335C88.0425 17.4335 88.5465 17.3075 89.0365 17.0555C89.5265 16.8035 89.9325 16.4255 90.251 15.918C90.5695 15.4105 90.7305 14.77 90.7305 13.9965C90.7305 13.223 90.5695 12.5685 90.244 12.061C89.9185 11.5535 89.5125 11.179 89.0225 10.9305C88.5325 10.6855 88.0355 10.563 87.5315 10.563C87.0275 10.563 86.5375 10.6855 86.051 10.9305C85.5645 11.1755 85.162 11.5535 84.8435 12.061C84.525 12.5685 84.364 13.2125 84.364 13.9965C84.364 14.7805 84.5215 15.4105 84.833 15.918C85.148 16.4255 85.547 16.8035 86.0335 17.0555C86.52 17.3075 87.017 17.4335 87.5315 17.4335Z" fill="#191B2E"></path>
  <path d="M100.782 19.677C100.03 19.677 99.3125 19.5475 98.6265 19.285C97.9405 19.0225 97.3315 18.648 96.7925 18.1545C96.2535 17.6645 95.83 17.066 95.522 16.366C95.214 15.666 95.06 14.875 95.06 14C95.06 13.125 95.214 12.334 95.522 11.634C95.83 10.934 96.2535 10.339 96.7925 9.8455C97.3315 9.3555 97.944 8.9775 98.6265 8.715C99.3125 8.4525 100.03 8.323 100.782 8.323C101.535 8.323 102.256 8.4525 102.945 8.715C103.635 8.9775 104.248 9.352 104.787 9.8455C105.326 10.3355 105.752 10.934 106.064 11.634C106.379 12.334 106.533 13.125 106.533 14C106.533 14.875 106.375 15.666 106.064 16.366C105.752 17.066 105.326 17.661 104.787 18.1545C104.248 18.6445 103.635 19.0225 102.945 19.285C102.256 19.5475 101.535 19.677 100.782 19.677ZM100.782 17.4335C101.293 17.4335 101.797 17.3075 102.287 17.0555C102.777 16.8035 103.183 16.4255 103.502 15.918C103.82 15.4105 103.981 14.77 103.981 13.9965C103.981 13.223 103.82 12.5685 103.495 12.061C103.169 11.5535 102.763 11.179 102.273 10.9305C101.783 10.6855 101.286 10.563 100.782 10.563C100.278 10.563 99.7885 10.6855 99.302 10.9305C98.8155 11.1755 98.413 11.5535 98.0945 12.061C97.776 12.5685 97.615 13.2125 97.615 13.9965C97.615 14.7805 97.7725 15.4105 98.084 15.918C98.399 16.4255 98.798 16.8035 99.2845 17.0555C99.771 17.3075 100.268 17.4335 100.782 17.4335Z" fill="#191B2E"></path>
  <path d="M108.542 19.488V8.51196H112.903C113.655 8.51196 114.334 8.64846 114.94 8.92146C115.545 9.19446 116.025 9.58646 116.375 10.0975C116.725 10.6085 116.9 11.221 116.9 11.9315C116.9 12.642 116.728 13.2405 116.389 13.7585C116.049 14.2765 115.577 14.6755 114.978 14.959C114.38 15.2425 113.683 15.3825 112.899 15.3825H111.016V19.4915H108.538L108.542 19.488ZM111.02 13.2615H112.84C113.424 13.2615 113.83 13.1285 114.054 12.8625C114.278 12.5965 114.39 12.285 114.39 11.928C114.39 11.592 114.278 11.2945 114.054 11.025C113.83 10.7555 113.424 10.626 112.84 10.626H111.02V13.2615Z" fill="#191B2E"></path>
</svg>