<svg width="1800" height="405" viewBox="0 0 1800 405" fill="none" xmlns="http://www.w3.org/2000/svg">
<path d="M145.9 24.842C120.826 38.4082 100.354 49.8014 100.472 50.0363C100.59 50.4474 190.502 98.4282 191.8 98.7805C192.331 98.9567 282.596 43.2826 282.596 42.8128C282.596 42.2842 193.098 -0.0586106 192.154 0.000117365C191.8 0.0588453 170.915 11.2172 145.9 24.842Z" fill="black"/>
<path d="M805.31 18.7342L773.156 36.8225L772.979 51.5632L772.861 66.3039H748.082H723.304V94.4933V122.683H748.082H772.802L773.038 187.107C773.215 255.819 773.215 254.703 776.165 267.741C783.776 301.333 805.723 323.591 838.348 330.815C856.755 334.867 882.537 333.927 903.304 328.524C907.669 327.35 921.77 322.651 922.596 322.064C922.832 321.829 904.956 267.447 904.425 266.919C904.13 266.625 901.829 267.271 898.997 268.446C878.643 277.079 858.525 275.728 847.964 264.981C843.953 260.87 840.354 253.705 839.233 247.48C838.525 243.604 838.407 232.034 838.348 182.761V122.683L875.103 122.565L911.799 122.389L911.976 94.3171L912.094 66.3039H875.516H838.938V33.4162C838.938 7.45848 838.761 0.528582 838.23 0.58731C837.817 0.646038 823.009 8.80922 805.31 18.7342Z" fill="black"/>
<path d="M1584.25 18.793L1551.62 37.0574V183.525V329.992H1584.66H1617.7L1617.82 270.442L1617.99 210.833L1669.68 270.266L1721.3 329.699L1760.65 329.875L1800 329.992V327.173V324.355L1738.94 257.405C1705.37 220.641 1677.93 190.22 1678.05 189.809C1678.11 189.456 1702.42 162.089 1732.04 129.084C1777.05 78.8717 1785.84 68.8293 1785.84 67.4198V65.7167H1746.37H1706.84L1662.42 118.454L1617.99 171.251L1617.82 85.8604C1617.76 38.9367 1617.52 0.528654 1617.23 0.528654C1616.99 0.528654 1602.12 8.75057 1584.25 18.793Z" fill="black"/>
<path d="M241.298 80.3399L193.216 110.761L192.862 143.884C192.685 162.089 192.449 211.538 192.39 253.705L192.331 330.404L240.708 358.123C267.375 373.334 289.263 385.784 289.381 385.784C289.558 385.784 289.676 360.707 289.676 330.11V274.436L241.298 248.361C214.69 233.972 192.921 222.109 192.921 221.933C192.921 221.757 214.749 209.424 241.475 194.507L289.971 167.433L290.148 108.647C290.207 76.2877 290.089 49.8601 289.853 49.9188C289.558 49.9188 267.729 63.6024 241.298 80.3399Z" fill="black"/>
<path d="M574.926 58.4344C564.012 59.3741 547.375 62.6041 537.463 65.7754C532.39 67.4198 522.478 71.7069 517.522 74.3497C494.101 87.0349 480 106.122 476.637 129.613C475.634 136.719 476.224 150.99 477.817 157.802C480.649 169.959 485.723 179.531 494.042 188.282C500.295 194.859 507.493 200.38 514.75 204.138C536.814 215.649 553.983 219.878 593.511 223.401C626.136 226.338 638.407 233.737 638.407 250.416C638.407 253.352 638.053 256.348 637.404 258.109C632.272 273.261 610.738 283.597 587.316 282.129C560.059 280.426 526.254 268.093 507.493 253C505.074 251.003 502.301 248.478 501.298 247.362C499.823 245.718 499.41 245.483 498.761 246.129C498.348 246.54 490.974 257.052 482.301 269.503L466.608 292.113L471.328 296.576C495.398 319.48 523.776 332.929 557.286 337.333C567.611 338.684 592.154 339.506 601.77 338.802C637.64 336.1 663.717 325.764 681.77 306.971C698.82 289.294 705.959 267.271 703.245 240.961C701.947 228.041 696.991 214.475 690.207 205.43C686.431 200.321 678.584 192.863 673.098 189.222C654.75 176.889 632.095 170.84 592.036 167.61C573.688 166.083 564.012 164.086 555.162 159.858C535.575 150.52 535.752 126.852 555.516 117.985C569.145 111.877 592.331 110.409 612.98 114.461C627.198 117.221 639.115 122.859 650.679 132.255C654.985 135.779 655.044 135.779 655.988 134.546C656.519 133.9 664.602 124.386 673.983 113.404C683.304 102.422 691.033 93.2014 691.033 92.9665C691.092 92.203 681.711 84.8033 675.457 80.6923C662.95 72.4117 650.089 66.7738 635.457 63.1327C622.183 59.7852 611.682 58.6106 593.511 58.3757C584.897 58.317 576.578 58.317 574.926 58.4344Z" fill="black"/>
<path d="M1405.31 58.6693C1355.87 63.3088 1316.58 87.7396 1296.81 126.148C1287.91 143.414 1283.24 160.504 1281.36 182.527C1280.47 192.804 1280.94 213.476 1282.3 223.108C1290.8 284.537 1331.45 325.823 1393.45 335.806C1416.52 339.565 1442.6 338.449 1462.71 332.929C1474.45 329.699 1487.55 323.943 1497.35 317.777C1505.49 312.609 1523.89 297.81 1523.89 296.4C1523.89 296.106 1517.7 289.823 1510.21 282.54C1502.65 275.258 1492.8 265.685 1488.38 261.339L1480.3 253.47L1478.17 255.173C1470.8 261.163 1467.37 263.454 1461.06 266.566C1452.86 270.618 1448.79 271.969 1439.82 273.614C1419.94 277.313 1397.94 274.318 1382.89 265.803C1361.48 253.764 1349.03 233.15 1346.9 206.076C1343.89 168.314 1362.3 136.836 1394.4 124.738C1407.26 119.923 1424.25 118.513 1437.52 121.215C1450.32 123.857 1463.66 130.082 1473.22 138.069C1474.69 139.303 1476.05 140.301 1476.22 140.301C1476.93 140.301 1517.11 97.8996 1517.11 97.1948C1517.11 96.7837 1515.28 94.7283 1512.98 92.6728C1492.39 73.8798 1470.97 63.4263 1444.84 59.5502C1436.93 58.3757 1414.04 57.8471 1405.31 58.6693Z" fill="black"/>
<path d="M1066.9 59.9026C1002.42 66.069 958.23 107.002 948.732 169.195C945.487 190.22 945.782 211.714 949.558 232.21C959.292 284.713 991.741 320.42 1041.36 333.164C1061.83 338.391 1085.78 339.448 1102.95 335.865C1120.65 332.165 1136.17 325.353 1149.32 315.487C1156.76 309.966 1164.66 300.981 1168.2 294.168C1169.26 292.172 1169.62 291.819 1169.73 292.7C1169.91 294.11 1172.86 328.7 1172.86 329.464C1172.86 329.757 1185.84 329.992 1203.83 329.992H1234.81V197.855V65.7166H1203.24H1171.68V67.0086C1171.68 68.4181 1169.97 97.8408 1169.73 100.366C1169.62 101.599 1169.2 101.188 1166.73 97.4297C1162.83 91.5569 1153.22 82.1605 1146.43 77.5797C1132.45 68.0658 1115.04 61.7231 1097.82 59.9026C1091.33 59.1978 1074.16 59.1978 1066.9 59.9026ZM1105.96 118.924C1122.36 121.391 1138.53 130.317 1148.73 142.474C1153.22 147.76 1156.7 152.81 1158.88 157.156C1174.99 188.81 1170.38 229.098 1147.91 254.057C1133.81 269.738 1114.93 277.725 1091.62 277.783C1068.5 277.842 1049.56 270.618 1035.04 256.113C1020.06 241.196 1012.39 221.287 1012.39 197.209C1012.39 157.508 1035.1 127.792 1071.62 119.688C1081.95 117.397 1094.22 117.104 1105.96 118.924Z" fill="black"/>
<path d="M49.6755 197.326C23.6578 213.359 2.18286 226.631 2.00587 226.749C1.82888 226.925 17.5811 235.852 36.9911 246.599C56.4011 257.405 78.525 269.679 86.1946 273.907L100.118 281.659L145.782 252.06C170.914 235.793 191.504 222.285 191.622 221.992C191.74 221.581 165.959 206.899 102.655 171.309L97.0501 168.138L49.6755 197.326Z" fill="black"/>
<path d="M348.849 245.6L300.295 275.61V331.05C300.295 361.529 300.531 386.371 300.767 386.254C301.062 386.195 322.95 373.157 349.439 357.36L397.64 328.642V272.087C397.64 240.961 397.581 215.473 397.522 215.532C397.404 215.532 375.516 229.039 348.849 245.6Z" fill="black"/>
<path d="M0 295.813V351.487L48.1416 377.856C74.6313 392.42 96.5782 404.401 96.8141 404.459C97.1091 404.577 97.2861 380.44 97.2271 348.785L97.0501 292.876L48.9675 266.507C22.5369 252.002 0.707965 240.139 0.471976 240.139C0.176991 240.139 0 265.157 0 295.813Z" fill="black"/>
</svg>
