<svg width="1936" height="445" viewBox="0 0 1936 445" fill="none" xmlns="http://www.w3.org/2000/svg">
<path d="M1804 215.131V296.68H1783.17V161.118H1803.29V182.3H1805.06C1808.23 175.416 1813.06 169.885 1819.53 165.708C1826 161.471 1834.36 159.353 1844.59 159.353C1853.77 159.353 1861.8 161.236 1868.69 165.001C1875.57 168.708 1880.93 174.357 1884.75 181.947C1888.58 189.478 1890.49 199.01 1890.49 210.542V296.68H1869.66V211.954C1869.66 201.304 1866.89 193.008 1861.36 187.066C1855.83 181.064 1848.24 178.063 1838.59 178.063C1831.94 178.063 1826 179.505 1820.77 182.388C1815.59 185.271 1811.5 189.478 1808.5 195.009C1805.5 200.539 1804 207.247 1804 215.131Z" fill="#666666"/>
<path d="M1695.35 299.505C1682.29 299.505 1671.02 296.622 1661.55 290.856C1652.14 285.031 1644.87 276.911 1639.75 266.497C1634.69 256.024 1632.16 243.844 1632.16 229.958C1632.16 216.073 1634.69 203.834 1639.75 193.244C1644.87 182.594 1651.99 174.298 1661.11 168.355C1670.29 162.354 1681 159.353 1693.24 159.353C1700.3 159.353 1707.27 160.53 1714.15 162.883C1721.04 165.237 1727.3 169.061 1732.95 174.357C1738.6 179.593 1743.1 186.536 1746.45 195.185C1749.81 203.834 1751.49 214.484 1751.49 227.134V235.96H1646.99V217.955H1730.3C1730.3 210.307 1728.77 203.481 1725.71 197.48C1722.71 191.478 1718.42 186.742 1712.83 183.271C1707.3 179.799 1700.77 178.063 1693.24 178.063C1684.94 178.063 1677.76 180.123 1671.7 184.241C1665.7 188.301 1661.08 193.597 1657.84 200.128C1654.61 206.659 1652.99 213.66 1652.99 221.133V233.136C1652.99 243.373 1654.76 252.052 1658.29 259.171C1661.88 266.232 1666.85 271.616 1673.2 275.322C1679.56 278.97 1686.94 280.794 1695.35 280.794C1700.83 280.794 1705.77 280.029 1710.18 278.5C1714.65 276.911 1718.51 274.557 1721.74 271.439C1724.98 268.262 1727.48 264.32 1729.24 259.613L1749.37 265.261C1747.25 272.086 1743.69 278.088 1738.69 283.265C1733.69 288.384 1727.51 292.385 1720.15 295.268C1712.8 298.093 1704.53 299.505 1695.35 299.505Z" fill="#666666"/>
<path d="M1615.88 161.118L1565.75 296.68H1544.57L1494.44 161.118H1517.03L1554.45 269.144H1555.86L1593.29 161.118H1615.88Z" fill="#666666"/>
<path d="M1409.73 299.858C1401.14 299.858 1393.35 298.24 1386.34 295.004C1379.34 291.709 1373.78 286.972 1369.66 280.794C1365.55 274.557 1363.49 267.026 1363.49 258.201C1363.49 250.434 1365.02 244.138 1368.08 239.314C1371.14 234.43 1375.22 230.606 1380.34 227.84C1385.46 225.075 1391.11 223.016 1397.29 221.662C1403.53 220.25 1409.79 219.132 1416.09 218.309C1424.32 217.249 1431 216.455 1436.12 215.926C1441.3 215.337 1445.06 214.366 1447.42 213.013C1449.83 211.66 1451.04 209.306 1451.04 205.953V205.247C1451.04 196.539 1448.65 189.772 1443.89 184.947C1439.18 180.123 1432.03 177.71 1422.44 177.71C1412.5 177.71 1404.7 179.887 1399.05 184.241C1393.41 188.595 1389.43 193.244 1387.14 198.186L1367.37 191.125C1370.9 182.888 1375.61 176.475 1381.49 171.885C1387.43 167.237 1393.91 164.001 1400.91 162.177C1407.97 160.294 1414.91 159.353 1421.74 159.353C1426.09 159.353 1431.09 159.883 1436.74 160.942C1442.45 161.942 1447.95 164.031 1453.24 167.208C1458.6 170.385 1463.04 175.18 1466.57 181.594C1470.1 188.007 1471.87 196.597 1471.87 207.365V296.68H1451.04V278.323H1449.98C1448.57 281.265 1446.21 284.413 1442.92 287.767C1439.62 291.12 1435.24 293.974 1429.77 296.327C1424.3 298.681 1417.62 299.858 1409.73 299.858ZM1412.91 281.147C1421.15 281.147 1428.09 279.529 1433.74 276.293C1439.45 273.057 1443.74 268.88 1446.62 263.761C1449.57 258.642 1451.04 253.258 1451.04 247.61V228.546C1450.15 229.605 1448.21 230.576 1445.21 231.459C1442.27 232.282 1438.86 233.018 1434.97 233.665C1431.15 234.254 1427.41 234.783 1423.77 235.254C1420.18 235.666 1417.26 236.019 1415.03 236.313C1409.62 237.019 1404.56 238.166 1399.85 239.755C1395.2 241.285 1391.43 243.609 1388.55 246.727C1385.73 249.787 1384.31 253.964 1384.31 259.26C1384.31 266.497 1386.99 271.969 1392.35 275.675C1397.76 279.323 1404.61 281.147 1412.91 281.147Z" fill="#666666"/>
<path d="M1153.83 296.68V161.118H1173.95V182.3H1175.72C1178.54 175.063 1183.1 169.444 1189.4 165.443C1195.7 161.383 1203.26 159.353 1212.08 159.353C1221.02 159.353 1228.47 161.383 1234.41 165.443C1240.41 169.444 1245.09 175.063 1248.44 182.3H1249.86C1253.33 175.298 1258.53 169.738 1265.48 165.619C1272.42 161.442 1280.75 159.353 1290.45 159.353C1302.57 159.353 1312.49 163.148 1320.2 170.738C1327.9 178.269 1331.76 190.008 1331.76 205.953V296.68H1310.93V205.953C1310.93 195.95 1308.19 188.801 1302.72 184.506C1297.25 180.211 1290.81 178.063 1283.39 178.063C1273.86 178.063 1266.48 180.946 1261.24 186.713C1256 192.42 1253.39 199.657 1253.39 208.424V296.68H1232.2V203.834C1232.2 196.127 1229.7 189.919 1224.7 185.212C1219.7 180.446 1213.26 178.063 1205.37 178.063C1199.96 178.063 1194.9 179.505 1190.19 182.388C1185.55 185.271 1181.78 189.272 1178.9 194.391C1176.07 199.451 1174.66 205.305 1174.66 211.954V296.68H1153.83Z" fill="#666666"/>
<path d="M1061.36 296.68V161.118H1081.48V181.594H1082.9C1085.37 174.886 1089.84 169.444 1096.31 165.266C1102.78 161.089 1110.08 159 1118.2 159C1119.73 159 1121.64 159.029 1123.94 159.088C1126.23 159.147 1127.97 159.235 1129.14 159.353V180.535C1128.44 180.358 1126.82 180.093 1124.29 179.74C1121.82 179.328 1119.2 179.123 1116.43 179.123C1109.84 179.123 1103.96 180.505 1098.78 183.271C1093.66 185.977 1089.6 189.743 1086.6 194.567C1083.66 199.333 1082.19 204.776 1082.19 210.895V296.68H1061.36Z" fill="#666666"/>
<path d="M973.545 299.505C960.483 299.505 949.216 296.622 939.743 290.856C930.329 285.031 923.063 276.911 917.944 266.497C912.884 256.024 910.354 243.844 910.354 229.958C910.354 216.073 912.884 203.834 917.944 193.244C923.063 182.594 930.182 174.298 939.302 168.355C948.48 162.354 959.189 159.353 971.427 159.353C978.488 159.353 985.46 160.53 992.344 162.883C999.228 165.237 1005.49 169.061 1011.14 174.357C1016.79 179.593 1021.29 186.536 1024.65 195.185C1028 203.834 1029.68 214.484 1029.68 227.134V235.96H925.181V217.955H1008.5C1008.5 210.307 1006.97 203.481 1003.91 197.48C1000.9 191.478 996.61 186.742 991.02 183.271C985.489 179.799 978.958 178.063 971.427 178.063C963.131 178.063 955.953 180.123 949.893 184.241C943.891 188.301 939.272 193.597 936.036 200.128C932.8 206.659 931.182 213.66 931.182 221.133V233.136C931.182 243.373 932.947 252.052 936.478 259.171C940.067 266.232 945.038 271.616 951.393 275.322C957.747 278.97 965.132 280.794 973.545 280.794C979.017 280.794 983.96 280.029 988.372 278.5C992.844 276.911 996.698 274.557 999.934 271.439C1003.17 268.262 1005.67 264.32 1007.44 259.613L1027.56 265.261C1025.44 272.086 1021.88 278.088 1016.88 283.265C1011.88 288.384 1005.7 292.385 998.345 295.268C990.991 298.093 982.724 299.505 973.545 299.505Z" fill="#666666"/>
<path d="M765.26 347.516V161.118H785.382V182.653H787.853C789.383 180.299 791.501 177.299 794.208 173.651C796.973 169.944 800.915 166.649 806.034 163.766C811.212 160.824 818.214 159.353 827.039 159.353C838.454 159.353 848.515 162.207 857.223 167.914C865.931 173.621 872.727 181.711 877.611 192.185C882.494 202.658 884.936 215.014 884.936 229.252C884.936 243.609 882.494 256.053 877.611 266.585C872.727 277.058 865.961 285.178 857.312 290.944C848.662 296.651 838.689 299.505 827.392 299.505C818.684 299.505 811.712 298.063 806.476 295.18C801.239 292.238 797.209 288.914 794.384 285.207C791.56 281.441 789.383 278.323 787.853 275.852H786.088V347.516H765.26ZM785.735 228.899C785.735 239.137 787.236 248.169 790.236 255.994C793.237 263.761 797.621 269.85 803.387 274.263C809.153 278.617 816.213 280.794 824.568 280.794C833.276 280.794 840.543 278.5 846.368 273.91C852.251 269.262 856.664 263.025 859.606 255.2C862.607 247.316 864.107 238.549 864.107 228.899C864.107 219.368 862.636 210.777 859.694 203.128C856.811 195.421 852.428 189.331 846.544 184.859C840.719 180.329 833.394 178.063 824.568 178.063C816.096 178.063 808.976 180.211 803.21 184.506C797.444 188.743 793.09 194.685 790.148 202.334C787.206 209.924 785.735 218.779 785.735 228.899Z" fill="#666666"/>
<path d="M706.282 241.255V161.118H727.111V296.68H706.282V273.734H704.87C701.693 280.618 696.75 286.472 690.043 291.297C683.335 296.063 674.863 298.446 664.625 298.446C656.152 298.446 648.621 296.592 642.031 292.885C635.441 289.12 630.264 283.471 626.498 275.94C622.732 268.35 620.85 258.789 620.85 247.257V161.118H641.678V245.845C641.678 255.729 644.444 263.614 649.974 269.497C655.564 275.381 662.683 278.323 671.332 278.323C676.51 278.323 681.776 276.999 687.13 274.352C692.543 271.704 697.074 267.644 700.722 262.172C704.429 256.7 706.282 249.728 706.282 241.255Z" fill="#666666"/>
<path d="M587.025 191.478L568.314 196.774C567.138 193.655 565.402 190.625 563.107 187.683C560.871 184.683 557.812 182.212 553.928 180.27C550.045 178.328 545.073 177.357 539.013 177.357C530.717 177.357 523.804 179.27 518.273 183.094C512.801 186.86 510.065 191.655 510.065 197.48C510.065 202.658 511.948 206.747 515.713 209.748C519.479 212.748 525.363 215.249 533.365 217.249L553.487 222.192C565.608 225.134 574.639 229.635 580.582 235.695C586.525 241.697 589.496 249.434 589.496 258.907C589.496 266.673 587.26 273.616 582.788 279.735C578.376 285.854 572.198 290.679 564.255 294.209C556.311 297.74 547.074 299.505 536.542 299.505C522.715 299.505 511.271 296.504 502.21 290.503C493.149 284.501 487.412 275.734 485 264.202L504.77 259.26C506.652 266.556 510.212 272.027 515.449 275.675C520.744 279.323 527.657 281.147 536.189 281.147C545.897 281.147 553.605 279.088 559.312 274.969C565.078 270.792 567.961 265.791 567.961 259.966C567.961 255.259 566.314 251.317 563.019 248.139C559.724 244.903 554.664 242.491 547.839 240.902L525.245 235.607C512.83 232.665 503.71 228.105 497.885 221.927C492.119 215.69 489.236 207.894 489.236 198.539C489.236 190.89 491.384 184.124 495.679 178.24C500.033 172.356 505.946 167.737 513.419 164.384C520.95 161.03 529.481 159.353 539.013 159.353C552.428 159.353 562.96 162.295 570.609 168.179C578.317 174.062 583.789 181.829 587.025 191.478Z" fill="#666666"/>
<path d="M42 438C60.2254 438 75 423.225 75 405C75 386.775 60.2254 372 42 372C23.7746 372 9 386.775 9 405C9 423.225 23.7746 438 42 438Z" fill="#58C4FF"/>
<path fill-rule="evenodd" clip-rule="evenodd" d="M160 253.979L71.2355 421L13 390.021L101.765 223L160 253.979Z" fill="#58C4FF"/>
<path fill-rule="evenodd" clip-rule="evenodd" d="M191 55.9791L101.632 223L43 192.021L132.368 25L191 55.9791Z" fill="#58C4FF"/>
<path d="M161 73C179.225 73 194 58.2254 194 40C194 21.7746 179.225 7 161 7C142.775 7 128 21.7746 128 40C128 58.2254 142.775 73 161 73Z" fill="#58C4FF"/>
<path fill-rule="evenodd" clip-rule="evenodd" d="M318.971 7.98315C333.679 11.6475 344 24.8484 344 39.9952V405H277.968V172.319L218.303 284.453L160 253.475L281.833 24.5064C288.949 11.1326 304.264 4.31881 318.971 7.98315Z" fill="#58C4FF"/>
<path d="M311 438C329.225 438 344 423.225 344 405C344 386.775 329.225 372 311 372C292.775 372 278 386.775 278 405C278 423.225 292.775 438 311 438Z" fill="#58C4FF"/>
</svg>
