<svg width="159" height="32" viewBox="0 0 159 32" fill="none" xmlns="http://www.w3.org/2000/svg">
<path d="M4.10887 10.0585H0.995422V7.52035H4.10887V2.68097H6.8839V7.52035H11.2495V10.0585H6.8839V20.2449C6.8839 20.9668 7.01926 21.4857 7.29 21.8016C7.58329 22.0949 8.07964 22.2415 8.77904 22.2415H11.791V24.7797H8.60983C6.98542 24.7797 5.82352 24.4187 5.12412 23.6967C4.44729 22.9748 4.10887 21.8354 4.10887 20.2787V10.0585Z" fill="#13171B"/>
<path d="M20.7318 24.9827C19.0623 24.9827 17.5733 24.6105 16.2647 23.8659C14.9787 23.1214 13.9747 22.0836 13.2528 20.7525C12.5308 19.4214 12.1698 17.8872 12.1698 16.15C12.1698 14.4128 12.5308 12.8786 13.2528 11.5475C13.9747 10.2164 14.9787 9.1786 16.2647 8.43408C17.5733 7.68956 19.0623 7.3173 20.7318 7.3173C22.4014 7.3173 23.8791 7.68956 25.1651 8.43408C26.4736 9.1786 27.4889 10.2164 28.2109 11.5475C28.9328 12.8786 29.2938 14.4128 29.2938 16.15C29.2938 17.8872 28.9328 19.4214 28.2109 20.7525C27.4889 22.0836 26.4736 23.1214 25.1651 23.8659C23.8791 24.6105 22.4014 24.9827 20.7318 24.9827ZM20.7318 22.5123C21.8599 22.5123 22.8526 22.2415 23.7099 21.7001C24.5898 21.1586 25.2666 20.4028 25.7404 19.4327C26.2142 18.4625 26.4511 17.3683 26.4511 16.15C26.4511 14.9317 26.2142 13.8375 25.7404 12.8674C25.2666 11.8972 24.5898 11.1414 23.7099 10.6C22.8526 10.0585 21.8599 9.78775 20.7318 9.78775C19.6038 9.78775 18.5998 10.0585 17.7199 10.6C16.8626 11.1414 16.197 11.8972 15.7232 12.8674C15.2495 13.8375 15.0126 14.9317 15.0126 16.15C15.0126 17.3683 15.2495 18.4625 15.7232 19.4327C16.197 20.4028 16.8626 21.1586 17.7199 21.7001C18.5998 22.2415 19.6038 22.5123 20.7318 22.5123Z" fill="#13171B"/>
<path d="M48.2989 7.52035V23.9336C48.2989 29.1453 45.4449 31.7511 39.7369 31.7511C37.5034 31.7511 35.6759 31.2435 34.2546 30.2282C32.8558 29.2129 32.0436 27.769 31.8179 25.8965H34.6607C34.8863 26.9794 35.4616 27.8142 36.3866 28.4007C37.3116 28.9873 38.4961 29.2806 39.94 29.2806C43.6626 29.2806 45.5239 27.4645 45.5239 23.8321V21.8016C44.283 23.9223 42.3089 24.9827 39.6016 24.9827C37.9997 24.9827 36.5671 24.633 35.3036 23.9336C34.0628 23.2342 33.0814 22.219 32.3594 20.8879C31.66 19.5568 31.3103 17.9775 31.3103 16.15C31.3103 14.4128 31.66 12.8786 32.3594 11.5475C33.0814 10.2164 34.0741 9.1786 35.3375 8.43408C36.6009 7.68956 38.0223 7.3173 39.6016 7.3173C41.0004 7.3173 42.1961 7.59932 43.1888 8.16335C44.1815 8.70481 44.9598 9.48318 45.5239 10.4984L45.8961 7.52035H48.2989ZM39.8723 22.5123C40.9778 22.5123 41.9592 22.2528 42.8165 21.7339C43.6964 21.1924 44.3733 20.4479 44.847 19.5004C45.3208 18.5302 45.5577 17.436 45.5577 16.2177C45.5577 14.9768 45.3208 13.8713 44.847 12.9012C44.3733 11.9085 43.6964 11.1414 42.8165 10.6C41.9592 10.0585 40.9778 9.78775 39.8723 9.78775C38.1576 9.78775 36.7701 10.3856 35.7098 11.5814C34.6719 12.7545 34.153 14.2774 34.153 16.15C34.153 18.0226 34.6719 19.5568 35.7098 20.7525C36.7701 21.9257 38.1576 22.5123 39.8723 22.5123Z" fill="#13171B"/>
<path d="M50.9135 16.15C50.9135 14.3902 51.2519 12.8448 51.9287 11.5137C52.6281 10.1826 53.5982 9.15604 54.8391 8.43408C56.08 7.68956 57.5013 7.3173 59.1032 7.3173C60.6825 7.3173 62.0813 7.64444 63.2996 8.29871C64.5179 8.95299 65.4767 9.90056 66.1761 11.1414C66.8755 12.3823 67.2478 13.8375 67.2929 15.507C67.2929 15.7552 67.2703 16.15 67.2252 16.6915H53.8239V16.9284C53.869 18.6205 54.3879 19.9741 55.3806 20.9894C56.3733 22.0046 57.6705 22.5123 59.2724 22.5123C60.5133 22.5123 61.5624 22.2077 62.4197 21.5985C63.2996 20.9668 63.8862 20.0982 64.1795 18.9927H66.9883C66.6499 20.7525 65.8039 22.1964 64.4502 23.3245C63.0965 24.43 61.4383 24.9827 59.4754 24.9827C57.7608 24.9827 56.2605 24.6217 54.9745 23.8998C53.6885 23.1553 52.6845 22.1175 51.9626 20.7863C51.2632 19.4327 50.9135 17.8872 50.9135 16.15ZM64.4163 14.3902C64.281 12.9238 63.7282 11.7844 62.7581 10.9722C61.8105 10.16 60.6035 9.75391 59.137 9.75391C57.8285 9.75391 56.6779 10.1826 55.6852 11.0399C54.6925 11.8972 54.1284 13.014 53.9931 14.3902H64.4163Z" fill="#13171B"/>
<path d="M70.8553 10.0585H67.7418V7.52035H70.8553V2.68097H73.6303V7.52035H77.9959V10.0585H73.6303V20.2449C73.6303 20.9668 73.7657 21.4857 74.0364 21.8016C74.3297 22.0949 74.8261 22.2415 75.5255 22.2415H78.5374V24.7797H75.3563C73.7318 24.7797 72.5699 24.4187 71.8705 23.6967C71.1937 22.9748 70.8553 21.8354 70.8553 20.2787V10.0585Z" fill="#13171B"/>
<path d="M88.4155 7.3173C90.5137 7.3173 92.2058 7.94901 93.4918 9.21244C94.7778 10.4759 95.4208 12.4613 95.4208 15.1686V24.7797H92.6457V15.3378C92.6457 13.5555 92.2396 12.2018 91.4274 11.2768C90.6152 10.3292 89.4533 9.85544 87.9417 9.85544C86.3399 9.85544 85.0652 10.4195 84.1176 11.5475C83.1926 12.6756 82.7301 14.2097 82.7301 16.15V24.7797H79.9551V1.09041H82.7301V10.3631C83.2941 9.46061 84.0386 8.72738 84.9636 8.16335C85.9112 7.59932 87.0618 7.3173 88.4155 7.3173Z" fill="#13171B"/>
<path d="M97.7924 16.15C97.7924 14.3902 98.1308 12.8448 98.8076 11.5137C99.507 10.1826 100.477 9.15604 101.718 8.43408C102.959 7.68956 104.38 7.3173 105.982 7.3173C107.561 7.3173 108.96 7.64444 110.178 8.29871C111.397 8.95299 112.356 9.90056 113.055 11.1414C113.754 12.3823 114.127 13.8375 114.172 15.507C114.172 15.7552 114.149 16.15 114.104 16.6915H100.703V16.9284C100.748 18.6205 101.267 19.9741 102.259 20.9894C103.252 22.0046 104.549 22.5123 106.151 22.5123C107.392 22.5123 108.441 22.2077 109.299 21.5985C110.178 20.9668 110.765 20.0982 111.058 18.9927H113.867C113.529 20.7525 112.683 22.1964 111.329 23.3245C109.975 24.43 108.317 24.9827 106.354 24.9827C104.64 24.9827 103.139 24.6217 101.853 23.8998C100.567 23.1553 99.5634 22.1175 98.8414 20.7863C98.1421 19.4327 97.7924 17.8872 97.7924 16.15ZM111.295 14.3902C111.16 12.9238 110.607 11.7844 109.637 10.9722C108.689 10.16 107.482 9.75391 106.016 9.75391C104.707 9.75391 103.557 10.1826 102.564 11.0399C101.571 11.8972 101.007 13.014 100.872 14.3902H111.295Z" fill="#13171B"/>
<path d="M125.547 7.52035V10.2277H124.159C122.512 10.2277 121.328 10.7804 120.606 11.8859C119.907 12.9914 119.557 14.3564 119.557 15.9808V24.7797H116.782V7.52035H119.185L119.557 10.1262C120.053 9.33653 120.696 8.70481 121.486 8.23103C122.276 7.75724 123.37 7.52035 124.769 7.52035H125.547Z" fill="#13171B"/>
<path d="M153.812 22.2415V24.7797H152.289C151.183 24.7797 150.394 24.5541 149.92 24.1028C149.446 23.6516 149.198 22.9861 149.175 22.1062C147.844 24.0239 145.915 24.9827 143.389 24.9827C141.471 24.9827 139.925 24.5315 138.752 23.6291C137.602 22.7266 137.026 21.497 137.026 19.9403C137.026 18.2031 137.613 16.872 138.786 15.947C139.982 15.022 141.708 14.5594 143.964 14.5594H149.04V13.375C149.04 12.2469 148.657 11.367 147.889 10.7353C147.145 10.1036 146.096 9.78775 144.742 9.78775C143.546 9.78775 142.554 10.0585 141.764 10.6C140.997 11.1189 140.523 11.8183 140.343 12.6981H137.568C137.771 11.0061 138.515 9.68623 139.801 8.73866C141.11 7.79109 142.802 7.3173 144.878 7.3173C147.089 7.3173 148.792 7.85877 149.988 8.94171C151.206 10.0021 151.815 11.5362 151.815 13.5442V20.9894C151.815 21.8242 152.199 22.2415 152.966 22.2415H153.812ZM149.04 16.8945H143.693C141.121 16.8945 139.835 17.8534 139.835 19.7711C139.835 20.6284 140.174 21.3165 140.85 21.8354C141.527 22.3543 142.441 22.6138 143.592 22.6138C145.284 22.6138 146.615 22.1739 147.585 21.294C148.555 20.3915 149.04 19.2071 149.04 17.7406V16.8945Z" fill="#13171B"/>
<path d="M156.776 0.853516C157.295 0.853516 157.724 1.02272 158.062 1.36114C158.401 1.69956 158.57 2.12822 158.57 2.64713C158.57 3.16604 158.401 3.5947 158.062 3.93312C157.724 4.27154 157.295 4.44075 156.776 4.44075C156.257 4.44075 155.829 4.27154 155.49 3.93312C155.152 3.5947 154.983 3.16604 154.983 2.64713C154.983 2.12822 155.152 1.69956 155.49 1.36114C155.829 1.02272 156.257 0.853516 156.776 0.853516ZM155.389 7.52035H158.164V24.7797H155.389V7.52035Z" fill="#13171B"/>
<path d="M131.6 22.1515C131.6 23.6029 130.409 24.7795 128.94 24.7795C127.471 24.7795 126.281 23.6029 126.281 22.1515C126.281 20.7 127.471 19.5234 128.94 19.5234C130.409 19.5234 131.6 20.7 131.6 22.1515Z" fill="#0F6FFF"/>
</svg>
