<svg width="88" height="20" viewBox="0 0 88 20" fill="none" xmlns="http://www.w3.org/2000/svg">
<g id="Group 184">
<path id="Vector" d="M68.3875 0.796875H63.1172V19.2053H68.3875V0.796875Z" fill="black"/>
<path id="Vector_2" d="M56.4214 0.795898L47.0185 10.2058V0.795898H41.75V19.2052H45.4749L54.8787 9.79615V19.2052H60.1472V0.795898H56.4214Z" fill="black"/>
<path id="Vector_3" d="M84.3199 13.4761C83.6334 14.1633 82.7588 14.6316 81.8065 14.8218C80.8542 15.012 79.8669 14.9156 78.9693 14.5448C78.0717 14.174 77.304 13.5454 76.7632 12.7384C76.2223 11.9314 75.9326 10.9822 75.9305 10.0106C75.9285 9.03895 76.2142 8.0885 76.7516 7.27921C77.289 6.46992 78.054 5.83808 78.95 5.46348C79.846 5.08887 80.8328 4.98829 81.7859 5.17444C82.739 5.36058 83.6157 5.8251 84.3051 6.50935L87.8837 2.90088C84.0019 -0.951643 77.6445 -0.939439 73.7785 2.92877C69.9124 6.79698 69.902 13.192 73.7785 17.0707C77.6549 20.9493 84.0351 20.9493 87.9124 17.0707L84.3199 13.4761Z" fill="black"/>
<path id="Vector_4" d="M29.379 1.52005e-07C27.4021 -0.000344637 25.4696 0.585874 23.8258 1.68452C22.182 2.78316 20.9007 4.34488 20.144 6.17216C19.3873 7.99944 19.1892 10.0102 19.5747 11.9502C19.9602 13.8901 20.912 15.6721 22.3098 17.0708C23.7076 18.4694 25.4885 19.4219 27.4273 19.8078C29.3661 20.1937 31.3758 19.9957 33.2021 19.2387C35.0284 18.4817 36.5894 17.1999 37.6875 15.5552C38.7857 13.9106 39.3718 11.977 39.3716 9.99913C39.3714 7.34741 38.3185 4.80436 36.4446 2.92924C34.5707 1.05412 32.0292 0.000462394 29.379 1.52005e-07ZM29.379 14.9185C28.407 14.9187 27.4569 14.6305 26.6486 14.0903C25.8404 13.5501 25.2104 12.7823 24.8384 11.8839C24.4663 10.9855 24.3689 9.99688 24.5584 9.04306C24.7479 8.08925 25.2158 7.21308 25.903 6.52537C26.5902 5.83767 27.4658 5.3693 28.4191 5.17952C29.3723 4.98973 30.3604 5.08705 31.2584 5.45916C32.1564 5.83128 32.9239 6.46147 33.4639 7.27004C34.0039 8.07862 34.2921 9.02926 34.2921 10.0017C34.2919 11.3055 33.7742 12.5559 32.8529 13.4779C31.9315 14.3998 30.682 14.918 29.379 14.9185Z" fill="black"/>
<path id="Vector_5" d="M0 6.0628H6.56391V19.2041H11.8342V6.0628H18.3981V0.789551H0V6.0628Z" fill="black"/>
</g>
</svg>
