<svg width="161" height="24" viewBox="0 0 161 24" fill="none" xmlns="http://www.w3.org/2000/svg">
<path fill-rule="evenodd" clip-rule="evenodd" d="M4.12543 1.98139L10.7876 20.2868C10.989 20.834 10.9662 21.3703 10.7194 21.8945C10.4742 22.4181 10.0752 22.7803 9.52254 22.9789C8.97275 23.1786 8.43289 23.1554 7.90545 22.9113C7.37719 22.6669 7.01301 22.2702 6.81188 21.7228L0.149254 3.41866L0.135184 3.37943C-0.0655291 2.83221 -0.0427679 2.29711 0.203674 1.77269C0.449909 1.24868 0.84761 0.887151 1.39864 0.68749C1.95132 0.487828 2.49076 0.511245 3.018 0.755071C3.54689 0.999923 3.91065 1.39575 4.11136 1.94297L4.12543 1.98139Z" fill="#002B43"/>
<path fill-rule="evenodd" clip-rule="evenodd" d="M13.9219 1.90814L7.25972 20.2135C7.05838 20.7607 7.08114 21.2971 7.328 21.8213C7.5732 22.3449 7.97214 22.707 8.52483 22.9057C9.07461 23.1053 9.61447 23.0821 10.1419 22.8381C10.6702 22.5936 11.0344 22.197 11.2355 21.6496L17.8981 3.34542L17.9122 3.30618C18.1129 2.75896 18.0901 2.22386 17.8437 1.69944C17.5975 1.17544 17.1998 0.813909 16.6487 0.614248C16.096 0.414586 15.5566 0.438003 15.0294 0.681828C14.5005 0.926681 14.1367 1.32251 13.936 1.86973L13.9219 1.90814Z" fill="#002B43"/>
<path fill-rule="evenodd" clip-rule="evenodd" d="M27.6944 1.90814L21.0322 20.2135C20.8308 20.7607 20.8536 21.2971 21.1005 21.8213C21.3457 22.3449 21.7446 22.707 22.2973 22.9057C22.8471 23.1053 23.3869 23.0821 23.9144 22.8381C24.4426 22.5936 24.8068 22.197 25.0079 21.6496L31.6706 3.34542L31.6846 3.30618C31.8854 2.75896 31.8626 2.22386 31.6162 1.69944C31.3699 1.17544 30.9722 0.813909 30.4212 0.614248C29.8685 0.414586 29.3291 0.438003 28.8018 0.681828C28.2729 0.926681 27.9092 1.32251 27.7085 1.86973L27.6944 1.90814Z" fill="#002B43"/>
<path fill-rule="evenodd" clip-rule="evenodd" d="M78.1474 0C78.7339 0 79.2331 0.208058 79.6444 0.623968C80.0569 1.03947 80.2626 1.53856 80.2626 2.12063C80.2626 2.56447 80.1297 2.97278 79.8647 3.34741L71.6964 14.493V20.4599C71.6964 20.9726 71.5256 21.4273 71.1834 21.8222C70.8408 22.217 70.4187 22.4561 69.9166 22.5395H69.8744C69.8322 22.5395 69.7972 22.5464 69.7697 22.56H69.3926C69.3642 22.5464 69.3295 22.5395 69.2879 22.5395H69.2459C68.7432 22.4561 68.3209 22.217 67.9791 21.8222C67.6367 21.4273 67.4654 20.9726 67.4654 20.4599V20.2519C67.4485 16.4272 67.4398 14.5061 67.4395 14.4884L67.4395 14.5031C67.4622 14.0281 67.5249 13.6697 67.6276 13.4279C67.7881 13.0498 69.4119 10.655 72.499 6.24367L76.43 0.873309C76.6387 0.610207 76.8905 0.398863 77.1835 0.239071C77.4775 0.0798959 77.7979 0 78.1474 0Z" fill="#002B43"/>
<path fill-rule="evenodd" clip-rule="evenodd" d="M63.0559 1.36898L67.5147 7.70814C67.8487 8.17386 67.9731 8.6917 67.8889 9.26144C67.8054 9.82955 67.5361 10.2857 67.0829 10.6292C66.6295 10.9721 66.1275 11.1004 65.5763 11.0138C65.0225 10.9278 64.5794 10.6504 64.247 10.1841L59.7886 3.84597L59.7642 3.81286C59.4318 3.34673 59.3068 2.82909 59.3913 2.25874C59.4741 1.69104 59.7423 1.23533 60.1951 0.891602C60.6493 0.547673 61.1524 0.419542 61.7032 0.506189C62.2578 0.593448 62.6989 0.870758 63.0325 1.33628L63.0559 1.36898Z" fill="#002B43"/>
<path fill-rule="evenodd" clip-rule="evenodd" d="M18.3731 1.9085L25.0359 20.2138C25.2369 20.761 25.2143 21.2965 24.9676 21.821C24.7222 22.3446 24.3231 22.7065 23.771 22.906C23.2202 23.105 22.6809 23.0824 22.1537 22.8378C21.6252 22.5939 21.2608 22.1975 21.0603 21.6501L14.3975 3.34496L14.3824 3.30634C14.1827 2.75932 14.2054 2.22381 14.4521 1.69897C14.6975 1.17558 15.095 0.813432 15.6463 0.614385C16.1985 0.414723 16.7386 0.437729 17.2659 0.681967C17.7944 0.926615 18.1581 1.32286 18.3595 1.86947L18.3731 1.9085Z" fill="#002B43"/>
<path fill-rule="evenodd" clip-rule="evenodd" d="M36.5694 2.57872C36.5694 1.9974 36.7737 1.50206 37.1831 1.09331C37.5917 0.684766 38.0879 0.47998 38.6704 0.47998C39.2539 0.47998 39.7491 0.684766 40.1587 1.09331C40.5679 1.50206 40.772 1.9974 40.772 2.57872V9.66207L51.3637 9.66219V2.57864C51.3637 1.99732 51.568 1.50198 51.9779 1.09323C52.3867 0.684889 52.8833 0.480104 53.4656 0.480104C54.0483 0.480104 54.5438 0.684889 54.9531 1.09323C55.3623 1.50198 55.5664 1.99732 55.5664 2.57864V20.9418C55.5664 21.5239 55.3623 22.0189 54.9531 22.4274C54.5438 22.8362 54.0483 23.0399 53.4656 23.0399C52.8833 23.0399 52.3867 22.8362 51.9779 22.4274C51.568 22.0189 51.3637 21.5239 51.3637 20.9418V13.8794H40.7721L40.772 20.9419C40.772 21.524 40.5679 22.0189 40.1587 22.4273C39.7492 22.836 39.2541 23.04 38.6706 23.04C38.0881 23.04 37.5919 22.836 37.1831 22.4273C36.7736 22.0189 36.5693 21.524 36.5693 20.9419L36.5694 2.57872Z" fill="#002B43"/>
<path fill-rule="evenodd" clip-rule="evenodd" d="M99.1056 19.4431C99.5254 19.8588 99.7343 20.3579 99.7343 20.9399C99.7343 21.5226 99.5254 22.018 99.1056 22.4267C98.6865 22.836 99.2909 23.04 98.7041 23.04H86.6537C86.0669 23.04 85.567 22.836 85.1556 22.4267C84.7425 22.018 84.5366 21.5226 84.5366 20.9399V2.601C84.5366 2.01914 84.7425 1.51964 85.1556 1.10394C85.567 0.688242 86.0669 0.47998 86.6537 0.47998C87.2405 0.47998 87.7404 0.688242 88.1525 1.10394C88.565 1.51964 88.771 2.01914 88.771 2.601V18.8195H97.5965C98.1833 18.8195 98.6865 19.0274 99.1056 19.4431Z" fill="#002B43"/>
<path fill-rule="evenodd" clip-rule="evenodd" d="M119.682 20.9419C119.682 21.524 119.478 22.0189 119.069 22.4273C118.661 22.836 118.166 23.04 117.585 23.04C117.184 23.04 116.813 22.9329 116.474 22.718C116.135 22.5032 115.883 22.2227 115.716 21.8769L115.695 21.8977L113.536 17.6187H108.531C107.949 17.6187 107.45 17.4105 107.035 16.9951C106.62 16.5798 106.412 16.0812 106.412 15.4995C106.412 14.9175 106.62 14.4226 107.035 14.0141C107.45 13.6055 107.949 13.4016 108.531 13.4016H111.398L108.284 7.25266L100.85 21.8977V21.8769C100.67 22.2227 100.415 22.5032 100.083 22.718C99.7501 22.9329 99.3832 23.04 98.9816 23.04C98.4004 23.04 97.9053 22.836 97.4972 22.4273C97.0895 22.0189 96.8853 21.524 96.8853 20.9419C96.8853 20.6101 96.9611 20.291 97.1131 19.9867H97.0926L106.332 1.81026C106.484 1.42244 106.737 1.10357 107.09 0.854257C107.442 0.60515 107.84 0.47998 108.284 0.47998C108.726 0.47998 109.121 0.60515 109.466 0.854257C109.812 1.10357 110.069 1.42244 110.235 1.81026L119.453 19.9867C119.605 20.291 119.682 20.6101 119.682 20.9419Z" fill="#002B43"/>
<path fill-rule="evenodd" clip-rule="evenodd" d="M135.929 18.4389C136.35 18.1826 136.676 17.8434 136.907 17.4213C137.139 16.999 137.255 16.5523 137.255 16.0812C137.255 15.5551 137.1 15.0562 136.791 14.5855C136.455 14.1009 136.069 13.7752 135.634 13.609C135.199 13.4432 134.729 13.3601 134.224 13.3601L133.507 13.3802L131.79 13.3601L131.727 13.3802C131.137 13.3802 130.636 13.173 130.222 12.7576C129.808 12.3423 129.601 11.8435 129.601 11.2614C129.601 10.7215 129.786 10.2512 130.158 9.84921C130.53 9.44826 130.983 9.21905 131.516 9.16385H131.727H131.748H133.487C134.188 9.1497 134.732 8.92152 135.118 8.4783C135.504 8.03487 135.697 7.51572 135.697 6.91984C135.697 6.33852 135.511 5.82902 135.14 5.39298C134.767 4.95673 134.251 4.73184 133.592 4.71788H126.309V18.8234H134.497C135.03 18.8234 135.507 18.6954 135.929 18.4389ZM140.854 13.0691C141.304 14.0112 141.528 14.9941 141.528 16.0184C141.528 17.2235 141.237 18.3628 140.655 19.4357C140.072 20.5099 139.244 21.3787 138.17 22.0432C137.097 22.7076 135.873 23.04 134.497 23.04H124.183C124.085 23.04 124.014 23.0334 123.972 23.0197C123.565 22.9918 123.204 22.8568 122.887 22.6148C122.572 22.3723 122.337 22.0639 122.183 21.6898C122.099 21.4409 122.056 21.1916 122.056 20.9419V2.61996V2.59924V2.57872C122.056 1.9974 122.263 1.50206 122.677 1.09331C123.091 0.684971 123.593 0.47998 124.183 0.47998H124.203H133.445C134.679 0.47998 135.798 0.781002 136.803 1.38428C137.805 1.98653 138.587 2.78617 139.149 3.78363C139.71 4.78047 139.991 5.83989 139.991 6.9617C139.991 8.23576 139.612 9.42651 138.855 10.5344C138.826 10.5627 138.812 10.5904 138.812 10.6181C139.725 11.3106 140.405 12.1277 140.854 13.0691Z" fill="#002B43"/>
<path fill-rule="evenodd" clip-rule="evenodd" d="M156.283 10.8415C156.283 10.8415 157.08 11.0881 158.648 12.2111C160.215 13.3336 161 14.9406 161 17.0322C161 18.309 160.678 19.4771 160.036 20.5372C159.393 21.5973 158.458 22.4391 157.228 23.0632C155.998 23.6872 154.541 24 152.856 24C151.294 24 149.834 23.7686 148.474 23.3054C147.112 22.8419 145.741 22.1476 144.36 21.2212C144.07 21.0251 143.842 20.7726 143.677 20.463C143.51 20.1546 143.428 19.8175 143.428 19.4527C143.428 18.8634 143.631 18.3614 144.039 17.9476C144.446 17.5334 144.941 17.3267 145.521 17.3267C145.962 17.3267 146.342 17.4383 146.661 17.6635V17.6419C147.71 18.3444 148.719 18.8707 149.686 19.2213C150.652 19.5719 151.709 19.7474 152.856 19.7474C154.224 19.7474 155.221 19.4877 155.85 18.9686C156.479 18.4492 156.793 17.8039 156.793 17.0322C156.793 16.4705 156.593 16.0074 156.192 15.6418C155.791 15.2773 155.287 14.9862 154.68 14.7682C154.071 14.5509 153.229 14.3089 152.151 14.0423C150.728 13.6773 149.558 13.3267 148.639 12.9896C147.721 12.653 146.864 12.1408 146.07 11.4525C145.275 10.7654 144.712 9.86684 144.381 8.75784C144.229 8.29494 144.153 7.74699 144.153 7.11566V6.94763C144.194 5.34745 144.564 4.02821 145.262 2.98991C145.959 1.95141 146.874 1.19364 148.007 0.716182C149.14 0.239351 150.383 0 151.737 0C153.201 0 154.638 0.25266 156.047 0.758396C157.028 1.12335 157.947 1.53738 158.803 1.99986C159.148 2.18265 159.425 2.44259 159.632 2.77884C159.839 3.11572 159.943 3.48816 159.943 3.89492C159.943 4.48404 159.739 4.98666 159.332 5.39985C158.924 5.81472 158.43 6.02142 157.85 6.02142C157.505 6.02142 157.18 5.94427 156.876 5.78935C155.73 5.1867 154.786 4.78682 154.048 4.58968C153.308 4.39296 152.559 4.29501 151.799 4.29501C150.915 4.29501 150.221 4.40003 149.717 4.61089C149.212 4.82113 148.86 5.12411 148.66 5.51589C148.459 5.90954 148.353 6.4211 148.339 7.05265V7.11566C148.353 7.80397 148.76 8.34444 149.561 8.73705C150.362 9.13028 151.316 9.4524 152.421 9.70547C155.004 10.2532 156.283 10.8415 156.283 10.8415Z" fill="#002B43"/>
</svg>
