<svg width="476" height="104" viewBox="0 0 476 104" fill="none" xmlns="http://www.w3.org/2000/svg">
<path d="M144.9 38.72C143.1 35.72 138.14 32.86 132.43 32.86C125.07 32.86 121.54 35.94 121.54 39.84C121.54 44.42 126.95 45.7 133.25 46.45C144.22 47.8 154.43 50.66 154.43 63.2C154.43 74.92 144.06 79.95 132.35 79.95C121.61 79.95 113.35 76.65 109.44 67.03L117.7 62.75C120.03 68.53 126.11 71.09 132.49 71.09C138.72 71.09 144.58 68.91 144.58 63.2C144.58 58.24 139.4 56.22 132.41 55.46C121.67 54.18 111.76 51.33 111.76 39.54C111.76 28.73 122.42 24.29 132.11 24.22C140.3 24.22 148.78 26.55 152.76 34.66L144.9 38.72Z" fill="black"/>
<path d="M172.39 41.57V60.95C172.39 66.58 175.47 70.86 181.33 70.86C186.96 70.86 190.79 66.13 190.79 60.5V41.57H199.88V78.67H191.69L191.09 73.64C187.26 77.4 183.73 79.2 178.55 79.2C169.69 79.2 163.23 72.52 163.23 61.03V41.58H172.39V41.57Z" fill="black"/>
<path d="M211 94.07V41.57H219.56L220.16 46.68C223.01 42.55 227.97 40.75 232.18 40.75C243.6 40.75 251.18 49.24 251.18 60.13C251.18 70.94 244.35 79.51 232.48 79.51C228.58 79.51 222.79 78.31 220.16 74.25V94.08H211V94.07ZM242.02 60.12C242.02 54.34 238.11 49.61 231.51 49.61C224.9 49.61 221 54.34 221 60.12C221 65.9 225.28 70.63 231.51 70.63C237.74 70.63 242.02 65.91 242.02 60.12Z" fill="black"/>
<path d="M268.76 63.35C269.36 67.93 273.34 71.24 279.8 71.24C283.18 71.24 287.61 69.96 289.71 67.79L295.57 73.57C291.67 77.63 285.28 79.58 279.65 79.58C266.88 79.58 259.3 71.69 259.3 59.83C259.3 48.57 266.96 40.45 278.98 40.45C291.37 40.45 299.11 48.11 297.68 63.36H268.76V63.35ZM288.89 55.77C288.29 50.96 284.53 48.56 279.28 48.56C274.32 48.56 270.27 50.96 268.92 55.77H288.89Z" fill="black"/>
<path d="M316.23 41.57L316.91 45.85C319.76 41.27 323.59 40.59 327.35 40.59C331.18 40.59 334.86 42.09 336.89 44.12L332.76 52.08C330.88 50.5 329.16 49.68 326.15 49.68C321.34 49.68 316.91 52.23 316.91 59.07V78.6H307.75V41.58H316.23V41.57Z" fill="black"/>
<path d="M346.35 78.6V50.14H339.44V42.1H346.35V39.62C346.35 29.71 353.03 25.13 360.47 25.13C363.7 25.13 367.08 26.18 370.08 28.13L366.7 34.96C364.75 33.68 362.95 33.01 361.07 33.01C357.92 33.01 355.51 35.11 355.51 39.62V42.1H366.4V50.14H355.51V78.6H346.35Z" fill="black"/>
<path d="M385.7 26.1V78.6H376.61V26.1H385.7Z" fill="black"/>
<path d="M404.56 63.35C405.16 67.93 409.14 71.24 415.6 71.24C418.98 71.24 423.41 69.96 425.51 67.79L431.37 73.57C427.47 77.63 421.08 79.58 415.45 79.58C402.68 79.58 395.1 71.69 395.1 59.83C395.1 48.57 402.76 40.45 414.78 40.45C427.17 40.45 434.91 48.11 433.48 63.36H404.56V63.35ZM424.68 55.77C424.08 50.96 420.32 48.56 415.07 48.56C410.11 48.56 406.06 50.96 404.71 55.77H424.68Z" fill="black"/>
<path d="M463.37 41.57H474.34V41.87L462.17 59.82L475.09 78.37V78.6H464.12L456.08 66.21L448.04 78.6H437.08V78.37L450 59.82L437.83 41.87V41.57H448.8L456.08 54.11L463.37 41.57Z" fill="black"/>
<path d="M84.5801 39.89L71.3001 26.61L71.4901 26.96C65.3301 20.92 55.4701 20.96 49.3301 27.01L31.5301 44.64C29.2901 46.86 30.2801 50.66 33.3301 51.49L45.1701 54.7V62.92L22.5401 56.75C17.0501 55.26 15.2501 48.39 19.2901 44.4L45.1301 18.77C50.1901 13.73 50.2201 5.54001 45.1801 0.480011L15.7901 29.87L15.7401 29.93L5.77009 39.89C-0.969912 46.63 -0.969912 57.55 5.77009 64.29L19.0501 77.56L18.8601 77.23C25.0201 83.26 34.8801 83.23 41.0201 77.17L58.8201 59.55C61.0601 57.33 60.0701 53.53 57.0201 52.7L45.1801 49.48V41.28L67.8101 47.45C73.3001 48.94 75.1001 55.81 71.0601 59.8L45.2301 85.43C40.1501 90.45 40.1301 98.65 45.1701 103.71L74.5601 74.33L74.6101 74.27L84.5801 64.31C91.3201 57.55 91.3201 46.63 84.5801 39.89Z" fill="url(#paint0_linear_29_124)"/>
<path d="M77.6802 50.12C74.1102 49.14 70.2702 48.1 66.5202 47.07L67.8202 47.42C73.3102 48.91 75.1102 55.78 71.0702 59.77L45.2402 85.4C45.0502 85.59 44.8802 85.79 44.7002 85.99L45.1802 103.68L74.5702 74.29L74.6202 74.23L82.1302 66.73C87.4902 61.33 85.0402 52.13 77.6802 50.12Z" fill="url(#paint1_linear_29_124)"/>
<path d="M12.6801 54.06C16.2501 55.04 20.0901 56.08 23.8401 57.11L22.5401 56.76C17.0501 55.27 15.2501 48.4 19.2901 44.41L45.1201 18.78C45.3101 18.59 45.4801 18.39 45.6601 18.19L45.1801 0.5L15.8001 29.87L15.7501 29.93L8.24012 37.43C2.86012 42.84 5.31012 52.05 12.6801 54.06Z" fill="url(#paint2_linear_29_124)"/>
<defs>
<linearGradient id="paint0_linear_29_124" x1="61.6324" y1="27.4596" x2="6.89079" y2="109.394" gradientUnits="userSpaceOnUse">
<stop offset="0.1774" stop-color="#FF3042"/>
<stop offset="0.8441" stop-color="#CE009F"/>
</linearGradient>
<linearGradient id="paint1_linear_29_124" x1="40.0441" y1="88.9232" x2="90.5991" y2="45.5538" gradientUnits="userSpaceOnUse">
<stop stop-color="#9814A8" stop-opacity="0"/>
<stop offset="0.222" stop-color="#9614A5" stop-opacity="0.222"/>
<stop offset="0.3777" stop-color="#90139C" stop-opacity="0.3777"/>
<stop offset="0.5131" stop-color="#85118C" stop-opacity="0.5131"/>
<stop offset="0.637" stop-color="#760E77" stop-opacity="0.637"/>
<stop offset="0.753" stop-color="#630B5A" stop-opacity="0.753"/>
<stop offset="0.8631" stop-color="#4C0737" stop-opacity="0.8631"/>
<stop offset="0.9667" stop-color="#30020F" stop-opacity="0.9667"/>
<stop offset="1" stop-color="#260000"/>
</linearGradient>
<linearGradient id="paint2_linear_29_124" x1="50.2931" y1="15.2537" x2="-0.261835" y2="58.6231" gradientUnits="userSpaceOnUse">
<stop stop-color="#9814A8" stop-opacity="0"/>
<stop offset="0.222" stop-color="#9614A5" stop-opacity="0.222"/>
<stop offset="0.3777" stop-color="#90139C" stop-opacity="0.3777"/>
<stop offset="0.5131" stop-color="#85118C" stop-opacity="0.5131"/>
<stop offset="0.637" stop-color="#760E77" stop-opacity="0.637"/>
<stop offset="0.753" stop-color="#630B5A" stop-opacity="0.753"/>
<stop offset="0.8631" stop-color="#4C0737" stop-opacity="0.8631"/>
<stop offset="0.9667" stop-color="#30020F" stop-opacity="0.9667"/>
<stop offset="1" stop-color="#260000"/>
</linearGradient>
</defs>
</svg>
